{
.appVersion = "1357";
DisplayStrings = (
"lc_to_lc\012\012aa\012af\012ag\012aj\012au\012av\012aw\012ax\012ay\012az\012bb\012bf\012bj\012bs\012bv\012bw\012bx\012by\012bz\012cf\012cg\012ci\012cj\012cl\012cn\012co\012cp\012cs\012ct\012cu\012cv\012cx\012cz\012fa\012ff\012fg\012fi\012fj\012fl\012fn\012fo\012fp\012fs\012ft\012fu\012fv\012fx\012fz\012ga\012gf\012gg\012gi\012gj\012gl\012gn\012go\012gp\012gs\012gt\012gu\012gv\012gx\012gz\012ia\012if\012ig\012ii\012ij\012il\012in\012io\012ip\012is\012it\012iu\012iv\012ix\012iz\012ja\012jf\012jg\012ji\012jj\012jl\012jn\012jo\012jp\012js\012jt\012ju\012jv\012jx\012jz\012ka\012kf\012kg\012ki\012kj\012kl\012kn\012ko\012kp\012ks\012kt\012ku\012kv\012kx\012kz\012la\012lf\012lg\012li\012lj\012ll\012ln\012lo\012lp\012ls\012lt\012lu\012lv\012lx\012lz\012na\012nf\012ng\012ni\012nj\012nl\012nn\012no\012np\012ns\012nt\012nu\012nv\012nx\012nz\012oa\012of\012og\012oi\012oj\012ol\012on\012oo\012op\012os\012ot\012ou\012ov\012ox\012oz\012qa\012qf\012qg\012qi\012qj\012ql\012qn\012qo\012qp\012qs\012qt\012qu\012qv\012qx\012qz\012ra\012rf\012rg\012ri\012rj\012rl\012rn\012ro\012rp\012rs\012rt\012ru\012rv\012rx\012rz\012sa\012sf\012sg\012si\012sj\012sl\012sn\012so\012sp\012ss\012st\012su\012sv\012sx\012sz\012ta\012tf\012tg\012ti\012tj\012tl\012tn\012to\012tp\012ts\012tt\012tu\012tv\012tx\012tz\012va\012vf\012vg\012vi\012vj\012vl\012vn\012vo\012vp\012vs\012vt\012vu\012vv\012vx\012vz\012xa\012xf\012xg\012xi\012xj\012xl\012xn\012xo\012xp\012xs\012xt\012xu\012xv\012xx\012xz\012za\012zf\012zg\012zi\012zj\012zl\012zn\012zo\012zp\012zs\012zt\012zu\012zv\012zx\012zz\012",

glyphs = (
{
glyphname = .notdef;
lastChange = "2021-10-05 05:06:45 +0000";
layers = (
{
layerId = "0CF23081-C341-41E4-8FF8-6B151438961F";
paths = (
{
closed = 1;
nodes = (
"62 -5 LINE",
"453 -5 LINE",
"464 7 LINE",
"464 575 LINE",
"453 587 LINE",
"62 587 LINE",
"50 575 LINE",
"50 7 LINE",
"62 -5 LINE"
);
},
{
closed = 1;
nodes = (
"168 117 LINE",
"157 139 LINE",
"240 292 LINE",
"157 443 LINE",
"168 465 LINE",
"251 314 LINE",
"336 466 LINE",
"349 443 LINE",
"263 290 LINE",
"349 139 LINE",
"336 117 LINE",
"251 267 LINE",
"168 117 LINE"
);
},
{
closed = 1;
nodes = (
"76 21 LINE",
"76 561 LINE",
"440 561 LINE",
"440 21 LINE",
"76 21 LINE"
);
},
{
closed = 1;
nodes = (
"97 40 LINE",
"417 40 LINE",
"417 538 LINE",
"97 538 LINE",
"97 40 LINE"
);
}
);
width = 514;
}
);
note = .notdef;
},
{
glyphname = A;
lastChange = "2021-10-05 05:06:45 +0000";
layers = (
{
anchors = (
{
name = bottom;
position = "{318, 0}";
},
{
name = ogonek;
position = "{553, -15}";
},
{
name = top;
position = "{557, 549}";
}
);
layerId = "0CF23081-C341-41E4-8FF8-6B151438961F";
paths = (
{
closed = 1;
nodes = (
"-74 -110 OFFCURVE",
"-21 -91 OFFCURVE",
"46 -52 CURVE",
"68 -62 OFFCURVE",
"94 -68 OFFCURVE",
"123 -71 CURVE SMOOTH",
"130 -72 OFFCURVE",
"134 -71 OFFCURVE",
"134 -68 CURVE SMOOTH",
"134 -66 OFFCURVE",
"132 -65 OFFCURVE",
"127 -64 CURVE SMOOTH",
"98 -61 OFFCURVE",
"75 -55 OFFCURVE",
"56 -46 CURVE",
"93 -24 OFFCURVE",
"146 19 OFFCURVE",
"214 83 CURVE",
"241 62 OFFCURVE",
"275 51 OFFCURVE",
"316 51 CURVE SMOOTH",
"345 51 OFFCURVE",
"366 58 OFFCURVE",
"381 73 CURVE SMOOTH",
"382 74 OFFCURVE",
"382 76 OFFCURVE",
"381 78 CURVE",
"379 80 OFFCURVE",
"377 80 OFFCURVE",
"376 78 CURVE",
"363 65 OFFCURVE",
"343 58 OFFCURVE",
"316 58 CURVE SMOOTH",
"277 58 OFFCURVE",
"246 68 OFFCURVE",
"221 89 CURVE",
"304 168 LINE",
"373 171 OFFCURVE",
"426 173 OFFCURVE",
"461 174 CURVE",
"453 137 OFFCURVE",
"449 105 OFFCURVE",
"449 79 CURVE SMOOTH",
"449 66 OFFCURVE",
"450 55 OFFCURVE",
"452 46 CURVE SMOOTH",
"461 0 OFFCURVE",
"482 -23 OFFCURVE",
"514 -23 CURVE SMOOTH",
"536 -23 OFFCURVE",
"562 -12 OFFCURVE",
"591 11 CURVE SMOOTH",
"616 29 OFFCURVE",
"637 50 OFFCURVE",
"656 74 CURVE",
"657 76 OFFCURVE",
"658 78 OFFCURVE",
"658 81 CURVE SMOOTH",
"658 84 OFFCURVE",
"657 86 OFFCURVE",
"654 86 CURVE SMOOTH",
"652 86 OFFCURVE",
"648 83 OFFCURVE",
"643 78 CURVE SMOOTH",
"618 51 OFFCURVE",
"602 33 OFFCURVE",
"593 25 CURVE SMOOTH",
"568 2 OFFCURVE",
"547 -9 OFFCURVE",
"531 -9 CURVE SMOOTH",
"512 -9 OFFCURVE",
"498 6 OFFCURVE",
"491 36 CURVE SMOOTH",
"488 51 OFFCURVE",
"486 68 OFFCURVE",
"486 89 CURVE SMOOTH",
"486 114 OFFCURVE",
"489 143 OFFCURVE",
"494 178 CURVE",
"557 188 OFFCURVE",
"587 215 OFFCURVE",
"585 260 CURVE",
"584 263 OFFCURVE",
"583 265 OFFCURVE",
"580 265 CURVE SMOOTH",
"576 265 OFFCURVE",
"574 263 OFFCURVE",
"574 258 CURVE SMOOTH",
"574 223 OFFCURVE",
"548 202 OFFCURVE",
"496 194 CURVE",
"519 306 OFFCURVE",
"537 387 OFFCURVE",
"549 436 CURVE SMOOTH",
"550 442 OFFCURVE",
"550 446 OFFCURVE",
"548 449 CURVE",
"562 476 OFFCURVE",
"569 497 OFFCURVE",
"569 514 CURVE SMOOTH",
"569 539 OFFCURVE",
"553 552 OFFCURVE",
"522 553 CURVE SMOOTH",
"515 553 OFFCURVE",
"512 551 OFFCURVE",
"512 548 CURVE SMOOTH",
"512 545 OFFCURVE",
"514 544 OFFCURVE",
"518 544 CURVE SMOOTH",
"534 543 OFFCURVE",
"542 536 OFFCURVE",
"542 521 CURVE SMOOTH",
"542 490 OFFCURVE",
"507 430 OFFCURVE",
"437 343 CURVE SMOOTH",
"386 280 OFFCURVE",
"339 226 OFFCURVE",
"294 182 CURVE",
"255 178 LINE",
"326 249 OFFCURVE",
"376 315 OFFCURVE",
"405 378 CURVE SMOOTH",
"418 407 OFFCURVE",
"425 433 OFFCURVE",
"425 456 CURVE SMOOTH",
"425 509 OFFCURVE",
"392 541 OFFCURVE",
"347 541 CURVE SMOOTH",
"315 541 OFFCURVE",
"284 527 OFFCURVE",
"254 500 CURVE SMOOTH",
"219 469 OFFCURVE",
"190 423 OFFCURVE",
"169 364 CURVE SMOOTH",
"156 329 OFFCURVE",
"149 290 OFFCURVE",
"149 249 CURVE SMOOTH",
"149 218 OFFCURVE",
"153 189 OFFCURVE",
"162 163 CURVE",
"94 147 OFFCURVE",
"43 119 OFFCURVE",
"9 78 CURVE SMOOTH",
"-7 58 OFFCURVE",
"-15 38 OFFCURVE",
"-15 19 CURVE SMOOTH",
"-15 -9 OFFCURVE",
"1 -31 OFFCURVE",
"34 -46 CURVE",
"-23 -81 OFFCURVE",
"-70 -98 OFFCURVE",
"-107 -98 CURVE SMOOTH",
"-123 -98 OFFCURVE",
"-131 -93 OFFCURVE",
"-131 -83 CURVE SMOOTH",
"-131 -78 OFFCURVE",
"-129 -71 OFFCURVE",
"-125 -62 CURVE",
"-130 -64 OFFCURVE",
"-133 -68 OFFCURVE",
"-135 -74 CURVE",
"-139 -81 OFFCURVE",
"-141 -86 OFFCURVE",
"-141 -91 CURVE SMOOTH",
"-141 -102 OFFCURVE",
"-132 -107 OFFCURVE",
"-114 -108 CURVE",
"-114 -108 LINE"
);
},
{
closed = 1;
nodes = (
"25 -25 OFFCURVE",
"15 -9 OFFCURVE",
"15 9 CURVE SMOOTH",
"15 36 OFFCURVE",
"34 63 OFFCURVE",
"73 90 CURVE SMOOTH",
"103 111 OFFCURVE",
"136 127 OFFCURVE",
"172 139 CURVE",
"175 132 OFFCURVE",
"178 126 OFFCURVE",
"182 120 CURVE",
"147 90 OFFCURVE",
"117 67 OFFCURVE",
"90 50 CURVE",
"89 49 OFFCURVE",
"88 48 OFFCURVE",
"89 46 CURVE",
"89 44 OFFCURVE",
"90 43 OFFCURVE",
"92 43 CURVE SMOOTH",
"99 43 OFFCURVE",
"128 65 OFFCURVE",
"179 108 CURVE SMOOTH",
"186 114 LINE",
"191 107 OFFCURVE",
"197 100 OFFCURVE",
"203 94 CURVE",
"134 27 OFFCURVE",
"81 -17 OFFCURVE",
"45 -40 CURVE",
"45 -40 LINE"
);
},
{
closed = 1;
nodes = (
"182 142 LINE",
"193 146 OFFCURVE",
"205 149 OFFCURVE",
"217 152 CURVE",
"208 143 OFFCURVE",
"199 135 OFFCURVE",
"190 127 CURVE",
"190 127 LINE"
);
},
{
closed = 1;
nodes = (
"204 106 OFFCURVE",
"199 113 OFFCURVE",
"194 120 CURVE",
"232 156 LINE",
"276 164 LINE",
"247 136 OFFCURVE",
"225 115 OFFCURVE",
"209 100 CURVE",
"209 100 LINE"
);
},
{
closed = 1;
nodes = (
"167 189 OFFCURVE",
"163 214 OFFCURVE",
"163 243 CURVE SMOOTH",
"163 285 OFFCURVE",
"170 325 OFFCURVE",
"184 363 CURVE SMOOTH",
"205 420 OFFCURVE",
"231 463 OFFCURVE",
"263 494 CURVE SMOOTH",
"292 521 OFFCURVE",
"320 534 OFFCURVE",
"348 534 CURVE SMOOTH",
"385 534 OFFCURVE",
"413 505 OFFCURVE",
"413 460 CURVE SMOOTH",
"413 436 OFFCURVE",
"406 410 OFFCURVE",
"392 381 CURVE SMOOTH",
"360 314 OFFCURVE",
"310 246 OFFCURVE",
"242 176 CURVE",
"215 173 OFFCURVE",
"193 169 OFFCURVE",
"174 166 CURVE",
"174 166 LINE"
);
},
{
closed = 1;
nodes = (
"378 237 OFFCURVE",
"416 273 OFFCURVE",
"435 294 CURVE SMOOTH",
"471 332 OFFCURVE",
"503 373 OFFCURVE",
"531 418 CURVE",
"498 309 LINE SMOOTH",
"484 262 OFFCURVE",
"472 222 OFFCURVE",
"464 190 CURVE",
"453 189 OFFCURVE",
"429 189 OFFCURVE",
"394 188 CURVE SMOOTH",
"364 188 OFFCURVE",
"340 187 OFFCURVE",
"323 184 CURVE",
"323 184 LINE"
);
}
);
userData = {
assembly = "PUSHW[ ]	/* 4 values pushed */\012148 8 69 4 \012CALL[ ]	/* CallFunction */\012PUSHW[ ]	/* 4 values pushed */\01215 6 75 4 \012CALL[ ]	/* CallFunction */\012PUSHW[ ]	/* 4 values pushed */\01284 6 6 4 \012CALL[ ]	/* CallFunction */\012PUSHW[ ]	/* 4 values pushed */\012118 8 25 4 \012CALL[ ]	/* CallFunction */\012PUSHW[ ]	/* 4 values pushed */\012102 5 94 4 \012CALL[ ]	/* CallFunction */\012NPUSHW[ ]	/* 33 values pushed */\0129 6 25 6 41 6 57 6 73 6 89 6 105 6 121 6 137 6 153 6 169 6 185 6 201 6 217 6 233 6 249 6 16 \012DELTAP1[ ]	/* DeltaExceptionP1 */\012NPUSHW[ ]	/* 33 values pushed */\0129 6 25 6 41 6 57 6 73 6 89 6 105 6 121 6 137 6 153 6 169 6 185 6 201 6 217 6 233 6 249 6 16 \012DELTAP2[ ]	/* DeltaExceptionP2 */\012NPUSHW[ ]	/* 33 values pushed */\0129 6 25 6 41 6 57 6 73 6 89 6 105 6 121 6 137 6 153 6 169 6 185 6 201 6 217 6 233 6 249 6 16 \012DELTAP3[ ]	/* DeltaExceptionP3 */\012NPUSHW[ ]	/* 33 values pushed */\0126 15 22 15 38 15 54 15 70 15 86 15 102 15 118 15 134 15 150 15 166 15 182 15 198 15 214 15 230 15 246 15 16 \012DELTAP1[ ]	/* DeltaExceptionP1 */\012NPUSHW[ ]	/* 33 values pushed */\0126 15 22 15 38 15 54 15 70 15 86 15 102 15 118 15 134 15 150 15 166 15 182 15 198 15 214 15 230 15 246 15 16 \012DELTAP2[ ]	/* DeltaExceptionP2 */\012NPUSHW[ ]	/* 33 values pushed */\0126 15 22 15 38 15 54 15 70 15 86 15 102 15 118 15 134 15 150 15 166 15 182 15 198 15 214 15 230 15 246 15 16 \012DELTAP3[ ]	/* DeltaExceptionP3 */\012NPUSHW[ ]	/* 5 values pushed */\012106 25 122 25 2 \012DELTAP2[ ]	/* DeltaExceptionP2 */\012NPUSHW[ ]	/* 33 values pushed */\0129 25 25 25 41 25 57 25 73 25 89 25 105 25 121 25 137 25 153 25 169 25 185 25 201 25 217 25 233 25 249 25 16 \012DELTAP1[ ]	/* DeltaExceptionP1 */\012NPUSHW[ ]	/* 13 values pushed */\0129 25 25 25 41 25 57 25 73 25 89 25 6 \012DELTAP2[ ]	/* DeltaExceptionP2 */\012PUSHW[ ]	/* 3 values pushed */\01245 69 102 \012SRP1[ ]	/* SetRefPoint1 */\012SRP2[ ]	/* SetRefPoint2 */\012IP[ ]	/* InterpolatePts */\012PUSHW[ ]	/* 3 values pushed */\01267 69 102 \012SRP1[ ]	/* SetRefPoint1 */\012SRP2[ ]	/* SetRefPoint2 */\012IP[ ]	/* InterpolatePts */\012PUSHW[ ]	/* 3 values pushed */\01288 69 102 \012SRP1[ ]	/* SetRefPoint1 */\012SRP2[ ]	/* SetRefPoint2 */\012IP[ ]	/* InterpolatePts */\012NPUSHW[ ]	/* 5 values pushed */\012106 94 122 94 2 \012DELTAP2[ ]	/* DeltaExceptionP2 */\012NPUSHW[ ]	/* 33 values pushed */\0129 94 25 94 41 94 57 94 73 94 89 94 105 94 121 94 137 94 153 94 169 94 185 94 201 94 217 94 233 94 249 94 16 \012DELTAP1[ ]	/* DeltaExceptionP1 */\012NPUSHW[ ]	/* 13 values pushed */\0129 94 25 94 41 94 57 94 73 94 89 94 6 \012DELTAP2[ ]	/* DeltaExceptionP2 */\012PUSHW[ ]	/* 3 values pushed */\012108 69 102 \012SRP1[ ]	/* SetRefPoint1 */\012SRP2[ ]	/* SetRefPoint2 */\012IP[ ]	/* InterpolatePts */\012PUSHW[ ]	/* 3 values pushed */\012132 69 102 \012SRP1[ ]	/* SetRefPoint1 */\012SRP2[ ]	/* SetRefPoint2 */\012IP[ ]	/* InterpolatePts */\012PUSHW[ ]	/* 3 values pushed */\012136 69 102 \012SRP1[ ]	/* SetRefPoint1 */\012SRP2[ ]	/* SetRefPoint2 */\012IP[ ]	/* InterpolatePts */\012NPUSHW[ ]	/* 33 values pushed */\0126 148 22 148 38 148 54 148 70 148 86 148 102 148 118 148 134 148 150 148 166 148 182 148 198 148 214 148 230 148 246 148 16 \012DELTAP1[ ]	/* DeltaExceptionP1 */\012NPUSHW[ ]	/* 13 values pushed */\0126 148 22 148 38 148 54 148 70 148 86 148 6 \012DELTAP2[ ]	/* DeltaExceptionP2 */\012NPUSHW[ ]	/* 5 values pushed */\012101 148 117 148 2 \012DELTAP2[ ]	/* DeltaExceptionP2 */\012PUSHW[ ]	/* 3 values pushed */\012161 69 102 \012SRP1[ ]	/* SetRefPoint1 */\012SRP2[ ]	/* SetRefPoint2 */\012IP[ ]	/* InterpolatePts */\012PUSHW[ ]	/* 3 values pushed */\012165 69 102 \012SRP1[ ]	/* SetRefPoint1 */\012SRP2[ ]	/* SetRefPoint2 */\012IP[ ]	/* InterpolatePts */\012PUSHW[ ]	/* 3 values pushed */\012171 69 102 \012SRP1[ ]	/* SetRefPoint1 */\012SRP2[ ]	/* SetRefPoint2 */\012IP[ ]	/* InterpolatePts */\012PUSHW[ ]	/* 1 value pushed */\012102 \012SRP0[ ]	/* SetRefPoint0 */\012PUSHW[ ]	/* 1 value pushed */\012180 \012MDRP[11100]	/* MoveDirectRelPt */\012SVTCA[0]	/* SetFreedomAndProjectionVectorToAxis */\012PUSHW[ ]	/* 1 value pushed */\012100 \012MDAP[1]	/* MoveDirectAbsPt */\012PUSHW[ ]	/* 4 values pushed */\012138 4 29 4 \012CALL[ ]	/* CallFunction */\012PUSHW[ ]	/* 1 value pushed */\01229 \012SRP0[ ]	/* SetRefPoint0 */\012PUSHW[ ]	/* 1 value pushed */\0120 \012MDRP[10000]	/* MoveDirectRelPt */\012PUSHW[ ]	/* 1 value pushed */\0120 \012MDAP[1]	/* MoveDirectAbsPt */\012PUSHW[ ]	/* 3 values pushed */\01288 29 138 \012SRP1[ ]	/* SetRefPoint1 */\012SRP2[ ]	/* SetRefPoint2 */\012IP[ ]	/* InterpolatePts */\012PUSHW[ ]	/* 1 value pushed */\012138 \012SRP0[ ]	/* SetRefPoint0 */\012PUSHW[ ]	/* 1 value pushed */\012136 \012MDRP[10000]	/* MoveDirectRelPt */\012PUSHW[ ]	/* 1 value pushed */\012136 \012MDAP[1]	/* MoveDirectAbsPt */\012PUSHW[ ]	/* 1 value pushed */\012138 \012SRP0[ ]	/* SetRefPoint0 */\012PUSHW[ ]	/* 1 value pushed */\012140 \012MDRP[10000]	/* MoveDirectRelPt */\012PUSHW[ ]	/* 1 value pushed */\012140 \012MDAP[1]	/* MoveDirectAbsPt */\012IUP[0]	/* InterpolateUntPts */\012IUP[1]	/* InterpolateUntPts */";
};
width = 636;
}
);
leftKerningGroup = A;
note = A;
rightKerningGroup = A;
unicode = 0041;
},
{
glyphname = AE;
lastChange = "2021-10-05 05:06:45 +0000";
layers = (
{
anchors = (
{
name = bottom;
position = "{455, 0}";
},
{
name = top;
position = "{664, 525}";
}
);
layerId = "0CF23081-C341-41E4-8FF8-6B151438961F";
paths = (
{
closed = 1;
nodes = (
"-69 -108 OFFCURVE",
"-18 -89 OFFCURVE",
"46 -52 CURVE",
"68 -62 OFFCURVE",
"94 -68 OFFCURVE",
"123 -71 CURVE SMOOTH",
"130 -72 OFFCURVE",
"134 -71 OFFCURVE",
"134 -68 CURVE SMOOTH",
"134 -66 OFFCURVE",
"132 -65 OFFCURVE",
"127 -64 CURVE SMOOTH",
"98 -61 OFFCURVE",
"75 -55 OFFCURVE",
"56 -46 CURVE",
"88 -27 OFFCURVE",
"129 5 OFFCURVE",
"180 51 CURVE SMOOTH",
"192 62 OFFCURVE",
"203 73 OFFCURVE",
"215 83 CURVE",
"241 62 OFFCURVE",
"275 51 OFFCURVE",
"316 51 CURVE SMOOTH",
"345 51 OFFCURVE",
"366 58 OFFCURVE",
"381 73 CURVE SMOOTH",
"382 74 OFFCURVE",
"382 76 OFFCURVE",
"381 78 CURVE",
"379 80 OFFCURVE",
"377 80 OFFCURVE",
"376 78 CURVE",
"363 65 OFFCURVE",
"343 58 OFFCURVE",
"316 58 CURVE SMOOTH",
"277 58 OFFCURVE",
"246 68 OFFCURVE",
"221 89 CURVE",
"249 116 OFFCURVE",
"276 142 OFFCURVE",
"304 168 CURVE",
"373 171 OFFCURVE",
"426 173 OFFCURVE",
"461 174 CURVE",
"461 171 LINE",
"432 143 OFFCURVE",
"418 112 OFFCURVE",
"418 81 CURVE SMOOTH",
"418 42 OFFCURVE",
"439 12 OFFCURVE",
"481 -11 CURVE SMOOTH",
"514 -29 OFFCURVE",
"554 -38 OFFCURVE",
"601 -38 CURVE SMOOTH",
"620 -38 OFFCURVE",
"639 -36 OFFCURVE",
"659 -34 CURVE SMOOTH",
"722 -27 OFFCURVE",
"777 -9 OFFCURVE",
"822 19 CURVE SMOOTH",
"874 51 OFFCURVE",
"900 89 OFFCURVE",
"900 131 CURVE SMOOTH",
"900 134 OFFCURVE",
"899 136 OFFCURVE",
"898 136 CURVE SMOOTH",
"895 136 OFFCURVE",
"893 133 OFFCURVE",
"893 128 CURVE SMOOTH",
"890 94 OFFCURVE",
"865 63 OFFCURVE",
"819 35 CURVE SMOOTH",
"776 9 OFFCURVE",
"725 -8 OFFCURVE",
"668 -16 CURVE SMOOTH",
"650 -19 OFFCURVE",
"633 -20 OFFCURVE",
"618 -20 CURVE SMOOTH",
"569 -20 OFFCURVE",
"529 -9 OFFCURVE",
"500 12 CURVE SMOOTH",
"473 32 OFFCURVE",
"459 57 OFFCURVE",
"459 87 CURVE SMOOTH",
"459 116 OFFCURVE",
"472 143 OFFCURVE",
"498 168 CURVE SMOOTH",
"527 195 OFFCURVE",
"568 216 OFFCURVE",
"621 229 CURVE SMOOTH",
"678 244 OFFCURVE",
"733 251 OFFCURVE",
"784 249 CURVE SMOOTH",
"800 248 OFFCURVE",
"808 253 OFFCURVE",
"808 262 CURVE SMOOTH",
"808 270 OFFCURVE",
"802 274 OFFCURVE",
"792 274 CURVE SMOOTH",
"788 274 LINE SMOOTH",
"745 274 OFFCURVE",
"707 277 OFFCURVE",
"672 289 CURVE SMOOTH",
"635 301 OFFCURVE",
"616 318 OFFCURVE",
"616 340 CURVE SMOOTH",
"616 390 OFFCURVE",
"672 439 OFFCURVE",
"741 461 CURVE SMOOTH",
"778 472 OFFCURVE",
"810 478 OFFCURVE",
"836 478 CURVE SMOOTH",
"863 478 OFFCURVE",
"884 472 OFFCURVE",
"898 460 CURVE SMOOTH",
"909 451 OFFCURVE",
"914 438 OFFCURVE",
"914 423 CURVE SMOOTH",
"914 398 OFFCURVE",
"873 387 OFFCURVE",
"873 376 CURVE SMOOTH",
"873 373 OFFCURVE",
"877 372 OFFCURVE",
"884 373 CURVE SMOOTH",
"920 378 OFFCURVE",
"943 403 OFFCURVE",
"943 428 CURVE SMOOTH",
"943 445 OFFCURVE",
"935 460 OFFCURVE",
"918 472 CURVE SMOOTH",
"899 485 OFFCURVE",
"872 492 OFFCURVE",
"838 492 CURVE SMOOTH",
"810 492 OFFCURVE",
"778 487 OFFCURVE",
"742 478 CURVE SMOOTH",
"699 466 OFFCURVE",
"663 449 OFFCURVE",
"634 428 CURVE SMOOTH",
"597 403 OFFCURVE",
"577 376 OFFCURVE",
"577 345 CURVE SMOOTH",
"577 303 OFFCURVE",
"632 269 OFFCURVE",
"694 270 CURVE",
"639 259 OFFCURVE",
"609 252 OFFCURVE",
"604 251 CURVE SMOOTH",
"562 238 OFFCURVE",
"526 221 OFFCURVE",
"498 202 CURVE",
"520 310 OFFCURVE",
"537 388 OFFCURVE",
"549 436 CURVE SMOOTH",
"550 442 OFFCURVE",
"550 446 OFFCURVE",
"548 449 CURVE",
"562 476 OFFCURVE",
"569 497 OFFCURVE",
"569 514 CURVE SMOOTH",
"569 539 OFFCURVE",
"553 552 OFFCURVE",
"522 553 CURVE SMOOTH",
"515 553 OFFCURVE",
"512 551 OFFCURVE",
"512 548 CURVE SMOOTH",
"512 545 OFFCURVE",
"514 544 OFFCURVE",
"518 544 CURVE SMOOTH",
"534 543 OFFCURVE",
"542 536 OFFCURVE",
"542 521 CURVE SMOOTH",
"542 490 OFFCURVE",
"507 430 OFFCURVE",
"437 343 CURVE SMOOTH",
"386 280 OFFCURVE",
"339 226 OFFCURVE",
"294 182 CURVE",
"280 180 OFFCURVE",
"266 179 OFFCURVE",
"254 177 CURVE",
"262 186 LINE SMOOTH",
"339 273 OFFCURVE",
"386 338 OFFCURVE",
"405 378 CURVE SMOOTH",
"418 407 OFFCURVE",
"425 433 OFFCURVE",
"425 456 CURVE SMOOTH",
"425 509 OFFCURVE",
"392 541 OFFCURVE",
"347 541 CURVE SMOOTH",
"315 541 OFFCURVE",
"284 527 OFFCURVE",
"254 500 CURVE SMOOTH",
"219 469 OFFCURVE",
"190 423 OFFCURVE",
"169 364 CURVE SMOOTH",
"156 329 OFFCURVE",
"149 290 OFFCURVE",
"149 249 CURVE SMOOTH",
"149 217 OFFCURVE",
"153 188 OFFCURVE",
"162 163 CURVE",
"154 161 OFFCURVE",
"146 160 OFFCURVE",
"140 158 CURVE SMOOTH",
"83 141 OFFCURVE",
"39 115 OFFCURVE",
"9 78 CURVE SMOOTH",
"-7 58 OFFCURVE",
"-15 38 OFFCURVE",
"-15 19 CURVE SMOOTH",
"-15 -9 OFFCURVE",
"1 -31 OFFCURVE",
"34 -46 CURVE",
"-22 -80 OFFCURVE",
"-69 -98 OFFCURVE",
"-106 -98 CURVE SMOOTH",
"-123 -98 OFFCURVE",
"-131 -93 OFFCURVE",
"-131 -83 CURVE SMOOTH",
"-131 -78 OFFCURVE",
"-129 -71 OFFCURVE",
"-125 -62 CURVE",
"-130 -64 OFFCURVE",
"-133 -68 OFFCURVE",
"-135 -74 CURVE",
"-139 -81 OFFCURVE",
"-141 -86 OFFCURVE",
"-141 -91 CURVE SMOOTH",
"-141 -103 OFFCURVE",
"-130 -108 OFFCURVE",
"-108 -108 CURVE",
"-108 -108 LINE"
);
},
{
closed = 1;
nodes = (
"25 -25 OFFCURVE",
"15 -9 OFFCURVE",
"15 9 CURVE SMOOTH",
"15 46 OFFCURVE",
"50 83 OFFCURVE",
"119 118 CURVE SMOOTH",
"134 126 OFFCURVE",
"152 133 OFFCURVE",
"172 139 CURVE",
"175 132 OFFCURVE",
"178 126 OFFCURVE",
"182 120 CURVE",
"147 91 OFFCURVE",
"117 67 OFFCURVE",
"90 50 CURVE",
"89 49 OFFCURVE",
"88 48 OFFCURVE",
"89 46 CURVE",
"89 44 OFFCURVE",
"90 43 OFFCURVE",
"92 43 CURVE SMOOTH",
"112 43 OFFCURVE",
"144 65 OFFCURVE",
"190 109 CURVE",
"194 104 OFFCURVE",
"198 99 OFFCURVE",
"203 94 CURVE",
"160 53 LINE SMOOTH",
"113 8 OFFCURVE",
"74 -22 OFFCURVE",
"45 -40 CURVE",
"45 -40 LINE"
);
},
{
closed = 1;
nodes = (
"190 127 LINE",
"187 132 OFFCURVE",
"184 137 OFFCURVE",
"182 142 CURVE",
"193 146 OFFCURVE",
"205 149 OFFCURVE",
"218 152 CURVE",
"190 127 LINE"
);
},
{
closed = 1;
nodes = (
"209 100 LINE",
"205 105 OFFCURVE",
"201 110 OFFCURVE",
"197 116 CURVE",
"209 128 OFFCURVE",
"221 141 OFFCURVE",
"235 156 CURVE",
"248 159 OFFCURVE",
"262 162 OFFCURVE",
"276 164 CURVE",
"209 100 LINE"
);
},
{
closed = 1;
nodes = (
"166 188 OFFCURVE",
"163 214 OFFCURVE",
"163 243 CURVE SMOOTH",
"163 285 OFFCURVE",
"170 325 OFFCURVE",
"184 363 CURVE SMOOTH",
"205 420 OFFCURVE",
"231 463 OFFCURVE",
"263 494 CURVE SMOOTH",
"292 521 OFFCURVE",
"320 534 OFFCURVE",
"348 534 CURVE SMOOTH",
"385 534 OFFCURVE",
"413 505 OFFCURVE",
"413 460 CURVE SMOOTH",
"413 436 OFFCURVE",
"406 410 OFFCURVE",
"392 381 CURVE SMOOTH",
"358 310 OFFCURVE",
"309 242 OFFCURVE",
"242 175 CURVE",
"215 172 OFFCURVE",
"192 168 OFFCURVE",
"173 165 CURVE",
"173 165 LINE"
);
},
{
closed = 1;
nodes = (
"378 237 OFFCURVE",
"416 273 OFFCURVE",
"435 294 CURVE SMOOTH",
"471 332 OFFCURVE",
"503 373 OFFCURVE",
"531 418 CURVE",
"498 309 LINE SMOOTH",
"484 262 OFFCURVE",
"472 222 OFFCURVE",
"464 190 CURVE",
"453 189 OFFCURVE",
"429 189 OFFCURVE",
"394 188 CURVE SMOOTH",
"364 188 OFFCURVE",
"340 187 OFFCURVE",
"323 184 CURVE",
"323 184 LINE"
);
}
);
userData = {
assembly = "PUSHW[ ]	/* 4 values pushed */\012129 8 80 4 \012CALL[ ]	/* CallFunction */\012PUSHW[ ]	/* 4 values pushed */\01223 6 39 4 \012CALL[ ]	/* CallFunction */\012PUSHW[ ]	/* 4 values pushed */\012194 8 143 4 \012CALL[ ]	/* CallFunction */\012PUSHW[ ]	/* 4 values pushed */\01298 5 90 4 \012CALL[ ]	/* CallFunction */\012PUSHW[ ]	/* 4 values pushed */\012162 5 171 4 \012CALL[ ]	/* CallFunction */\012PUSHW[ ]	/* 3 values pushed */\0128 80 162 \012SRP1[ ]	/* SetRefPoint1 */\012SRP2[ ]	/* SetRefPoint2 */\012IP[ ]	/* InterpolatePts */\012NPUSHW[ ]	/* 33 values pushed */\0126 23 22 23 38 23 54 23 70 23 86 23 102 23 118 23 134 23 150 23 166 23 182 23 198 23 214 23 230 23 246 23 16 \012DELTAP1[ ]	/* DeltaExceptionP1 */\012NPUSHW[ ]	/* 33 values pushed */\0126 23 22 23 38 23 54 23 70 23 86 23 102 23 118 23 134 23 150 23 166 23 182 23 198 23 214 23 230 23 246 23 16 \012DELTAP2[ ]	/* DeltaExceptionP2 */\012NPUSHW[ ]	/* 33 values pushed */\0126 23 22 23 38 23 54 23 70 23 86 23 102 23 118 23 134 23 150 23 166 23 182 23 198 23 214 23 230 23 246 23 16 \012DELTAP3[ ]	/* DeltaExceptionP3 */\012PUSHW[ ]	/* 1 value pushed */\012194 \012SRP0[ ]	/* SetRefPoint0 */\012PUSHW[ ]	/* 1 value pushed */\01250 \012MDRP[10000]	/* MoveDirectRelPt */\012PUSHW[ ]	/* 1 value pushed */\01250 \012MDAP[1]	/* MoveDirectAbsPt */\012PUSHW[ ]	/* 3 values pushed */\01256 80 162 \012SRP1[ ]	/* SetRefPoint1 */\012SRP2[ ]	/* SetRefPoint2 */\012IP[ ]	/* InterpolatePts */\012PUSHW[ ]	/* 3 values pushed */\01278 80 162 \012SRP1[ ]	/* SetRefPoint1 */\012SRP2[ ]	/* SetRefPoint2 */\012IP[ ]	/* InterpolatePts */\012NPUSHW[ ]	/* 5 values pushed */\012106 90 122 90 2 \012DELTAP2[ ]	/* DeltaExceptionP2 */\012NPUSHW[ ]	/* 33 values pushed */\0129 90 25 90 41 90 57 90 73 90 89 90 105 90 121 90 137 90 153 90 169 90 185 90 201 90 217 90 233 90 249 90 16 \012DELTAP1[ ]	/* DeltaExceptionP1 */\012NPUSHW[ ]	/* 13 values pushed */\0129 90 25 90 41 90 57 90 73 90 89 90 6 \012DELTAP2[ ]	/* DeltaExceptionP2 */\012PUSHW[ ]	/* 3 values pushed */\012104 80 162 \012SRP1[ ]	/* SetRefPoint1 */\012SRP2[ ]	/* SetRefPoint2 */\012IP[ ]	/* InterpolatePts */\012PUSHW[ ]	/* 3 values pushed */\012113 80 162 \012SRP1[ ]	/* SetRefPoint1 */\012SRP2[ ]	/* SetRefPoint2 */\012IP[ ]	/* InterpolatePts */\012PUSHW[ ]	/* 3 values pushed */\012117 80 162 \012SRP1[ ]	/* SetRefPoint1 */\012SRP2[ ]	/* SetRefPoint2 */\012IP[ ]	/* InterpolatePts */\012PUSHW[ ]	/* 3 values pushed */\012125 80 162 \012SRP1[ ]	/* SetRefPoint1 */\012SRP2[ ]	/* SetRefPoint2 */\012IP[ ]	/* InterpolatePts */\012NPUSHW[ ]	/* 33 values pushed */\0126 129 22 129 38 129 54 129 70 129 86 129 102 129 118 129 134 129 150 129 166 129 182 129 198 129 214 129 230 129 246 129 16 \012DELTAP1[ ]	/* DeltaExceptionP1 */\012NPUSHW[ ]	/* 13 values pushed */\0126 129 22 129 38 129 54 129 70 129 86 129 6 \012DELTAP2[ ]	/* DeltaExceptionP2 */\012NPUSHW[ ]	/* 5 values pushed */\012101 129 117 129 2 \012DELTAP2[ ]	/* DeltaExceptionP2 */\012NPUSHW[ ]	/* 5 values pushed */\012106 143 122 143 2 \012DELTAP2[ ]	/* DeltaExceptionP2 */\012NPUSHW[ ]	/* 33 values pushed */\0129 143 25 143 41 143 57 143 73 143 89 143 105 143 121 143 137 143 153 143 169 143 185 143 201 143 217 143 233 143 249 143 16 \012DELTAP1[ ]	/* DeltaExceptionP1 */\012NPUSHW[ ]	/* 13 values pushed */\0129 143 25 143 41 143 57 143 73 143 89 143 6 \012DELTAP2[ ]	/* DeltaExceptionP2 */\012PUSHW[ ]	/* 3 values pushed */\012149 80 162 \012SRP1[ ]	/* SetRefPoint1 */\012SRP2[ ]	/* SetRefPoint2 */\012IP[ ]	/* InterpolatePts */\012NPUSHW[ ]	/* 5 values pushed */\012106 171 122 171 2 \012DELTAP2[ ]	/* DeltaExceptionP2 */\012NPUSHW[ ]	/* 33 values pushed */\0129 171 25 171 41 171 57 171 73 171 89 171 105 171 121 171 137 171 153 171 169 171 185 171 201 171 217 171 233 171 249 171 16 \012DELTAP1[ ]	/* DeltaExceptionP1 */\012NPUSHW[ ]	/* 13 values pushed */\0129 171 25 171 41 171 57 171 73 171 89 171 6 \012DELTAP2[ ]	/* DeltaExceptionP2 */\012PUSHW[ ]	/* 1 value pushed */\012162 \012SRP0[ ]	/* SetRefPoint0 */\012PUSHW[ ]	/* 1 value pushed */\012209 \012MDRP[11100]	/* MoveDirectRelPt */\012SVTCA[0]	/* SetFreedomAndProjectionVectorToAxis */\012PUSHW[ ]	/* 1 value pushed */\01296 \012MDAP[1]	/* MoveDirectAbsPt */\012IUP[0]	/* InterpolateUntPts */\012IUP[1]	/* InterpolateUntPts */";
};
width = 909;
}
);
note = AE;
unicode = 00C6;
},
{
glyphname = B;
lastChange = "2021-10-05 05:06:45 +0000";
layers = (
{
layerId = "0CF23081-C341-41E4-8FF8-6B151438961F";
paths = (
{
closed = 1;
nodes = (
"-9 -102 OFFCURVE",
"-7 -102 OFFCURVE",
"-6 -100 CURVE SMOOTH",
"45 -9 LINE",
"80 -38 OFFCURVE",
"127 -53 OFFCURVE",
"186 -53 CURVE SMOOTH",
"257 -53 OFFCURVE",
"323 -41 OFFCURVE",
"382 -18 CURVE SMOOTH",
"439 5 OFFCURVE",
"481 33 OFFCURVE",
"509 68 CURVE SMOOTH",
"534 97 OFFCURVE",
"546 126 OFFCURVE",
"546 153 CURVE SMOOTH",
"546 185 OFFCURVE",
"529 212 OFFCURVE",
"496 233 CURVE SMOOTH",
"465 252 OFFCURVE",
"426 262 OFFCURVE",
"380 262 CURVE SMOOTH",
"370 262 OFFCURVE",
"360 262 OFFCURVE",
"350 261 CURVE SMOOTH",
"343 261 LINE",
"400 280 OFFCURVE",
"448 306 OFFCURVE",
"486 339 CURVE SMOOTH",
"519 368 OFFCURVE",
"536 394 OFFCURVE",
"536 419 CURVE SMOOTH",
"536 438 OFFCURVE",
"526 453 OFFCURVE",
"506 463 CURVE SMOOTH",
"488 473 OFFCURVE",
"465 477 OFFCURVE",
"436 477 CURVE SMOOTH",
"409 477 OFFCURVE",
"377 474 OFFCURVE",
"339 469 CURVE SMOOTH",
"259 456 LINE",
"204 446 LINE",
"191 486 OFFCURVE",
"163 506 OFFCURVE",
"122 506 CURVE SMOOTH",
"85 506 OFFCURVE",
"50 485 OFFCURVE",
"41 456 CURVE SMOOTH",
"39 451 OFFCURVE",
"38 447 OFFCURVE",
"38 443 CURVE SMOOTH",
"38 432 OFFCURVE",
"43 422 OFFCURVE",
"54 415 CURVE SMOOTH",
"66 408 OFFCURVE",
"82 404 OFFCURVE",
"103 404 CURVE SMOOTH",
"123 404 OFFCURVE",
"154 410 OFFCURVE",
"196 419 CURVE",
"201 366 OFFCURVE",
"175 277 OFFCURVE",
"116 152 CURVE",
"48 120 OFFCURVE",
"14 85 OFFCURVE",
"14 48 CURVE SMOOTH",
"14 29 OFFCURVE",
"22 12 OFFCURVE",
"38 -3 CURVE",
"24 -30 OFFCURVE",
"7 -61 OFFCURVE",
"-13 -96 CURVE",
"-14 -99 OFFCURVE",
"-13 -100 OFFCURVE",
"-11 -101 CURVE",
"-11 -101 LINE"
);
},
{
closed = 1;
nodes = (
"48 28 OFFCURVE",
"46 36 OFFCURVE",
"46 44 CURVE SMOOTH",
"46 73 OFFCURVE",
"65 99 OFFCURVE",
"103 123 CURVE",
"88 92 OFFCURVE",
"71 58 OFFCURVE",
"51 21 CURVE",
"51 21 LINE"
);
},
{
closed = 1;
nodes = (
"116 -39 OFFCURVE",
"77 -22 OFFCURVE",
"56 11 CURVE",
"83 61 OFFCURVE",
"105 102 OFFCURVE",
"121 134 CURVE",
"134 141 OFFCURVE",
"146 145 OFFCURVE",
"159 148 CURVE",
"154 131 OFFCURVE",
"152 115 OFFCURVE",
"152 102 CURVE SMOOTH",
"152 59 OFFCURVE",
"176 32 OFFCURVE",
"219 35 CURVE",
"222 36 OFFCURVE",
"224 37 OFFCURVE",
"224 39 CURVE SMOOTH",
"224 44 OFFCURVE",
"221 45 OFFCURVE",
"216 44 CURVE SMOOTH",
"209 43 LINE SMOOTH",
"197 43 OFFCURVE",
"188 49 OFFCURVE",
"181 61 CURVE SMOOTH",
"175 70 OFFCURVE",
"172 82 OFFCURVE",
"172 96 CURVE SMOOTH",
"172 110 OFFCURVE",
"175 130 OFFCURVE",
"184 154 CURVE",
"204 157 OFFCURVE",
"225 158 OFFCURVE",
"248 158 CURVE SMOOTH",
"307 158 OFFCURVE",
"349 150 OFFCURVE",
"375 133 CURVE",
"378 132 OFFCURVE",
"382 131 OFFCURVE",
"385 131 CURVE SMOOTH",
"389 131 OFFCURVE",
"390 133 OFFCURVE",
"388 137 CURVE SMOOTH",
"372 163 OFFCURVE",
"327 176 OFFCURVE",
"254 176 CURVE SMOOTH",
"233 176 OFFCURVE",
"212 174 OFFCURVE",
"191 171 CURVE",
"208 212 OFFCURVE",
"234 260 OFFCURVE",
"269 314 CURVE SMOOTH",
"299 361 OFFCURVE",
"321 391 OFFCURVE",
"334 404 CURVE SMOOTH",
"337 407 OFFCURVE",
"338 409 OFFCURVE",
"338 411 CURVE SMOOTH",
"338 416 OFFCURVE",
"333 418 OFFCURVE",
"322 418 CURVE SMOOTH",
"308 418 OFFCURVE",
"298 413 OFFCURVE",
"291 404 CURVE SMOOTH",
"229 317 OFFCURVE",
"187 238 OFFCURVE",
"164 167 CURVE",
"153 165 OFFCURVE",
"143 162 OFFCURVE",
"134 159 CURVE",
"173 238 OFFCURVE",
"198 303 OFFCURVE",
"207 354 CURVE SMOOTH",
"210 371 OFFCURVE",
"211 386 OFFCURVE",
"211 400 CURVE SMOOTH",
"211 408 OFFCURVE",
"211 416 OFFCURVE",
"210 423 CURVE",
"314 448 LINE SMOOTH",
"355 457 OFFCURVE",
"391 461 OFFCURVE",
"420 461 CURVE SMOOTH",
"473 461 OFFCURVE",
"499 448 OFFCURVE",
"499 423 CURVE SMOOTH",
"499 403 OFFCURVE",
"484 378 OFFCURVE",
"454 349 CURVE SMOOTH",
"417 312 OFFCURVE",
"376 286 OFFCURVE",
"330 271 CURVE",
"327 272 OFFCURVE",
"323 273 OFFCURVE",
"319 273 CURVE SMOOTH",
"316 273 OFFCURVE",
"312 273 OFFCURVE",
"308 272 CURVE",
"291 271 OFFCURVE",
"277 253 OFFCURVE",
"277 242 CURVE SMOOTH",
"277 237 OFFCURVE",
"279 236 OFFCURVE",
"284 237 CURVE SMOOTH",
"307 243 OFFCURVE",
"331 246 OFFCURVE",
"356 246 CURVE SMOOTH",
"398 246 OFFCURVE",
"434 238 OFFCURVE",
"464 223 CURVE SMOOTH",
"496 206 OFFCURVE",
"512 183 OFFCURVE",
"512 155 CURVE SMOOTH",
"512 132 OFFCURVE",
"501 107 OFFCURVE",
"478 80 CURVE SMOOTH",
"451 47 OFFCURVE",
"412 19 OFFCURVE",
"361 -3 CURVE SMOOTH",
"304 -27 OFFCURVE",
"242 -39 OFFCURVE",
"175 -39 CURVE",
"175 -39 LINE"
);
},
{
closed = 1;
nodes = (
"75 432 OFFCURVE",
"59 438 OFFCURVE",
"59 453 CURVE SMOOTH",
"59 456 OFFCURVE",
"60 459 OFFCURVE",
"62 462 CURVE",
"73 487 OFFCURVE",
"93 499 OFFCURVE",
"121 499 CURVE SMOOTH",
"156 499 OFFCURVE",
"179 481 OFFCURVE",
"191 444 CURVE",
"154 438 OFFCURVE",
"127 435 OFFCURVE",
"108 434 CURVE",
"108 434 LINE"
);
}
);
userData = {
assembly = "PUSHW[ ]	/* 4 values pushed */\01212 8 113 4 \012CALL[ ]	/* CallFunction */\012PUSHW[ ]	/* 4 values pushed */\01244 7 57 4 \012CALL[ ]	/* CallFunction */\012PUSHW[ ]	/* 4 values pushed */\012139 8 88 4 \012CALL[ ]	/* CallFunction */\012NPUSHW[ ]	/* 33 values pushed */\0126 12 22 12 38 12 54 12 70 12 86 12 102 12 118 12 134 12 150 12 166 12 182 12 198 12 214 12 230 12 246 12 16 \012DELTAP1[ ]	/* DeltaExceptionP1 */\012NPUSHW[ ]	/* 13 values pushed */\0126 12 22 12 38 12 54 12 70 12 86 12 6 \012DELTAP2[ ]	/* DeltaExceptionP2 */\012NPUSHW[ ]	/* 5 values pushed */\012101 12 117 12 2 \012DELTAP2[ ]	/* DeltaExceptionP2 */\012PUSHW[ ]	/* 3 values pushed */\012123 113 12 \012SRP1[ ]	/* SetRefPoint1 */\012SRP2[ ]	/* SetRefPoint2 */\012IP[ ]	/* InterpolatePts */\012PUSHW[ ]	/* 1 value pushed */\012123 \012MDAP[1]	/* MoveDirectAbsPt */\012PUSHW[ ]	/* 2 values pushed */\0126 7 \012MIRP[10100]	/* MoveIndirectRelPt */\012NPUSHW[ ]	/* 5 values pushed */\012106 88 122 88 2 \012DELTAP2[ ]	/* DeltaExceptionP2 */\012NPUSHW[ ]	/* 33 values pushed */\0129 88 25 88 41 88 57 88 73 88 89 88 105 88 121 88 137 88 153 88 169 88 185 88 201 88 217 88 233 88 249 88 16 \012DELTAP1[ ]	/* DeltaExceptionP1 */\012NPUSHW[ ]	/* 13 values pushed */\0129 88 25 88 41 88 57 88 73 88 89 88 6 \012DELTAP2[ ]	/* DeltaExceptionP2 */\012PUSHW[ ]	/* 3 values pushed */\01271 88 139 \012SRP1[ ]	/* SetRefPoint1 */\012SRP2[ ]	/* SetRefPoint2 */\012IP[ ]	/* InterpolatePts */\012PUSHW[ ]	/* 1 value pushed */\01271 \012MDAP[1]	/* MoveDirectAbsPt */\012NPUSHW[ ]	/* 5 values pushed */\012106 71 122 71 2 \012DELTAP2[ ]	/* DeltaExceptionP2 */\012NPUSHW[ ]	/* 33 values pushed */\0129 71 25 71 41 71 57 71 73 71 89 71 105 71 121 71 137 71 153 71 169 71 185 71 201 71 217 71 233 71 249 71 16 \012DELTAP1[ ]	/* DeltaExceptionP1 */\012NPUSHW[ ]	/* 13 values pushed */\0129 71 25 71 41 71 57 71 73 71 89 71 6 \012DELTAP2[ ]	/* DeltaExceptionP2 */\012PUSHW[ ]	/* 2 values pushed */\012151 8 \012MIRP[10100]	/* MoveIndirectRelPt */\012PUSHW[ ]	/* 3 values pushed */\01210 113 151 \012SRP1[ ]	/* SetRefPoint1 */\012SRP2[ ]	/* SetRefPoint2 */\012IP[ ]	/* InterpolatePts */\012PUSHW[ ]	/* 3 values pushed */\01214 123 6 \012SRP1[ ]	/* SetRefPoint1 */\012SRP2[ ]	/* SetRefPoint2 */\012IP[ ]	/* InterpolatePts */\012PUSHW[ ]	/* 3 values pushed */\01216 113 151 \012SRP1[ ]	/* SetRefPoint1 */\012SRP2[ ]	/* SetRefPoint2 */\012IP[ ]	/* InterpolatePts */\012PUSHW[ ]	/* 3 values pushed */\01230 113 151 \012SRP1[ ]	/* SetRefPoint1 */\012SRP2[ ]	/* SetRefPoint2 */\012IP[ ]	/* InterpolatePts */\012NPUSHW[ ]	/* 33 values pushed */\0126 44 22 44 38 44 54 44 70 44 86 44 102 44 118 44 134 44 150 44 166 44 182 44 198 44 214 44 230 44 246 44 16 \012DELTAP1[ ]	/* DeltaExceptionP1 */\012NPUSHW[ ]	/* 33 values pushed */\0126 44 22 44 38 44 54 44 70 44 86 44 102 44 118 44 134 44 150 44 166 44 182 44 198 44 214 44 230 44 246 44 16 \012DELTAP2[ ]	/* DeltaExceptionP2 */\012NPUSHW[ ]	/* 33 values pushed */\0126 44 22 44 38 44 54 44 70 44 86 44 102 44 118 44 134 44 150 44 166 44 182 44 198 44 214 44 230 44 246 44 16 \012DELTAP3[ ]	/* DeltaExceptionP3 */\012PUSHW[ ]	/* 3 values pushed */\01259 57 44 \012SRP1[ ]	/* SetRefPoint1 */\012SRP2[ ]	/* SetRefPoint2 */\012IP[ ]	/* InterpolatePts */\012PUSHW[ ]	/* 3 values pushed */\012145 113 151 \012SRP1[ ]	/* SetRefPoint1 */\012SRP2[ ]	/* SetRefPoint2 */\012IP[ ]	/* InterpolatePts */\012PUSHW[ ]	/* 1 value pushed */\012154 \012MDRP[11100]	/* MoveDirectRelPt */\012SVTCA[0]	/* SetFreedomAndProjectionVectorToAxis */\012PUSHW[ ]	/* 4 values pushed */\012135 2 90 4 \012CALL[ ]	/* CallFunction */\012PUSHW[ ]	/* 4 values pushed */\01265 1 102 4 \012CALL[ ]	/* CallFunction */\012PUSHW[ ]	/* 3 values pushed */\012128 119 3 \012CALL[ ]	/* CallFunction */\012PUSHW[ ]	/* 3 values pushed */\01232 54 3 \012CALL[ ]	/* CallFunction */\012PUSHW[ ]	/* 4 values pushed */\012147 2 75 4 \012CALL[ ]	/* CallFunction */\012PUSHW[ ]	/* 1 value pushed */\012119 \012SRP0[ ]	/* SetRefPoint0 */\012PUSHW[ ]	/* 2 values pushed */\0128 4 \012MIRP[10100]	/* MoveIndirectRelPt */\012PUSHW[ ]	/* 3 values pushed */\01210 54 32 \012SRP1[ ]	/* SetRefPoint1 */\012SRP2[ ]	/* SetRefPoint2 */\012IP[ ]	/* InterpolatePts */\012PUSHW[ ]	/* 3 values pushed */\01216 54 32 \012SRP1[ ]	/* SetRefPoint1 */\012SRP2[ ]	/* SetRefPoint2 */\012IP[ ]	/* InterpolatePts */\012PUSHW[ ]	/* 1 value pushed */\01232 \012SRP0[ ]	/* SetRefPoint0 */\012PUSHW[ ]	/* 1 value pushed */\01230 \012MDRP[10000]	/* MoveDirectRelPt */\012PUSHW[ ]	/* 1 value pushed */\01230 \012MDAP[1]	/* MoveDirectAbsPt */\012PUSHW[ ]	/* 1 value pushed */\01232 \012SRP0[ ]	/* SetRefPoint0 */\012PUSHW[ ]	/* 2 values pushed */\01240 3 \012MIRP[10100]	/* MoveIndirectRelPt */\012PUSHW[ ]	/* 1 value pushed */\01242 \012MDRP[10000]	/* MoveDirectRelPt */\012PUSHW[ ]	/* 1 value pushed */\01242 \012MDAP[1]	/* MoveDirectAbsPt */\012PUSHW[ ]	/* 3 values pushed */\01259 54 32 \012SRP1[ ]	/* SetRefPoint1 */\012SRP2[ ]	/* SetRefPoint2 */\012IP[ ]	/* InterpolatePts */\012PUSHW[ ]	/* 1 value pushed */\012147 \012SRP0[ ]	/* SetRefPoint0 */\012PUSHW[ ]	/* 1 value pushed */\012145 \012MDRP[10000]	/* MoveDirectRelPt */\012PUSHW[ ]	/* 1 value pushed */\012145 \012MDAP[1]	/* MoveDirectAbsPt */\012IUP[0]	/* InterpolateUntPts */\012IUP[1]	/* InterpolateUntPts */";
};
width = 591;
}
);
leftKerningGroup = H;
note = B;
rightKerningGroup = B;
unicode = 0042;
},
{
glyphname = C;
lastChange = "2021-10-05 05:06:45 +0000";
layers = (
{
anchors = (
{
name = bottom;
position = "{256, -28}";
},
{
name = top;
position = "{509, 485}";
}
);
layerId = "0CF23081-C341-41E4-8FF8-6B151438961F";
paths = (
{
closed = 1;
nodes = (
"256 -32 OFFCURVE",
"277 -31 OFFCURVE",
"298 -28 CURVE SMOOTH",
"336 -23 OFFCURVE",
"379 -13 OFFCURVE",
"428 4 CURVE SMOOTH",
"487 25 OFFCURVE",
"530 47 OFFCURVE",
"558 71 CURVE",
"560 74 OFFCURVE",
"562 77 OFFCURVE",
"563 80 CURVE",
"563 84 OFFCURVE",
"562 86 OFFCURVE",
"559 86 CURVE SMOOTH",
"558 86 OFFCURVE",
"556 85 OFFCURVE",
"553 82 CURVE SMOOTH",
"520 51 OFFCURVE",
"475 29 OFFCURVE",
"418 14 CURVE SMOOTH",
"387 7 OFFCURVE",
"346 1 OFFCURVE",
"296 -4 CURVE SMOOTH",
"278 -6 OFFCURVE",
"261 -7 OFFCURVE",
"244 -7 CURVE SMOOTH",
"109 -7 OFFCURVE",
"23 47 OFFCURVE",
"23 132 CURVE SMOOTH",
"23 163 OFFCURVE",
"33 196 OFFCURVE",
"54 231 CURVE",
"79 222 OFFCURVE",
"106 217 OFFCURVE",
"136 217 CURVE SMOOTH",
"177 217 OFFCURVE",
"212 227 OFFCURVE",
"220 243 CURVE",
"222 245 OFFCURVE",
"220 249 OFFCURVE",
"216 249 CURVE SMOOTH",
"215 249 OFFCURVE",
"214 248 OFFCURVE",
"214 247 CURVE",
"207 233 OFFCURVE",
"184 226 OFFCURVE",
"147 226 CURVE SMOOTH",
"116 226 OFFCURVE",
"88 232 OFFCURVE",
"61 243 CURVE",
"68 254 OFFCURVE",
"75 264 OFFCURVE",
"84 274 CURVE",
"131 336 OFFCURVE",
"196 385 OFFCURVE",
"278 421 CURVE",
"313 408 OFFCURVE",
"346 389 OFFCURVE",
"379 366 CURVE SMOOTH",
"395 355 OFFCURVE",
"411 340 OFFCURVE",
"428 322 CURVE SMOOTH",
"452 295 OFFCURVE",
"464 272 OFFCURVE",
"464 253 CURVE SMOOTH",
"464 246 OFFCURVE",
"462 240 OFFCURVE",
"459 234 CURVE",
"455 231 OFFCURVE",
"454 229 OFFCURVE",
"454 226 CURVE SMOOTH",
"454 225 OFFCURVE",
"455 224 OFFCURVE",
"456 224 CURVE SMOOTH",
"458 224 OFFCURVE",
"461 225 OFFCURVE",
"464 226 CURVE",
"465 227 LINE",
"544 264 OFFCURVE",
"596 308 OFFCURVE",
"623 357 CURVE SMOOTH",
"632 373 OFFCURVE",
"636 390 OFFCURVE",
"636 407 CURVE SMOOTH",
"636 432 OFFCURVE",
"626 453 OFFCURVE",
"607 469 CURVE SMOOTH",
"584 488 OFFCURVE",
"550 498 OFFCURVE",
"503 498 CURVE SMOOTH",
"418 498 OFFCURVE",
"335 479 OFFCURVE",
"252 440 CURVE",
"215 452 OFFCURVE",
"179 458 OFFCURVE",
"145 458 CURVE SMOOTH",
"100 458 OFFCURVE",
"61 447 OFFCURVE",
"29 423 CURVE SMOOTH",
"-3 400 OFFCURVE",
"-19 369 OFFCURVE",
"-19 332 CURVE SMOOTH",
"-19 293 OFFCURVE",
"-2 264 OFFCURVE",
"31 244 CURVE",
"13 208 OFFCURVE",
"4 174 OFFCURVE",
"4 142 CURVE SMOOTH",
"4 42 OFFCURVE",
"91 -32 OFFCURVE",
"237 -32 CURVE",
"237 -32 LINE"
);
},
{
closed = 1;
nodes = (
"6 275 OFFCURVE",
"-9 302 OFFCURVE",
"-9 335 CURVE SMOOTH",
"-9 367 OFFCURVE",
"6 394 OFFCURVE",
"36 414 CURVE SMOOTH",
"68 435 OFFCURVE",
"106 446 OFFCURVE",
"149 446 CURVE SMOOTH",
"178 446 OFFCURVE",
"208 442 OFFCURVE",
"238 434 CURVE",
"165 397 OFFCURVE",
"108 352 OFFCURVE",
"65 298 CURVE SMOOTH",
"54 284 OFFCURVE",
"45 270 OFFCURVE",
"37 256 CURVE",
"37 256 LINE"
);
},
{
closed = 1;
nodes = (
"476 247 OFFCURVE",
"476 251 OFFCURVE",
"476 254 CURVE SMOOTH",
"476 272 OFFCURVE",
"465 294 OFFCURVE",
"442 320 CURVE SMOOTH",
"425 339 OFFCURVE",
"405 357 OFFCURVE",
"384 372 CURVE SMOOTH",
"353 394 OFFCURVE",
"322 412 OFFCURVE",
"289 426 CURVE",
"356 453 OFFCURVE",
"420 467 OFFCURVE",
"481 467 CURVE SMOOTH",
"520 467 OFFCURVE",
"551 461 OFFCURVE",
"574 449 CURVE SMOOTH",
"598 436 OFFCURVE",
"610 417 OFFCURVE",
"610 393 CURVE SMOOTH",
"610 380 OFFCURVE",
"607 367 OFFCURVE",
"600 353 CURVE SMOOTH",
"588 327 OFFCURVE",
"568 304 OFFCURVE",
"540 283 CURVE SMOOTH",
"526 273 OFFCURVE",
"504 260 OFFCURVE",
"475 244 CURVE",
"475 244 LINE"
);
}
);
userData = {
assembly = "PUSHW[ ]	/* 4 values pushed */\012106 5 18 4 \012CALL[ ]	/* CallFunction */\012NPUSHW[ ]	/* 5 values pushed */\012106 18 122 18 2 \012DELTAP2[ ]	/* DeltaExceptionP2 */\012NPUSHW[ ]	/* 33 values pushed */\0129 18 25 18 41 18 57 18 73 18 89 18 105 18 121 18 137 18 153 18 169 18 185 18 201 18 217 18 233 18 249 18 16 \012DELTAP1[ ]	/* DeltaExceptionP1 */\012NPUSHW[ ]	/* 13 values pushed */\0129 18 25 18 41 18 57 18 73 18 89 18 6 \012DELTAP2[ ]	/* DeltaExceptionP2 */\012PUSHW[ ]	/* 1 value pushed */\012106 \012SRP0[ ]	/* SetRefPoint0 */\012PUSHW[ ]	/* 1 value pushed */\012109 \012MDRP[11100]	/* MoveDirectRelPt */\012SVTCA[0]	/* SetFreedomAndProjectionVectorToAxis */\012PUSHW[ ]	/* 4 values pushed */\01271 4 89 4 \012CALL[ ]	/* CallFunction */\012PUSHW[ ]	/* 4 values pushed */\012102 4 22 4 \012CALL[ ]	/* CallFunction */\012PUSHW[ ]	/* 4 values pushed */\01298 1 6 4 \012CALL[ ]	/* CallFunction */\012PUSHW[ ]	/* 1 value pushed */\01271 \012SRP0[ ]	/* SetRefPoint0 */\012PUSHW[ ]	/* 1 value pushed */\01273 \012MDRP[10000]	/* MoveDirectRelPt */\012PUSHW[ ]	/* 1 value pushed */\01273 \012MDAP[1]	/* MoveDirectAbsPt */\012PUSHW[ ]	/* 1 value pushed */\01289 \012SRP0[ ]	/* SetRefPoint0 */\012PUSHW[ ]	/* 1 value pushed */\01287 \012MDRP[10000]	/* MoveDirectRelPt */\012PUSHW[ ]	/* 1 value pushed */\01287 \012MDAP[1]	/* MoveDirectAbsPt */\012IUP[0]	/* InterpolateUntPts */\012IUP[1]	/* InterpolateUntPts */";
};
width = 541;
}
);
leftKerningGroup = O;
note = C;
rightKerningGroup = C;
unicode = 0043;
},
{
glyphname = D;
lastChange = "2021-10-05 05:06:45 +0000";
layers = (
{
anchors = (
{
name = bottom;
position = "{371, 0}";
},
{
name = center;
position = "{167, 238}";
},
{
name = top;
position = "{506, 475}";
}
);
layerId = "0CF23081-C341-41E4-8FF8-6B151438961F";
paths = (
{
closed = 1;
nodes = (
"458 -88 OFFCURVE",
"488 -77 OFFCURVE",
"511 -56 CURVE SMOOTH",
"532 -36 OFFCURVE",
"543 -11 OFFCURVE",
"543 19 CURVE SMOOTH",
"543 30 OFFCURVE",
"541 42 OFFCURVE",
"538 53 CURVE",
"587 76 OFFCURVE",
"631 103 OFFCURVE",
"668 135 CURVE SMOOTH",
"721 182 OFFCURVE",
"755 243 OFFCURVE",
"755 302 CURVE SMOOTH",
"755 357 OFFCURVE",
"728 400 OFFCURVE",
"673 432 CURVE SMOOTH",
"626 459 OFFCURVE",
"562 472 OFFCURVE",
"481 472 CURVE SMOOTH",
"429 472 OFFCURVE",
"371 466 OFFCURVE",
"306 455 CURVE SMOOTH",
"265 448 OFFCURVE",
"226 442 OFFCURVE",
"189 439 CURVE",
"179 484 OFFCURVE",
"153 506 OFFCURVE",
"112 506 CURVE SMOOTH",
"68 506 OFFCURVE",
"29 476 OFFCURVE",
"29 444 CURVE SMOOTH",
"29 417 OFFCURVE",
"59 403 OFFCURVE",
"118 403 CURVE SMOOTH",
"135 403 OFFCURVE",
"156 404 OFFCURVE",
"179 407 CURVE",
"183 352 OFFCURVE",
"169 283 OFFCURVE",
"138 200 CURVE",
"58 177 OFFCURVE",
"2 125 OFFCURVE",
"2 77 CURVE SMOOTH",
"2 51 OFFCURVE",
"17 30 OFFCURVE",
"48 14 CURVE",
"41 1 OFFCURVE",
"33 -13 OFFCURVE",
"24 -26 CURVE",
"23 -29 OFFCURVE",
"24 -30 OFFCURVE",
"26 -31 CURVE SMOOTH",
"28 -32 OFFCURVE",
"30 -32 OFFCURVE",
"31 -30 CURVE SMOOTH",
"40 -17 OFFCURVE",
"48 -4 OFFCURVE",
"56 9 CURVE",
"95 -8 OFFCURVE",
"148 -17 OFFCURVE",
"217 -17 CURVE SMOOTH",
"325 -17 OFFCURVE",
"428 4 OFFCURVE",
"525 47 CURVE",
"528 36 OFFCURVE",
"530 25 OFFCURVE",
"530 14 CURVE SMOOTH",
"530 -42 OFFCURVE",
"487 -81 OFFCURVE",
"415 -81 CURVE SMOOTH",
"398 -81 OFFCURVE",
"382 -77 OFFCURVE",
"367 -68 CURVE SMOOTH",
"352 -60 OFFCURVE",
"344 -51 OFFCURVE",
"341 -41 CURVE SMOOTH",
"340 -39 OFFCURVE",
"338 -38 OFFCURVE",
"336 -39 CURVE SMOOTH",
"333 -40 OFFCURVE",
"332 -41 OFFCURVE",
"333 -44 CURVE SMOOTH",
"341 -67 OFFCURVE",
"379 -89 OFFCURVE",
"419 -89 CURVE",
"419 -89 LINE"
);
},
{
closed = 1;
nodes = (
"40 42 OFFCURVE",
"31 55 OFFCURVE",
"31 71 CURVE SMOOTH",
"31 103 OFFCURVE",
"68 140 OFFCURVE",
"123 164 CURVE",
"105 121 OFFCURVE",
"83 76 OFFCURVE",
"58 31 CURVE",
"58 31 LINE"
);
},
{
closed = 1;
nodes = (
"143 3 OFFCURVE",
"97 11 OFFCURVE",
"66 26 CURVE",
"94 74 OFFCURVE",
"118 122 OFFCURVE",
"138 170 CURVE",
"148 173 OFFCURVE",
"158 176 OFFCURVE",
"168 179 CURVE",
"157 148 OFFCURVE",
"152 122 OFFCURVE",
"152 101 CURVE SMOOTH",
"152 59 OFFCURVE",
"176 32 OFFCURVE",
"219 35 CURVE",
"222 36 OFFCURVE",
"224 37 OFFCURVE",
"224 39 CURVE SMOOTH",
"224 44 OFFCURVE",
"221 45 OFFCURVE",
"216 44 CURVE SMOOTH",
"209 43 LINE SMOOTH",
"197 41 OFFCURVE",
"188 49 OFFCURVE",
"181 61 CURVE SMOOTH",
"175 70 OFFCURVE",
"172 82 OFFCURVE",
"172 96 CURVE SMOOTH",
"172 116 OFFCURVE",
"180 146 OFFCURVE",
"198 186 CURVE",
"217 189 OFFCURVE",
"238 191 OFFCURVE",
"261 191 CURVE SMOOTH",
"334 191 OFFCURVE",
"410 170 OFFCURVE",
"451 141 CURVE SMOOTH",
"479 122 OFFCURVE",
"500 99 OFFCURVE",
"513 74 CURVE",
"415 27 OFFCURVE",
"312 3 OFFCURVE",
"204 3 CURVE",
"204 3 LINE"
);
},
{
closed = 1;
nodes = (
"69 436 OFFCURVE",
"58 445 OFFCURVE",
"58 460 CURVE SMOOTH",
"58 479 OFFCURVE",
"79 494 OFFCURVE",
"114 494 CURVE SMOOTH",
"145 494 OFFCURVE",
"166 475 OFFCURVE",
"175 438 CURVE",
"138 434 OFFCURVE",
"109 433 OFFCURVE",
"90 434 CURVE",
"90 434 LINE"
);
},
{
closed = 1;
nodes = (
"512 109 OFFCURVE",
"490 133 OFFCURVE",
"459 154 CURVE SMOOTH",
"433 171 OFFCURVE",
"401 186 OFFCURVE",
"363 197 CURVE SMOOTH",
"322 208 OFFCURVE",
"281 214 OFFCURVE",
"241 214 CURVE SMOOTH",
"231 214 OFFCURVE",
"221 214 OFFCURVE",
"211 213 CURVE",
"230 251 OFFCURVE",
"253 291 OFFCURVE",
"282 333 CURVE SMOOTH",
"306 370 OFFCURVE",
"323 394 OFFCURVE",
"334 404 CURVE SMOOTH",
"337 407 OFFCURVE",
"338 409 OFFCURVE",
"338 411 CURVE SMOOTH",
"338 416 OFFCURVE",
"333 418 OFFCURVE",
"322 418 CURVE SMOOTH",
"308 418 OFFCURVE",
"298 413 OFFCURVE",
"291 404 CURVE SMOOTH",
"243 337 OFFCURVE",
"206 272 OFFCURVE",
"180 209 CURVE",
"171 208 OFFCURVE",
"161 207 OFFCURVE",
"152 204 CURVE",
"180 277 OFFCURVE",
"194 338 OFFCURVE",
"194 389 CURVE SMOOTH",
"194 396 OFFCURVE",
"193 402 OFFCURVE",
"193 408 CURVE",
"230 413 OFFCURVE",
"271 421 OFFCURVE",
"318 431 CURVE SMOOTH",
"389 447 OFFCURVE",
"448 455 OFFCURVE",
"497 455 CURVE SMOOTH",
"629 455 OFFCURVE",
"719 400 OFFCURVE",
"719 312 CURVE SMOOTH",
"719 257 OFFCURVE",
"684 195 OFFCURVE",
"631 150 CURVE SMOOTH",
"600 124 OFFCURVE",
"566 101 OFFCURVE",
"527 81 CURVE",
"527 81 LINE"
);
}
);
userData = {
assembly = "PUSHW[ ]	/* 4 values pushed */\01235 8 108 4 \012CALL[ ]	/* CallFunction */\012PUSHW[ ]	/* 4 values pushed */\01213 7 26 4 \012CALL[ ]	/* CallFunction */\012PUSHW[ ]	/* 4 values pushed */\012131 6 50 4 \012CALL[ ]	/* CallFunction */\012PUSHW[ ]	/* 4 values pushed */\01274 6 92 4 \012CALL[ ]	/* CallFunction */\012PUSHW[ ]	/* 4 values pushed */\01267 8 124 4 \012CALL[ ]	/* CallFunction */\012NPUSHW[ ]	/* 33 values pushed */\0126 13 22 13 38 13 54 13 70 13 86 13 102 13 118 13 134 13 150 13 166 13 182 13 198 13 214 13 230 13 246 13 16 \012DELTAP1[ ]	/* DeltaExceptionP1 */\012NPUSHW[ ]	/* 33 values pushed */\0126 13 22 13 38 13 54 13 70 13 86 13 102 13 118 13 134 13 150 13 166 13 182 13 198 13 214 13 230 13 246 13 16 \012DELTAP2[ ]	/* DeltaExceptionP2 */\012NPUSHW[ ]	/* 33 values pushed */\0126 13 22 13 38 13 54 13 70 13 86 13 102 13 118 13 134 13 150 13 166 13 182 13 198 13 214 13 230 13 246 13 16 \012DELTAP3[ ]	/* DeltaExceptionP3 */\012PUSHW[ ]	/* 3 values pushed */\01228 26 13 \012SRP1[ ]	/* SetRefPoint1 */\012SRP2[ ]	/* SetRefPoint2 */\012IP[ ]	/* InterpolatePts */\012PUSHW[ ]	/* 3 values pushed */\01232 108 67 \012SRP1[ ]	/* SetRefPoint1 */\012SRP2[ ]	/* SetRefPoint2 */\012IP[ ]	/* InterpolatePts */\012NPUSHW[ ]	/* 33 values pushed */\0126 35 22 35 38 35 54 35 70 35 86 35 102 35 118 35 134 35 150 35 166 35 182 35 198 35 214 35 230 35 246 35 16 \012DELTAP1[ ]	/* DeltaExceptionP1 */\012NPUSHW[ ]	/* 13 values pushed */\0126 35 22 35 38 35 54 35 70 35 86 35 6 \012DELTAP2[ ]	/* DeltaExceptionP2 */\012NPUSHW[ ]	/* 5 values pushed */\012101 35 117 35 2 \012DELTAP2[ ]	/* DeltaExceptionP2 */\012PUSHW[ ]	/* 1 value pushed */\01235 \012SRP0[ ]	/* SetRefPoint0 */\012PUSHW[ ]	/* 2 values pushed */\01244 8 \012MIRP[10100]	/* MoveIndirectRelPt */\012PUSHW[ ]	/* 1 value pushed */\01235 \012SRP0[ ]	/* SetRefPoint0 */\012PUSHW[ ]	/* 1 value pushed */\01254 \012MDRP[10000]	/* MoveDirectRelPt */\012PUSHW[ ]	/* 1 value pushed */\01254 \012MDAP[1]	/* MoveDirectAbsPt */\012NPUSHW[ ]	/* 33 values pushed */\0126 131 22 131 38 131 54 131 70 131 86 131 102 131 118 131 134 131 150 131 166 131 182 131 198 131 214 131 230 131 246 131 16 \012DELTAP1[ ]	/* DeltaExceptionP1 */\012NPUSHW[ ]	/* 33 values pushed */\0126 131 22 131 38 131 54 131 70 131 86 131 102 131 118 131 134 131 150 131 166 131 182 131 198 131 214 131 230 131 246 131 16 \012DELTAP2[ ]	/* DeltaExceptionP2 */\012NPUSHW[ ]	/* 33 values pushed */\0126 131 22 131 38 131 54 131 70 131 86 131 102 131 118 131 134 131 150 131 166 131 182 131 198 131 214 131 230 131 246 131 16 \012DELTAP3[ ]	/* DeltaExceptionP3 */\012PUSHW[ ]	/* 1 value pushed */\012131 \012SRP0[ ]	/* SetRefPoint0 */\012PUSHW[ ]	/* 1 value pushed */\01259 \012MDRP[10000]	/* MoveDirectRelPt */\012PUSHW[ ]	/* 1 value pushed */\01259 \012MDAP[1]	/* MoveDirectAbsPt */\012NPUSHW[ ]	/* 33 values pushed */\0129 92 25 92 41 92 57 92 73 92 89 92 105 92 121 92 137 92 153 92 169 92 185 92 201 92 217 92 233 92 249 92 16 \012DELTAP1[ ]	/* DeltaExceptionP1 */\012NPUSHW[ ]	/* 33 values pushed */\0129 92 25 92 41 92 57 92 73 92 89 92 105 92 121 92 137 92 153 92 169 92 185 92 201 92 217 92 233 92 249 92 16 \012DELTAP2[ ]	/* DeltaExceptionP2 */\012NPUSHW[ ]	/* 33 values pushed */\0129 92 25 92 41 92 57 92 73 92 89 92 105 92 121 92 137 92 153 92 169 92 185 92 201 92 217 92 233 92 249 92 16 \012DELTAP3[ ]	/* DeltaExceptionP3 */\012PUSHW[ ]	/* 3 values pushed */\012111 108 67 \012SRP1[ ]	/* SetRefPoint1 */\012SRP2[ ]	/* SetRefPoint2 */\012IP[ ]	/* InterpolatePts */\012NPUSHW[ ]	/* 5 values pushed */\012106 124 122 124 2 \012DELTAP2[ ]	/* DeltaExceptionP2 */\012NPUSHW[ ]	/* 33 values pushed */\0129 124 25 124 41 124 57 124 73 124 89 124 105 124 121 124 137 124 153 124 169 124 185 124 201 124 217 124 233 124 249 124 16 \012DELTAP1[ ]	/* DeltaExceptionP1 */\012NPUSHW[ ]	/* 13 values pushed */\0129 124 25 124 41 124 57 124 73 124 89 124 6 \012DELTAP2[ ]	/* DeltaExceptionP2 */\012PUSHW[ ]	/* 3 values pushed */\012133 108 67 \012SRP1[ ]	/* SetRefPoint1 */\012SRP2[ ]	/* SetRefPoint2 */\012IP[ ]	/* InterpolatePts */\012PUSHW[ ]	/* 1 value pushed */\01267 \012SRP0[ ]	/* SetRefPoint0 */\012PUSHW[ ]	/* 1 value pushed */\012148 \012MDRP[11100]	/* MoveDirectRelPt */\012SVTCA[0]	/* SetFreedomAndProjectionVectorToAxis */\012PUSHW[ ]	/* 3 values pushed */\0122 78 3 \012CALL[ ]	/* CallFunction */\012PUSHW[ ]	/* 4 values pushed */\01263 3 127 4 \012CALL[ ]	/* CallFunction */\012PUSHW[ ]	/* 3 values pushed */\01257 52 3 \012CALL[ ]	/* CallFunction */\012PUSHW[ ]	/* 4 values pushed */\012113 4 9 4 \012CALL[ ]	/* CallFunction */\012PUSHW[ ]	/* 1 value pushed */\01252 \012SRP0[ ]	/* SetRefPoint0 */\012PUSHW[ ]	/* 1 value pushed */\01250 \012MDRP[10000]	/* MoveDirectRelPt */\012PUSHW[ ]	/* 1 value pushed */\01250 \012MDAP[1]	/* MoveDirectAbsPt */\012PUSHW[ ]	/* 1 value pushed */\0122 \012SRP0[ ]	/* SetRefPoint0 */\012PUSHW[ ]	/* 2 values pushed */\01296 4 \012MIRP[10100]	/* MoveIndirectRelPt */\012PUSHW[ ]	/* 1 value pushed */\012113 \012SRP0[ ]	/* SetRefPoint0 */\012PUSHW[ ]	/* 1 value pushed */\012111 \012MDRP[10000]	/* MoveDirectRelPt */\012PUSHW[ ]	/* 1 value pushed */\012111 \012MDAP[1]	/* MoveDirectAbsPt */\012PUSHW[ ]	/* 3 values pushed */\012133 9 113 \012SRP1[ ]	/* SetRefPoint1 */\012SRP2[ ]	/* SetRefPoint2 */\012IP[ ]	/* InterpolatePts */\012IUP[0]	/* InterpolateUntPts */\012IUP[1]	/* InterpolateUntPts */";
};
width = 741;
}
);
leftKerningGroup = H;
note = D;
rightKerningGroup = O;
unicode = 0044;
},
{
glyphname = E;
lastChange = "2021-10-05 05:06:59 +0000";
layers = (
{
anchors = (
{
name = bottom;
position = "{174, -39}";
},
{
name = ogonek;
position = "{384, 6}";
},
{
name = top;
position = "{415, 485}";
},
{
name = topleft;
position = "{20, 475}";
}
);
layerId = "0CF23081-C341-41E4-8FF8-6B151438961F";
paths = (
{
closed = 1;
nodes = (
"209 -38 OFFCURVE",
"227 -37 OFFCURVE",
"246 -34 CURVE SMOOTH",
"309 -27 OFFCURVE",
"364 -9 OFFCURVE",
"409 19 CURVE SMOOTH",
"461 51 OFFCURVE",
"487 89 OFFCURVE",
"487 131 CURVE SMOOTH",
"487 134 OFFCURVE",
"486 136 OFFCURVE",
"484 136 CURVE SMOOTH",
"481 136 OFFCURVE",
"480 133 OFFCURVE",
"479 128 CURVE SMOOTH",
"476 94 OFFCURVE",
"452 63 OFFCURVE",
"406 35 CURVE SMOOTH",
"363 9 OFFCURVE",
"312 -8 OFFCURVE",
"254 -16 CURVE SMOOTH",
"237 -19 OFFCURVE",
"221 -20 OFFCURVE",
"204 -20 CURVE SMOOTH",
"155 -20 OFFCURVE",
"116 -9 OFFCURVE",
"87 12 CURVE SMOOTH",
"60 32 OFFCURVE",
"46 57 OFFCURVE",
"46 87 CURVE SMOOTH",
"46 101 OFFCURVE",
"50 115 OFFCURVE",
"57 129 CURVE",
"74 116 OFFCURVE",
"96 109 OFFCURVE",
"123 109 CURVE SMOOTH",
"142 109 OFFCURVE",
"162 112 OFFCURVE",
"181 119 CURVE SMOOTH",
"194 124 OFFCURVE",
"208 132 OFFCURVE",
"223 143 CURVE SMOOTH",
"240 157 OFFCURVE",
"249 170 OFFCURVE",
"249 183 CURVE SMOOTH",
"249 187 OFFCURVE",
"248 191 OFFCURVE",
"246 195 CURVE SMOOTH",
"245 197 OFFCURVE",
"244 198 OFFCURVE",
"243 198 CURVE",
"241 197 OFFCURVE",
"241 195 OFFCURVE",
"242 193 CURVE SMOOTH",
"243 190 OFFCURVE",
"244 187 OFFCURVE",
"244 184 CURVE SMOOTH",
"244 173 OFFCURVE",
"235 162 OFFCURVE",
"217 149 CURVE SMOOTH",
"186 128 OFFCURVE",
"164 124 OFFCURVE",
"139 124 CURVE SMOOTH",
"109 124 OFFCURVE",
"85 132 OFFCURVE",
"68 148 CURVE",
"95 185 OFFCURVE",
"142 212 OFFCURVE",
"208 229 CURVE SMOOTH",
"265 244 OFFCURVE",
"320 251 OFFCURVE",
"371 249 CURVE SMOOTH",
"387 248 OFFCURVE",
"395 253 OFFCURVE",
"395 262 CURVE SMOOTH",
"395 270 OFFCURVE",
"389 274 OFFCURVE",
"377 274 CURVE SMOOTH",
"374 274 LINE SMOOTH",
"332 274 OFFCURVE",
"294 277 OFFCURVE",
"259 289 CURVE SMOOTH",
"222 301 OFFCURVE",
"203 319 OFFCURVE",
"203 341 CURVE SMOOTH",
"203 357 OFFCURVE",
"209 374 OFFCURVE",
"221 390 CURVE",
"257 405 OFFCURVE",
"292 416 OFFCURVE",
"325 421 CURVE SMOOTH",
"340 424 OFFCURVE",
"361 425 OFFCURVE",
"388 425 CURVE SMOOTH",
"449 425 OFFCURVE",
"479 415 OFFCURVE",
"479 396 CURVE SMOOTH",
"479 389 OFFCURVE",
"476 385 OFFCURVE",
"469 382 CURVE",
"463 382 OFFCURVE",
"460 380 OFFCURVE",
"460 376 CURVE SMOOTH",
"460 374 OFFCURVE",
"462 373 OFFCURVE",
"465 373 CURVE SMOOTH",
"471 373 LINE",
"508 378 OFFCURVE",
"530 403 OFFCURVE",
"530 428 CURVE SMOOTH",
"530 445 OFFCURVE",
"521 460 OFFCURVE",
"504 472 CURVE SMOOTH",
"485 485 OFFCURVE",
"459 492 OFFCURVE",
"425 492 CURVE SMOOTH",
"397 492 OFFCURVE",
"365 487 OFFCURVE",
"329 478 CURVE SMOOTH",
"249 455 OFFCURVE",
"197 422 OFFCURVE",
"174 379 CURVE",
"77 327 OFFCURVE",
"29 264 OFFCURVE",
"29 189 CURVE SMOOTH",
"29 178 OFFCURVE",
"31 167 OFFCURVE",
"36 158 CURVE",
"15 133 OFFCURVE",
"5 107 OFFCURVE",
"5 82 CURVE SMOOTH",
"5 44 OFFCURVE",
"24 15 OFFCURVE",
"61 -7 CURVE SMOOTH",
"94 -28 OFFCURVE",
"138 -38 OFFCURVE",
"191 -38 CURVE",
"191 -38 LINE"
);
},
{
closed = 1;
nodes = (
"47 182 OFFCURVE",
"45 191 OFFCURVE",
"45 202 CURVE SMOOTH",
"45 263 OFFCURVE",
"86 317 OFFCURVE",
"168 364 CURVE",
"165 358 OFFCURVE",
"164 351 OFFCURVE",
"164 345 CURVE SMOOTH",
"164 303 OFFCURVE",
"219 269 OFFCURVE",
"281 270 CURVE",
"226 259 OFFCURVE",
"196 252 OFFCURVE",
"191 251 CURVE SMOOTH",
"130 232 OFFCURVE",
"83 206 OFFCURVE",
"50 173 CURVE",
"50 173 LINE"
);
},
{
closed = 1;
nodes = (
"484 388 OFFCURVE",
"486 392 OFFCURVE",
"486 396 CURVE SMOOTH",
"486 422 OFFCURVE",
"450 435 OFFCURVE",
"379 435 CURVE SMOOTH",
"356 435 OFFCURVE",
"337 434 OFFCURVE",
"324 432 CURVE SMOOTH",
"295 427 OFFCURVE",
"266 419 OFFCURVE",
"237 408 CURVE",
"285 456 OFFCURVE",
"371 478 OFFCURVE",
"423 478 CURVE SMOOTH",
"450 478 OFFCURVE",
"471 472 OFFCURVE",
"484 460 CURVE SMOOTH",
"495 451 OFFCURVE",
"501 438 OFFCURVE",
"501 423 CURVE SMOOTH",
"501 403 OFFCURVE",
"494 390 OFFCURVE",
"481 384 CURVE",
"481 384 LINE"
);
}
);
userData = {
assembly = "PUSHW[ ]	/* 4 values pushed */\01228 7 44 4 \012CALL[ ]	/* CallFunction */\012PUSHW[ ]	/* 4 values pushed */\01254 8 66 4 \012CALL[ ]	/* CallFunction */\012NPUSHW[ ]	/* 5 values pushed */\012106 66 122 66 2 \012DELTAP2[ ]	/* DeltaExceptionP2 */\012NPUSHW[ ]	/* 33 values pushed */\0129 66 25 66 41 66 57 66 73 66 89 66 105 66 121 66 137 66 153 66 169 66 185 66 201 66 217 66 233 66 249 66 16 \012DELTAP1[ ]	/* DeltaExceptionP1 */\012NPUSHW[ ]	/* 13 values pushed */\0129 66 25 66 41 66 57 66 73 66 89 66 6 \012DELTAP2[ ]	/* DeltaExceptionP2 */\012PUSHW[ ]	/* 3 values pushed */\0120 66 54 \012SRP1[ ]	/* SetRefPoint1 */\012SRP2[ ]	/* SetRefPoint2 */\012IP[ ]	/* InterpolatePts */\012PUSHW[ ]	/* 1 value pushed */\01254 \012SRP0[ ]	/* SetRefPoint0 */\012PUSHW[ ]	/* 2 values pushed */\0122 5 \012MIRP[10100]	/* MoveIndirectRelPt */\012PUSHW[ ]	/* 3 values pushed */\0129 44 54 \012SRP1[ ]	/* SetRefPoint1 */\012SRP2[ ]	/* SetRefPoint2 */\012IP[ ]	/* InterpolatePts */\012PUSHW[ ]	/* 3 values pushed */\01217 44 54 \012SRP1[ ]	/* SetRefPoint1 */\012SRP2[ ]	/* SetRefPoint2 */\012IP[ ]	/* InterpolatePts */\012PUSHW[ ]	/* 3 values pushed */\01221 44 54 \012SRP1[ ]	/* SetRefPoint1 */\012SRP2[ ]	/* SetRefPoint2 */\012IP[ ]	/* InterpolatePts */\012PUSHW[ ]	/* 3 values pushed */\01226 44 54 \012SRP1[ ]	/* SetRefPoint1 */\012SRP2[ ]	/* SetRefPoint2 */\012IP[ ]	/* InterpolatePts */\012NPUSHW[ ]	/* 33 values pushed */\0126 28 22 28 38 28 54 28 70 28 86 28 102 28 118 28 134 28 150 28 166 28 182 28 198 28 214 28 230 28 246 28 16 \012DELTAP1[ ]	/* DeltaExceptionP1 */\012NPUSHW[ ]	/* 33 values pushed */\0126 28 22 28 38 28 54 28 70 28 86 28 102 28 118 28 134 28 150 28 166 28 182 28 198 28 214 28 230 28 246 28 16 \012DELTAP2[ ]	/* DeltaExceptionP2 */\012NPUSHW[ ]	/* 33 values pushed */\0126 28 22 28 38 28 54 28 70 28 86 28 102 28 118 28 134 28 150 28 166 28 182 28 198 28 214 28 230 28 246 28 16 \012DELTAP3[ ]	/* DeltaExceptionP3 */\012PUSHW[ ]	/* 3 values pushed */\01299 44 54 \012SRP1[ ]	/* SetRefPoint1 */\012SRP2[ ]	/* SetRefPoint2 */\012IP[ ]	/* InterpolatePts */\012PUSHW[ ]	/* 1 value pushed */\01228 \012SRP0[ ]	/* SetRefPoint0 */\012PUSHW[ ]	/* 1 value pushed */\012111 \012MDRP[10000]	/* MoveDirectRelPt */\012PUSHW[ ]	/* 1 value pushed */\012111 \012MDAP[1]	/* MoveDirectAbsPt */\012PUSHW[ ]	/* 1 value pushed */\01266 \012SRP0[ ]	/* SetRefPoint0 */\012PUSHW[ ]	/* 1 value pushed */\012121 \012MDRP[10000]	/* MoveDirectRelPt */\012PUSHW[ ]	/* 1 value pushed */\012121 \012MDAP[1]	/* MoveDirectAbsPt */\012PUSHW[ ]	/* 1 value pushed */\01254 \012SRP0[ ]	/* SetRefPoint0 */\012PUSHW[ ]	/* 1 value pushed */\012126 \012MDRP[11100]	/* MoveDirectRelPt */\012SVTCA[0]	/* SetFreedomAndProjectionVectorToAxis */\012PUSHW[ ]	/* 4 values pushed */\012115 3 36 4 \012CALL[ ]	/* CallFunction */\012PUSHW[ ]	/* 4 values pushed */\01250 1 6 4 \012CALL[ ]	/* CallFunction */\012PUSHW[ ]	/* 4 values pushed */\01288 1 107 4 \012CALL[ ]	/* CallFunction */\012PUSHW[ ]	/* 4 values pushed */\01278 4 82 4 \012CALL[ ]	/* CallFunction */\012PUSHW[ ]	/* 1 value pushed */\01278 \012SRP0[ ]	/* SetRefPoint0 */\012PUSHW[ ]	/* 1 value pushed */\01221 \012MDRP[10000]	/* MoveDirectRelPt */\012PUSHW[ ]	/* 1 value pushed */\01221 \012MDAP[1]	/* MoveDirectAbsPt */\012PUSHW[ ]	/* 1 value pushed */\01236 \012SRP0[ ]	/* SetRefPoint0 */\012PUSHW[ ]	/* 1 value pushed */\01234 \012MDRP[10000]	/* MoveDirectRelPt */\012PUSHW[ ]	/* 1 value pushed */\01234 \012MDAP[1]	/* MoveDirectAbsPt */\012PUSHW[ ]	/* 1 value pushed */\012115 \012SRP0[ ]	/* SetRefPoint0 */\012PUSHW[ ]	/* 1 value pushed */\012117 \012MDRP[10000]	/* MoveDirectRelPt */\012PUSHW[ ]	/* 1 value pushed */\012117 \012MDAP[1]	/* MoveDirectAbsPt */\012IUP[0]	/* InterpolateUntPts */\012IUP[1]	/* InterpolateUntPts */";
};
width = 496;
}
);
leftKerningGroup = H;
note = E;
rightKerningGroup = E;
unicode = 0045;
},
{
glyphname = F;
lastChange = "2021-10-05 05:06:45 +0000";
layers = (
{
layerId = "0CF23081-C341-41E4-8FF8-6B151438961F";
paths = (
{
closed = 1;
nodes = (
"327 -62 OFFCURVE",
"479 39 OFFCURVE",
"558 218 CURVE",
"565 217 OFFCURVE",
"581 215 OFFCURVE",
"604 210 CURVE SMOOTH",
"625 206 OFFCURVE",
"640 204 OFFCURVE",
"649 204 CURVE SMOOTH",
"654 204 OFFCURVE",
"657 205 OFFCURVE",
"657 206 CURVE SMOOTH",
"657 208 OFFCURVE",
"654 210 OFFCURVE",
"649 213 CURVE SMOOTH",
"639 218 OFFCURVE",
"626 222 OFFCURVE",
"609 224 CURVE SMOOTH",
"563 233 LINE",
"644 402 LINE",
"710 383 LINE SMOOTH",
"737 376 OFFCURVE",
"759 373 OFFCURVE",
"778 373 CURVE SMOOTH",
"801 373 OFFCURVE",
"816 380 OFFCURVE",
"825 393 CURVE SMOOTH",
"826 394 OFFCURVE",
"826 395 OFFCURVE",
"826 396 CURVE SMOOTH",
"826 399 OFFCURVE",
"824 401 OFFCURVE",
"820 401 CURVE SMOOTH",
"819 401 OFFCURVE",
"817 400 OFFCURVE",
"816 399 CURVE SMOOTH",
"811 391 OFFCURVE",
"803 387 OFFCURVE",
"791 387 CURVE SMOOTH",
"788 387 OFFCURVE",
"777 388 OFFCURVE",
"759 391 CURVE SMOOTH",
"744 393 OFFCURVE",
"726 397 OFFCURVE",
"706 403 CURVE SMOOTH",
"653 419 LINE",
"654 421 LINE SMOOTH",
"655 424 OFFCURVE",
"656 426 OFFCURVE",
"656 429 CURVE SMOOTH",
"656 437 OFFCURVE",
"652 441 OFFCURVE",
"643 441 CURVE SMOOTH",
"635 440 OFFCURVE",
"627 436 OFFCURVE",
"620 429 CURVE",
"594 436 OFFCURVE",
"567 442 OFFCURVE",
"539 447 CURVE",
"538 482 OFFCURVE",
"528 510 OFFCURVE",
"509 530 CURVE SMOOTH",
"492 548 OFFCURVE",
"472 557 OFFCURVE",
"448 557 CURVE SMOOTH",
"425 557 OFFCURVE",
"403 549 OFFCURVE",
"384 534 CURVE SMOOTH",
"363 517 OFFCURVE",
"349 495 OFFCURVE",
"340 466 CURVE",
"284 465 OFFCURVE",
"237 459 OFFCURVE",
"199 446 CURVE SMOOTH",
"145 428 OFFCURVE",
"106 405 OFFCURVE",
"81 378 CURVE SMOOTH",
"65 360 OFFCURVE",
"57 343 OFFCURVE",
"57 327 CURVE SMOOTH",
"57 321 OFFCURVE",
"59 315 OFFCURVE",
"61 309 CURVE SMOOTH",
"70 289 OFFCURVE",
"90 279 OFFCURVE",
"121 279 CURVE SMOOTH",
"135 279 OFFCURVE",
"150 281 OFFCURVE",
"166 286 CURVE SMOOTH",
"175 289 OFFCURVE",
"179 292 OFFCURVE",
"179 295 CURVE SMOOTH",
"179 297 OFFCURVE",
"177 298 OFFCURVE",
"173 298 CURVE SMOOTH",
"164 297 LINE",
"151 293 OFFCURVE",
"139 291 OFFCURVE",
"128 291 CURVE SMOOTH",
"103 291 OFFCURVE",
"90 300 OFFCURVE",
"90 318 CURVE SMOOTH",
"90 332 OFFCURVE",
"99 347 OFFCURVE",
"118 363 CURVE SMOOTH",
"162 400 OFFCURVE",
"241 428 OFFCURVE",
"334 436 CURVE",
"333 431 OFFCURVE",
"333 425 OFFCURVE",
"333 419 CURVE SMOOTH",
"333 392 OFFCURVE",
"340 365 OFFCURVE",
"354 339 CURVE SMOOTH",
"369 312 OFFCURVE",
"390 290 OFFCURVE",
"418 271 CURVE",
"420 268 OFFCURVE",
"423 269 OFFCURVE",
"423 273 CURVE SMOOTH",
"423 274 OFFCURVE",
"422 275 OFFCURVE",
"421 276 CURVE SMOOTH",
"373 309 OFFCURVE",
"349 355 OFFCURVE",
"349 413 CURVE SMOOTH",
"349 421 OFFCURVE",
"350 429 OFFCURVE",
"351 438 CURVE",
"366 439 OFFCURVE",
"381 439 OFFCURVE",
"396 439 CURVE SMOOTH",
"437 439 OFFCURVE",
"480 436 OFFCURVE",
"524 429 CURVE",
"523 372 OFFCURVE",
"506 309 OFFCURVE",
"473 240 CURVE",
"453 241 OFFCURVE",
"434 241 OFFCURVE",
"416 241 CURVE SMOOTH",
"351 241 OFFCURVE",
"309 236 OFFCURVE",
"290 226 CURVE SMOOTH",
"283 222 OFFCURVE",
"276 216 OFFCURVE",
"268 207 CURVE SMOOTH",
"263 201 OFFCURVE",
"260 197 OFFCURVE",
"260 195 CURVE SMOOTH",
"260 193 OFFCURVE",
"261 192 OFFCURVE",
"264 192 CURVE SMOOTH",
"267 192 OFFCURVE",
"271 193 OFFCURVE",
"277 194 CURVE",
"305 203 OFFCURVE",
"398 217 OFFCURVE",
"463 221 CURVE",
"428 154 OFFCURVE",
"385 100 OFFCURVE",
"336 59 CURVE SMOOTH",
"281 13 OFFCURVE",
"223 -9 OFFCURVE",
"164 -8 CURVE SMOOTH",
"162 -8 OFFCURVE",
"160 -9 OFFCURVE",
"160 -12 CURVE SMOOTH",
"160 -14 OFFCURVE",
"161 -14 OFFCURVE",
"163 -15 CURVE",
"226 -18 OFFCURVE",
"288 4 OFFCURVE",
"347 52 CURVE SMOOTH",
"400 95 OFFCURVE",
"444 151 OFFCURVE",
"481 221 CURVE",
"498 222 OFFCURVE",
"510 221 OFFCURVE",
"519 219 CURVE",
"480 135 OFFCURVE",
"433 72 OFFCURVE",
"376 31 CURVE SMOOTH",
"312 -15 OFFCURVE",
"234 -38 OFFCURVE",
"141 -38 CURVE SMOOTH",
"101 -38 OFFCURVE",
"71 -33 OFFCURVE",
"51 -19 CURVE SMOOTH",
"35 -9 OFFCURVE",
"27 4 OFFCURVE",
"27 21 CURVE SMOOTH",
"27 32 OFFCURVE",
"31 44 OFFCURVE",
"39 56 CURVE SMOOTH",
"73 104 OFFCURVE",
"139 128 OFFCURVE",
"237 128 CURVE SMOOTH",
"287 128 OFFCURVE",
"316 125 OFFCURVE",
"324 121 CURVE SMOOTH",
"328 119 OFFCURVE",
"331 118 OFFCURVE",
"334 118 CURVE SMOOTH",
"337 118 OFFCURVE",
"338 119 OFFCURVE",
"338 120 CURVE SMOOTH",
"338 123 OFFCURVE",
"334 127 OFFCURVE",
"325 131 CURVE SMOOTH",
"307 140 OFFCURVE",
"277 144 OFFCURVE",
"235 144 CURVE SMOOTH",
"114 144 OFFCURVE",
"39 116 OFFCURVE",
"10 61 CURVE SMOOTH",
"3 49 OFFCURVE",
"0 37 OFFCURVE",
"0 25 CURVE SMOOTH",
"0 2 OFFCURVE",
"12 -18 OFFCURVE",
"35 -33 CURVE SMOOTH",
"60 -50 OFFCURVE",
"97 -58 OFFCURVE",
"144 -59 CURVE",
"144 -59 LINE"
);
},
{
closed = 1;
nodes = (
"517 237 OFFCURVE",
"504 238 OFFCURVE",
"489 239 CURVE",
"522 306 OFFCURVE",
"539 369 OFFCURVE",
"540 426 CURVE",
"563 423 OFFCURVE",
"585 418 OFFCURVE",
"607 413 CURVE",
"595 394 OFFCURVE",
"580 363 OFFCURVE",
"563 319 CURVE SMOOTH",
"545 272 OFFCURVE",
"534 244 OFFCURVE",
"529 236 CURVE",
"529 236 LINE"
);
},
{
closed = 1;
nodes = (
"465 460 OFFCURVE",
"410 465 OFFCURVE",
"357 466 CURVE",
"365 493 OFFCURVE",
"378 515 OFFCURVE",
"395 530 CURVE SMOOTH",
"411 544 OFFCURVE",
"429 551 OFFCURVE",
"448 551 CURVE SMOOTH",
"468 551 OFFCURVE",
"485 543 OFFCURVE",
"499 526 CURVE SMOOTH",
"514 507 OFFCURVE",
"523 482 OFFCURVE",
"524 450 CURVE",
"524 450 LINE"
);
}
);
userData = {
assembly = "PUSHW[ ]	/* 4 values pushed */\01277 5 59 4 \012CALL[ ]	/* CallFunction */\012PUSHW[ ]	/* 4 values pushed */\012118 7 128 4 \012CALL[ ]	/* CallFunction */\012PUSHW[ ]	/* 4 values pushed */\01218 7 114 4 \012CALL[ ]	/* CallFunction */\012NPUSHW[ ]	/* 33 values pushed */\0129 114 25 114 41 114 57 114 73 114 89 114 105 114 121 114 137 114 153 114 169 114 185 114 201 114 217 114 233 114 249 114 16 \012DELTAP1[ ]	/* DeltaExceptionP1 */\012NPUSHW[ ]	/* 33 values pushed */\0129 114 25 114 41 114 57 114 73 114 89 114 105 114 121 114 137 114 153 114 169 114 185 114 201 114 217 114 233 114 249 114 16 \012DELTAP2[ ]	/* DeltaExceptionP2 */\012NPUSHW[ ]	/* 33 values pushed */\0129 114 25 114 41 114 57 114 73 114 89 114 105 114 121 114 137 114 153 114 169 114 185 114 201 114 217 114 233 114 249 114 16 \012DELTAP3[ ]	/* DeltaExceptionP3 */\012PUSHW[ ]	/* 1 value pushed */\012114 \012SRP0[ ]	/* SetRefPoint0 */\012PUSHW[ ]	/* 1 value pushed */\0120 \012MDRP[10000]	/* MoveDirectRelPt */\012PUSHW[ ]	/* 3 values pushed */\0128 59 18 \012SRP1[ ]	/* SetRefPoint1 */\012SRP2[ ]	/* SetRefPoint2 */\012IP[ ]	/* InterpolatePts */\012PUSHW[ ]	/* 3 values pushed */\01210 59 18 \012SRP1[ ]	/* SetRefPoint1 */\012SRP2[ ]	/* SetRefPoint2 */\012IP[ ]	/* InterpolatePts */\012PUSHW[ ]	/* 1 value pushed */\012128 \012SRP0[ ]	/* SetRefPoint0 */\012PUSHW[ ]	/* 1 value pushed */\01267 \012MDRP[10000]	/* MoveDirectRelPt */\012PUSHW[ ]	/* 1 value pushed */\01267 \012MDAP[1]	/* MoveDirectAbsPt */\012NPUSHW[ ]	/* 33 values pushed */\0126 77 22 77 38 77 54 77 70 77 86 77 102 77 118 77 134 77 150 77 166 77 182 77 198 77 214 77 230 77 246 77 16 \012DELTAP1[ ]	/* DeltaExceptionP1 */\012NPUSHW[ ]	/* 13 values pushed */\0126 77 22 77 38 77 54 77 70 77 86 77 6 \012DELTAP2[ ]	/* DeltaExceptionP2 */\012NPUSHW[ ]	/* 5 values pushed */\012101 77 117 77 2 \012DELTAP2[ ]	/* DeltaExceptionP2 */\012PUSHW[ ]	/* 3 values pushed */\01299 59 18 \012SRP1[ ]	/* SetRefPoint1 */\012SRP2[ ]	/* SetRefPoint2 */\012IP[ ]	/* InterpolatePts */\012NPUSHW[ ]	/* 33 values pushed */\0126 118 22 118 38 118 54 118 70 118 86 118 102 118 118 118 134 118 150 118 166 118 182 118 198 118 214 118 230 118 246 118 16 \012DELTAP1[ ]	/* DeltaExceptionP1 */\012NPUSHW[ ]	/* 33 values pushed */\0126 118 22 118 38 118 54 118 70 118 86 118 102 118 118 118 134 118 150 118 166 118 182 118 198 118 214 118 230 118 246 118 16 \012DELTAP2[ ]	/* DeltaExceptionP2 */\012NPUSHW[ ]	/* 33 values pushed */\0126 118 22 118 38 118 54 118 70 118 86 118 102 118 118 118 134 118 150 118 166 118 182 118 198 118 214 118 230 118 246 118 16 \012DELTAP3[ ]	/* DeltaExceptionP3 */\012PUSHW[ ]	/* 1 value pushed */\012118 \012SRP0[ ]	/* SetRefPoint0 */\012PUSHW[ ]	/* 1 value pushed */\012116 \012MDRP[10000]	/* MoveDirectRelPt */\012PUSHW[ ]	/* 1 value pushed */\012116 \012MDAP[1]	/* MoveDirectAbsPt */\012PUSHW[ ]	/* 3 values pushed */\012124 59 18 \012SRP1[ ]	/* SetRefPoint1 */\012SRP2[ ]	/* SetRefPoint2 */\012IP[ ]	/* InterpolatePts */\012PUSHW[ ]	/* 1 value pushed */\012128 \012SRP0[ ]	/* SetRefPoint0 */\012PUSHW[ ]	/* 1 value pushed */\012130 \012MDRP[10000]	/* MoveDirectRelPt */\012PUSHW[ ]	/* 1 value pushed */\012130 \012MDAP[1]	/* MoveDirectAbsPt */\012PUSHW[ ]	/* 1 value pushed */\01218 \012SRP0[ ]	/* SetRefPoint0 */\012PUSHW[ ]	/* 1 value pushed */\012163 \012MDRP[10000]	/* MoveDirectRelPt */\012PUSHW[ ]	/* 1 value pushed */\012163 \012MDAP[1]	/* MoveDirectAbsPt */\012PUSHW[ ]	/* 1 value pushed */\01218 \012SRP0[ ]	/* SetRefPoint0 */\012PUSHW[ ]	/* 1 value pushed */\012173 \012MDRP[11100]	/* MoveDirectRelPt */\012SVTCA[0]	/* SetFreedomAndProjectionVectorToAxis */\012PUSHW[ ]	/* 1 value pushed */\012137 \012MDAP[1]	/* MoveDirectAbsPt */\012PUSHW[ ]	/* 1 value pushed */\012143 \012MDAP[1]	/* MoveDirectAbsPt */\012PUSHW[ ]	/* 1 value pushed */\0120 \012RCVT[ ]	/* ReadCVT */\012IF[ ]	/* If */\012PUSHW[ ]	/* 1 value pushed */\01248 \012MDAP[1]	/* MoveDirectAbsPt */\012ELSE[ ]	/* Else */\012PUSHW[ ]	/* 2 values pushed */\01248 13 \012MIAP[0]	/* MoveIndirectAbsPt */\012EIF[ ]	/* EndIf */\012PUSHW[ ]	/* 1 value pushed */\0120 \012RCVT[ ]	/* ReadCVT */\012IF[ ]	/* If */\012PUSHW[ ]	/* 1 value pushed */\012106 \012MDAP[1]	/* MoveDirectAbsPt */\012ELSE[ ]	/* Else */\012PUSHW[ ]	/* 2 values pushed */\012106 13 \012MIAP[0]	/* MoveIndirectAbsPt */\012EIF[ ]	/* EndIf */\012PUSHW[ ]	/* 1 value pushed */\0120 \012RCVT[ ]	/* ReadCVT */\012IF[ ]	/* If */\012PUSHW[ ]	/* 1 value pushed */\012159 \012MDAP[1]	/* MoveDirectAbsPt */\012ELSE[ ]	/* Else */\012PUSHW[ ]	/* 2 values pushed */\012159 15 \012MIAP[0]	/* MoveIndirectAbsPt */\012EIF[ ]	/* EndIf */\012PUSHW[ ]	/* 4 values pushed */\01281 4 55 4 \012CALL[ ]	/* CallFunction */\012PUSHW[ ]	/* 4 values pushed */\01263 2 73 4 \012CALL[ ]	/* CallFunction */\012PUSHW[ ]	/* 4 values pushed */\012110 4 99 4 \012CALL[ ]	/* CallFunction */\012PUSHW[ ]	/* 1 value pushed */\012159 \012SRP0[ ]	/* SetRefPoint0 */\012PUSHW[ ]	/* 1 value pushed */\012116 \012MDRP[11100]	/* MoveDirectRelPt */\012NPUSHW[ ]	/* 5 values pushed */\012217 116 233 116 2 \012DELTAP1[ ]	/* DeltaExceptionP1 */\012NPUSHW[ ]	/* 27 values pushed */\0128 116 24 116 40 116 56 116 72 116 88 116 104 116 120 116 136 116 152 116 168 116 184 116 200 116 13 \012DELTAP1[ ]	/* DeltaExceptionP1 */\012PUSHW[ ]	/* 2 values pushed */\0128 4 \012MIRP[10100]	/* MoveIndirectRelPt */\012PUSHW[ ]	/* 1 value pushed */\012110 \012SRP0[ ]	/* SetRefPoint0 */\012PUSHW[ ]	/* 1 value pushed */\01210 \012MDRP[10000]	/* MoveDirectRelPt */\012PUSHW[ ]	/* 1 value pushed */\01210 \012MDAP[1]	/* MoveDirectAbsPt */\012PUSHW[ ]	/* 3 values pushed */\01216 48 159 \012SRP1[ ]	/* SetRefPoint1 */\012SRP2[ ]	/* SetRefPoint2 */\012IP[ ]	/* InterpolatePts */\012PUSHW[ ]	/* 1 value pushed */\01299 \012SRP0[ ]	/* SetRefPoint0 */\012PUSHW[ ]	/* 1 value pushed */\01244 \012MDRP[10000]	/* MoveDirectRelPt */\012PUSHW[ ]	/* 1 value pushed */\01244 \012MDAP[1]	/* MoveDirectAbsPt */\012PUSHW[ ]	/* 1 value pushed */\01299 \012SRP0[ ]	/* SetRefPoint0 */\012PUSHW[ ]	/* 1 value pushed */\01252 \012MDRP[10000]	/* MoveDirectRelPt */\012PUSHW[ ]	/* 1 value pushed */\01252 \012MDAP[1]	/* MoveDirectAbsPt */\012PUSHW[ ]	/* 1 value pushed */\01299 \012SRP0[ ]	/* SetRefPoint0 */\012PUSHW[ ]	/* 1 value pushed */\01287 \012MDRP[10000]	/* MoveDirectRelPt */\012PUSHW[ ]	/* 1 value pushed */\01287 \012MDAP[1]	/* MoveDirectAbsPt */\012PUSHW[ ]	/* 1 value pushed */\01255 \012SRP0[ ]	/* SetRefPoint0 */\012PUSHW[ ]	/* 1 value pushed */\01295 \012MDRP[11100]	/* MoveDirectRelPt */\012PUSHW[ ]	/* 1 value pushed */\012110 \012SRP0[ ]	/* SetRefPoint0 */\012PUSHW[ ]	/* 1 value pushed */\012112 \012MDRP[10000]	/* MoveDirectRelPt */\012PUSHW[ ]	/* 1 value pushed */\012112 \012MDAP[1]	/* MoveDirectAbsPt */\012PUSHW[ ]	/* 3 values pushed */\012124 48 159 \012SRP1[ ]	/* SetRefPoint1 */\012SRP2[ ]	/* SetRefPoint2 */\012IP[ ]	/* InterpolatePts */\012PUSHW[ ]	/* 1 value pushed */\012116 \012SRP0[ ]	/* SetRefPoint0 */\012PUSHW[ ]	/* 1 value pushed */\012130 \012MDRP[10000]	/* MoveDirectRelPt */\012PUSHW[ ]	/* 1 value pushed */\012130 \012MDAP[1]	/* MoveDirectAbsPt */\012PUSHW[ ]	/* 1 value pushed */\0128 \012SRP0[ ]	/* SetRefPoint0 */\012PUSHW[ ]	/* 1 value pushed */\012155 \012MDRP[10000]	/* MoveDirectRelPt */\012PUSHW[ ]	/* 1 value pushed */\012130 \012SRP0[ ]	/* SetRefPoint0 */\012PUSHW[ ]	/* 1 value pushed */\012167 \012MDRP[10000]	/* MoveDirectRelPt */\012PUSHW[ ]	/* 1 value pushed */\012167 \012MDAP[1]	/* MoveDirectAbsPt */\012IUP[0]	/* InterpolateUntPts */\012IUP[1]	/* InterpolateUntPts */";
};
width = 668;
}
);
leftKerningGroup = H;
note = F;
rightKerningGroup = F;
unicode = 0046;
},
{
glyphname = G;
lastChange = "2021-10-05 05:06:45 +0000";
layers = (
{
anchors = (
{
name = bottom;
position = "{227, -40}";
},
{
name = top;
position = "{540, 494}";
}
);
layerId = "0CF23081-C341-41E4-8FF8-6B151438961F";
paths = (
{
closed = 1;
nodes = (
"309 -41 OFFCURVE",
"385 -21 OFFCURVE",
"458 18 CURVE SMOOTH",
"533 59 OFFCURVE",
"570 104 OFFCURVE",
"570 153 CURVE SMOOTH",
"570 172 OFFCURVE",
"564 187 OFFCURVE",
"553 198 CURVE",
"590 195 OFFCURVE",
"626 189 OFFCURVE",
"661 178 CURVE",
"662 187 OFFCURVE",
"662 193 OFFCURVE",
"661 195 CURVE",
"660 200 OFFCURVE",
"656 203 OFFCURVE",
"649 206 CURVE SMOOTH",
"624 217 OFFCURVE",
"581 223 OFFCURVE",
"521 223 CURVE SMOOTH",
"488 223 OFFCURVE",
"452 221 OFFCURVE",
"413 218 CURVE SMOOTH",
"316 210 OFFCURVE",
"254 200 OFFCURVE",
"226 189 CURVE SMOOTH",
"217 185 OFFCURVE",
"205 161 OFFCURVE",
"209 148 CURVE",
"236 153 OFFCURVE",
"272 160 OFFCURVE",
"319 171 CURVE SMOOTH",
"360 180 OFFCURVE",
"393 187 OFFCURVE",
"417 190 CURVE SMOOTH",
"453 195 OFFCURVE",
"491 198 OFFCURVE",
"532 198 CURVE",
"533 190 OFFCURVE",
"533 183 OFFCURVE",
"533 175 CURVE SMOOTH",
"533 120 OFFCURVE",
"507 73 OFFCURVE",
"454 37 CURVE SMOOTH",
"400 0 OFFCURVE",
"335 -18 OFFCURVE",
"258 -18 CURVE SMOOTH",
"200 -18 OFFCURVE",
"152 -7 OFFCURVE",
"115 16 CURVE SMOOTH",
"74 41 OFFCURVE",
"53 75 OFFCURVE",
"53 118 CURVE SMOOTH",
"53 180 OFFCURVE",
"78 238 OFFCURVE",
"129 293 CURVE",
"156 282 OFFCURVE",
"186 276 OFFCURVE",
"221 276 CURVE SMOOTH",
"264 276 OFFCURVE",
"301 286 OFFCURVE",
"308 301 CURVE SMOOTH",
"309 303 OFFCURVE",
"309 305 OFFCURVE",
"307 306 CURVE",
"305 308 OFFCURVE",
"303 308 OFFCURVE",
"302 305 CURVE",
"295 292 OFFCURVE",
"272 285 OFFCURVE",
"234 285 CURVE SMOOTH",
"199 285 OFFCURVE",
"168 291 OFFCURVE",
"140 304 CURVE",
"194 359 OFFCURVE",
"262 399 OFFCURVE",
"344 425 CURVE SMOOTH",
"373 434 OFFCURVE",
"407 442 OFFCURVE",
"446 449 CURVE",
"455 444 OFFCURVE",
"464 438 OFFCURVE",
"473 431 CURVE SMOOTH",
"492 418 OFFCURVE",
"509 401 OFFCURVE",
"526 380 CURVE SMOOTH",
"546 354 OFFCURVE",
"556 332 OFFCURVE",
"556 314 CURVE SMOOTH",
"556 307 OFFCURVE",
"554 300 OFFCURVE",
"550 294 CURVE",
"547 291 OFFCURVE",
"545 289 OFFCURVE",
"545 287 CURVE SMOOTH",
"545 286 LINE SMOOTH",
"545 283 OFFCURVE",
"550 284 OFFCURVE",
"559 288 CURVE",
"587 297 OFFCURVE",
"612 310 OFFCURVE",
"633 327 CURVE SMOOTH",
"660 348 OFFCURVE",
"674 369 OFFCURVE",
"674 391 CURVE SMOOTH",
"674 412 OFFCURVE",
"666 433 OFFCURVE",
"649 454 CURVE SMOOTH",
"628 481 OFFCURVE",
"592 494 OFFCURVE",
"540 494 CURVE SMOOTH",
"505 494 OFFCURVE",
"464 488 OFFCURVE",
"416 476 CURVE",
"356 505 OFFCURVE",
"298 519 OFFCURVE",
"242 519 CURVE SMOOTH",
"195 519 OFFCURVE",
"153 508 OFFCURVE",
"116 483 CURVE SMOOTH",
"79 458 OFFCURVE",
"60 427 OFFCURVE",
"60 391 CURVE SMOOTH",
"60 358 OFFCURVE",
"73 331 OFFCURVE",
"99 311 CURVE",
"48 256 OFFCURVE",
"23 196 OFFCURVE",
"23 131 CURVE SMOOTH",
"23 72 OFFCURVE",
"43 28 OFFCURVE",
"84 -1 CURVE SMOOTH",
"120 -28 OFFCURVE",
"168 -41 OFFCURVE",
"228 -41 CURVE",
"228 -41 LINE"
);
},
{
closed = 1;
nodes = (
"87 341 OFFCURVE",
"76 364 OFFCURVE",
"76 392 CURVE SMOOTH",
"76 425 OFFCURVE",
"95 453 OFFCURVE",
"132 476 CURVE SMOOTH",
"166 496 OFFCURVE",
"201 506 OFFCURVE",
"238 506 CURVE SMOOTH",
"298 506 OFFCURVE",
"353 495 OFFCURVE",
"402 473 CURVE",
"383 468 OFFCURVE",
"362 461 OFFCURVE",
"339 454 CURVE SMOOTH",
"244 423 OFFCURVE",
"168 380 OFFCURVE",
"111 323 CURVE",
"111 323 LINE"
);
},
{
closed = 1;
nodes = (
"565 308 OFFCURVE",
"566 313 OFFCURVE",
"566 319 CURVE SMOOTH",
"566 337 OFFCURVE",
"558 358 OFFCURVE",
"541 381 CURVE SMOOTH",
"526 402 OFFCURVE",
"509 420 OFFCURVE",
"488 434 CURVE SMOOTH",
"460 452 LINE",
"495 458 OFFCURVE",
"526 461 OFFCURVE",
"553 461 CURVE SMOOTH",
"616 461 OFFCURVE",
"647 444 OFFCURVE",
"647 410 CURVE SMOOTH",
"647 395 OFFCURVE",
"637 375 OFFCURVE",
"616 350 CURVE SMOOTH",
"597 327 OFFCURVE",
"580 312 OFFCURVE",
"564 303 CURVE",
"564 303 LINE"
);
}
);
userData = {
assembly = "PUSHW[ ]	/* 4 values pushed */\01263 8 102 4 \012CALL[ ]	/* CallFunction */\012PUSHW[ ]	/* 4 values pushed */\01210 7 106 4 \012CALL[ ]	/* CallFunction */\012PUSHW[ ]	/* 4 values pushed */\01294 6 38 4 \012CALL[ ]	/* CallFunction */\012PUSHW[ ]	/* 4 values pushed */\01228 5 16 4 \012CALL[ ]	/* CallFunction */\012PUSHW[ ]	/* 3 values pushed */\0124 102 28 \012SRP1[ ]	/* SetRefPoint1 */\012SRP2[ ]	/* SetRefPoint2 */\012IP[ ]	/* InterpolatePts */\012NPUSHW[ ]	/* 33 values pushed */\0126 10 22 10 38 10 54 10 70 10 86 10 102 10 118 10 134 10 150 10 166 10 182 10 198 10 214 10 230 10 246 10 16 \012DELTAP1[ ]	/* DeltaExceptionP1 */\012NPUSHW[ ]	/* 33 values pushed */\0126 10 22 10 38 10 54 10 70 10 86 10 102 10 118 10 134 10 150 10 166 10 182 10 198 10 214 10 230 10 246 10 16 \012DELTAP2[ ]	/* DeltaExceptionP2 */\012NPUSHW[ ]	/* 33 values pushed */\0126 10 22 10 38 10 54 10 70 10 86 10 102 10 118 10 134 10 150 10 166 10 182 10 198 10 214 10 230 10 246 10 16 \012DELTAP3[ ]	/* DeltaExceptionP3 */\012NPUSHW[ ]	/* 33 values pushed */\0129 38 25 38 41 38 57 38 73 38 89 38 105 38 121 38 137 38 153 38 169 38 185 38 201 38 217 38 233 38 249 38 16 \012DELTAP1[ ]	/* DeltaExceptionP1 */\012NPUSHW[ ]	/* 33 values pushed */\0129 38 25 38 41 38 57 38 73 38 89 38 105 38 121 38 137 38 153 38 169 38 185 38 201 38 217 38 233 38 249 38 16 \012DELTAP2[ ]	/* DeltaExceptionP2 */\012NPUSHW[ ]	/* 33 values pushed */\0129 38 25 38 41 38 57 38 73 38 89 38 105 38 121 38 137 38 153 38 169 38 185 38 201 38 217 38 233 38 249 38 16 \012DELTAP3[ ]	/* DeltaExceptionP3 */\012PUSHW[ ]	/* 3 values pushed */\01212 38 94 \012SRP1[ ]	/* SetRefPoint1 */\012SRP2[ ]	/* SetRefPoint2 */\012IP[ ]	/* InterpolatePts */\012NPUSHW[ ]	/* 5 values pushed */\012106 16 122 16 2 \012DELTAP2[ ]	/* DeltaExceptionP2 */\012NPUSHW[ ]	/* 33 values pushed */\0129 16 25 16 41 16 57 16 73 16 89 16 105 16 121 16 137 16 153 16 169 16 185 16 201 16 217 16 233 16 249 16 16 \012DELTAP1[ ]	/* DeltaExceptionP1 */\012NPUSHW[ ]	/* 13 values pushed */\0129 16 25 16 41 16 57 16 73 16 89 16 6 \012DELTAP2[ ]	/* DeltaExceptionP2 */\012PUSHW[ ]	/* 3 values pushed */\01220 102 28 \012SRP1[ ]	/* SetRefPoint1 */\012SRP2[ ]	/* SetRefPoint2 */\012IP[ ]	/* InterpolatePts */\012PUSHW[ ]	/* 1 value pushed */\01294 \012SRP0[ ]	/* SetRefPoint0 */\012PUSHW[ ]	/* 1 value pushed */\01226 \012MDRP[10000]	/* MoveDirectRelPt */\012PUSHW[ ]	/* 1 value pushed */\01226 \012MDAP[1]	/* MoveDirectAbsPt */\012PUSHW[ ]	/* 3 values pushed */\01248 102 28 \012SRP1[ ]	/* SetRefPoint1 */\012SRP2[ ]	/* SetRefPoint2 */\012IP[ ]	/* InterpolatePts */\012NPUSHW[ ]	/* 33 values pushed */\0126 63 22 63 38 63 54 63 70 63 86 63 102 63 118 63 134 63 150 63 166 63 182 63 198 63 214 63 230 63 246 63 16 \012DELTAP1[ ]	/* DeltaExceptionP1 */\012NPUSHW[ ]	/* 13 values pushed */\0126 63 22 63 38 63 54 63 70 63 86 63 6 \012DELTAP2[ ]	/* DeltaExceptionP2 */\012NPUSHW[ ]	/* 5 values pushed */\012101 63 117 63 2 \012DELTAP2[ ]	/* DeltaExceptionP2 */\012PUSHW[ ]	/* 3 values pushed */\01292 102 28 \012SRP1[ ]	/* SetRefPoint1 */\012SRP2[ ]	/* SetRefPoint2 */\012IP[ ]	/* InterpolatePts */\012PUSHW[ ]	/* 1 value pushed */\01228 \012SRP0[ ]	/* SetRefPoint0 */\012PUSHW[ ]	/* 1 value pushed */\012119 \012MDRP[11100]	/* MoveDirectRelPt */\012SVTCA[0]	/* SetFreedomAndProjectionVectorToAxis */\012PUSHW[ ]	/* 4 values pushed */\01267 4 98 4 \012CALL[ ]	/* CallFunction */\012PUSHW[ ]	/* 4 values pushed */\012110 1 6 4 \012CALL[ ]	/* CallFunction */\012PUSHW[ ]	/* 4 values pushed */\012114 4 18 4 \012CALL[ ]	/* CallFunction */\012PUSHW[ ]	/* 4 values pushed */\01284 4 71 4 \012CALL[ ]	/* CallFunction */\012PUSHW[ ]	/* 3 values pushed */\0124 18 114 \012SRP1[ ]	/* SetRefPoint1 */\012SRP2[ ]	/* SetRefPoint2 */\012IP[ ]	/* InterpolatePts */\012PUSHW[ ]	/* 1 value pushed */\01284 \012SRP0[ ]	/* SetRefPoint0 */\012PUSHW[ ]	/* 1 value pushed */\01282 \012MDRP[10000]	/* MoveDirectRelPt */\012PUSHW[ ]	/* 1 value pushed */\01282 \012MDAP[1]	/* MoveDirectAbsPt */\012PUSHW[ ]	/* 1 value pushed */\01271 \012SRP0[ ]	/* SetRefPoint0 */\012PUSHW[ ]	/* 1 value pushed */\01292 \012MDRP[10000]	/* MoveDirectRelPt */\012PUSHW[ ]	/* 1 value pushed */\01292 \012MDAP[1]	/* MoveDirectAbsPt */\012IUP[0]	/* InterpolateUntPts */\012IUP[1]	/* InterpolateUntPts */";
};
width = 644;
}
);
leftKerningGroup = O;
note = G;
rightKerningGroup = G;
unicode = 0047;
},
{
glyphname = H;
lastChange = "2021-10-05 05:06:59 +0000";
layers = (
{
anchors = (
{
name = bottom;
position = "{438, 0}";
},
{
name = center;
position = "{438, 238}";
},
{
name = top;
position = "{734, 475}";
},
{
name = topleft;
position = "{20, 475}";
}
);
layerId = "0CF23081-C341-41E4-8FF8-6B151438961F";
paths = (
{
closed = 1;
nodes = (
"254 -68 OFFCURVE",
"325 -45 OFFCURVE",
"388 0 CURVE SMOOTH",
"423 25 OFFCURVE",
"454 54 OFFCURVE",
"483 86 CURVE",
"508 87 OFFCURVE",
"532 96 OFFCURVE",
"554 113 CURVE SMOOTH",
"574 129 OFFCURVE",
"588 147 OFFCURVE",
"595 168 CURVE SMOOTH",
"596 171 OFFCURVE",
"594 173 OFFCURVE",
"591 173 CURVE SMOOTH",
"590 173 OFFCURVE",
"589 172 OFFCURVE",
"588 170 CURVE SMOOTH",
"581 152 OFFCURVE",
"569 136 OFFCURVE",
"552 121 CURVE SMOOTH",
"533 106 OFFCURVE",
"512 97 OFFCURVE",
"489 94 CURVE",
"526 137 OFFCURVE",
"557 186 OFFCURVE",
"584 243 CURVE",
"612 240 OFFCURVE",
"654 231 OFFCURVE",
"709 216 CURVE",
"690 154 OFFCURVE",
"681 103 OFFCURVE",
"681 63 CURVE SMOOTH",
"681 44 OFFCURVE",
"684 28 OFFCURVE",
"696 13 CURVE SMOOTH",
"706 -2 OFFCURVE",
"719 -9 OFFCURVE",
"734 -9 CURVE SMOOTH",
"745 -9 OFFCURVE",
"756 -5 OFFCURVE",
"768 3 CURVE",
"771 6 OFFCURVE",
"773 9 OFFCURVE",
"773 12 CURVE SMOOTH",
"773 15 OFFCURVE",
"772 16 OFFCURVE",
"770 16 CURVE SMOOTH",
"769 16 OFFCURVE",
"767 15 OFFCURVE",
"764 13 CURVE SMOOTH",
"754 6 OFFCURVE",
"745 2 OFFCURVE",
"738 2 CURVE SMOOTH",
"718 2 OFFCURVE",
"708 21 OFFCURVE",
"708 60 CURVE SMOOTH",
"708 73 LINE",
"712 110 OFFCURVE",
"723 155 OFFCURVE",
"741 208 CURVE",
"783 195 OFFCURVE",
"804 180 OFFCURVE",
"804 164 CURVE SMOOTH",
"804 159 OFFCURVE",
"802 155 OFFCURVE",
"798 150 CURVE SMOOTH",
"794 145 OFFCURVE",
"792 141 OFFCURVE",
"792 139 CURVE SMOOTH",
"792 137 OFFCURVE",
"793 136 OFFCURVE",
"794 136 CURVE SMOOTH",
"797 136 OFFCURVE",
"801 138 OFFCURVE",
"804 142 CURVE SMOOTH",
"813 151 OFFCURVE",
"818 161 OFFCURVE",
"818 170 CURVE SMOOTH",
"818 192 OFFCURVE",
"795 212 OFFCURVE",
"748 229 CURVE",
"769 284 LINE SMOOTH",
"786 329 OFFCURVE",
"813 375 OFFCURVE",
"846 424 CURVE SMOOTH",
"893 493 OFFCURVE",
"936 528 OFFCURVE",
"973 528 CURVE SMOOTH",
"988 528 OFFCURVE",
"1003 521 OFFCURVE",
"1016 508 CURVE SMOOTH",
"1021 503 OFFCURVE",
"1024 501 OFFCURVE",
"1026 501 CURVE SMOOTH",
"1028 501 OFFCURVE",
"1029 502 OFFCURVE",
"1029 505 CURVE SMOOTH",
"1029 512 OFFCURVE",
"1026 518 OFFCURVE",
"1020 521 CURVE SMOOTH",
"999 534 OFFCURVE",
"978 541 OFFCURVE",
"956 541 CURVE SMOOTH",
"907 541 OFFCURVE",
"860 509 OFFCURVE",
"814 444 CURVE SMOOTH",
"775 390 OFFCURVE",
"743 322 OFFCURVE",
"716 239 CURVE",
"669 253 OFFCURVE",
"629 263 OFFCURVE",
"596 268 CURVE",
"616 315 OFFCURVE",
"625 361 OFFCURVE",
"623 406 CURVE SMOOTH",
"622 431 OFFCURVE",
"609 444 OFFCURVE",
"584 444 CURVE SMOOTH",
"563 444 OFFCURVE",
"542 438 OFFCURVE",
"521 425 CURVE",
"510 471 OFFCURVE",
"485 499 OFFCURVE",
"445 510 CURVE SMOOTH",
"435 512 OFFCURVE",
"426 514 OFFCURVE",
"416 514 CURVE SMOOTH",
"389 514 OFFCURVE",
"362 504 OFFCURVE",
"335 484 CURVE SMOOTH",
"290 450 OFFCURVE",
"266 399 OFFCURVE",
"266 333 CURVE SMOOTH",
"266 310 OFFCURVE",
"269 287 OFFCURVE",
"276 264 CURVE",
"248 260 OFFCURVE",
"222 254 OFFCURVE",
"198 246 CURVE SMOOTH",
"136 228 OFFCURVE",
"87 200 OFFCURVE",
"51 163 CURVE SMOOTH",
"18 128 OFFCURVE",
"1 92 OFFCURVE",
"1 54 CURVE SMOOTH",
"1 39 OFFCURVE",
"4 25 OFFCURVE",
"9 11 CURVE SMOOTH",
"30 -38 OFFCURVE",
"96 -68 OFFCURVE",
"177 -68 CURVE",
"177 -68 LINE"
);
},
{
closed = 1;
nodes = (
"104 -54 OFFCURVE",
"51 -26 OFFCURVE",
"36 19 CURVE SMOOTH",
"34 27 OFFCURVE",
"33 35 OFFCURVE",
"33 44 CURVE SMOOTH",
"33 77 OFFCURVE",
"49 110 OFFCURVE",
"80 142 CURVE SMOOTH",
"113 175 OFFCURVE",
"159 201 OFFCURVE",
"216 219 CURVE SMOOTH",
"237 226 OFFCURVE",
"260 231 OFFCURVE",
"285 236 CURVE",
"310 174 OFFCURVE",
"348 130 OFFCURVE",
"401 104 CURVE",
"330 19 OFFCURVE",
"249 -24 OFFCURVE",
"156 -24 CURVE SMOOTH",
"152 -24 OFFCURVE",
"145 -22 OFFCURVE",
"135 -19 CURVE SMOOTH",
"122 -15 OFFCURVE",
"113 -10 OFFCURVE",
"108 -4 CURVE",
"107 -2 OFFCURVE",
"105 -2 OFFCURVE",
"103 -3 CURVE",
"102 -5 OFFCURVE",
"102 -7 OFFCURVE",
"103 -9 CURVE",
"109 -16 OFFCURVE",
"119 -21 OFFCURVE",
"133 -26 CURVE SMOOTH",
"144 -29 OFFCURVE",
"151 -31 OFFCURVE",
"156 -31 CURVE SMOOTH",
"251 -31 OFFCURVE",
"336 13 OFFCURVE",
"410 100 CURVE",
"421 95 OFFCURVE",
"433 92 OFFCURVE",
"444 89 CURVE",
"423 65 OFFCURVE",
"400 43 OFFCURVE",
"375 23 CURVE SMOOTH",
"313 -28 OFFCURVE",
"245 -54 OFFCURVE",
"172 -54 CURVE",
"172 -54 LINE"
);
},
{
closed = 1;
nodes = (
"357 135 OFFCURVE",
"321 178 OFFCURVE",
"299 239 CURVE",
"356 248 OFFCURVE",
"417 252 OFFCURVE",
"484 251 CURVE",
"465 199 OFFCURVE",
"439 152 OFFCURVE",
"406 111 CURVE",
"406 111 LINE"
);
},
{
closed = 1;
nodes = (
"438 98 OFFCURVE",
"427 101 OFFCURVE",
"416 106 CURVE",
"451 149 OFFCURVE",
"478 197 OFFCURVE",
"498 250 CURVE",
"544 248 LINE",
"517 189 OFFCURVE",
"485 138 OFFCURVE",
"449 96 CURVE",
"449 96 LINE"
);
},
{
closed = 1;
nodes = (
"285 289 OFFCURVE",
"283 311 OFFCURVE",
"283 333 CURVE SMOOTH",
"283 389 OFFCURVE",
"301 434 OFFCURVE",
"334 468 CURVE SMOOTH",
"361 493 OFFCURVE",
"390 506 OFFCURVE",
"421 506 CURVE SMOOTH",
"446 506 OFFCURVE",
"467 496 OFFCURVE",
"484 477 CURVE SMOOTH",
"502 455 OFFCURVE",
"511 424 OFFCURVE",
"511 385 CURVE SMOOTH",
"511 352 OFFCURVE",
"505 315 OFFCURVE",
"493 276 CURVE",
"474 277 OFFCURVE",
"455 277 OFFCURVE",
"437 277 CURVE SMOOTH",
"385 277 OFFCURVE",
"337 274 OFFCURVE",
"291 267 CURVE",
"291 267 LINE"
);
},
{
closed = 1;
nodes = (
"507 275 LINE",
"511 288 OFFCURVE",
"515 302 OFFCURVE",
"518 316 CURVE SMOOTH",
"523 340 OFFCURVE",
"526 362 OFFCURVE",
"526 383 CURVE SMOOTH",
"526 395 OFFCURVE",
"525 406 OFFCURVE",
"523 417 CURVE",
"534 423 OFFCURVE",
"543 426 OFFCURVE",
"551 426 CURVE SMOOTH",
"570 426 OFFCURVE",
"578 414 OFFCURVE",
"578 389 CURVE SMOOTH",
"578 352 OFFCURVE",
"570 312 OFFCURVE",
"554 271 CURVE",
"554 271 LINE"
);
}
);
userData = {
assembly = "PUSHW[ ]	/* 4 values pushed */\012134 8 39 4 \012CALL[ ]	/* CallFunction */\012PUSHW[ ]	/* 3 values pushed */\01257 2 3 \012CALL[ ]	/* CallFunction */\012PUSHW[ ]	/* 4 values pushed */\01298 5 114 4 \012CALL[ ]	/* CallFunction */\012PUSHW[ ]	/* 4 values pushed */\01283 6 92 4 \012CALL[ ]	/* CallFunction */\012NPUSHW[ ]	/* 5 values pushed */\012218 2 234 2 2 \012DELTAP1[ ]	/* DeltaExceptionP1 */\012NPUSHW[ ]	/* 27 values pushed */\0129 2 25 2 41 2 57 2 73 2 89 2 105 2 121 2 137 2 153 2 169 2 185 2 201 2 13 \012DELTAP1[ ]	/* DeltaExceptionP1 */\012PUSHW[ ]	/* 1 value pushed */\01257 \012SRP0[ ]	/* SetRefPoint0 */\012PUSHW[ ]	/* 2 values pushed */\01222 8 \012MIRP[10100]	/* MoveIndirectRelPt */\012PUSHW[ ]	/* 3 values pushed */\01253 2 57 \012SRP1[ ]	/* SetRefPoint1 */\012SRP2[ ]	/* SetRefPoint2 */\012IP[ ]	/* InterpolatePts */\012NPUSHW[ ]	/* 33 values pushed */\0129 92 25 92 41 92 57 92 73 92 89 92 105 92 121 92 137 92 153 92 169 92 185 92 201 92 217 92 233 92 249 92 16 \012DELTAP1[ ]	/* DeltaExceptionP1 */\012NPUSHW[ ]	/* 33 values pushed */\0129 92 25 92 41 92 57 92 73 92 89 92 105 92 121 92 137 92 153 92 169 92 185 92 201 92 217 92 233 92 249 92 16 \012DELTAP2[ ]	/* DeltaExceptionP2 */\012NPUSHW[ ]	/* 33 values pushed */\0129 92 25 92 41 92 57 92 73 92 89 92 105 92 121 92 137 92 153 92 169 92 185 92 201 92 217 92 233 92 249 92 16 \012DELTAP3[ ]	/* DeltaExceptionP3 */\012PUSHW[ ]	/* 1 value pushed */\01298 \012SRP0[ ]	/* SetRefPoint0 */\012PUSHW[ ]	/* 1 value pushed */\01296 \012MDRP[10000]	/* MoveDirectRelPt */\012PUSHW[ ]	/* 1 value pushed */\01296 \012MDAP[1]	/* MoveDirectAbsPt */\012NPUSHW[ ]	/* 5 values pushed */\012106 114 122 114 2 \012DELTAP2[ ]	/* DeltaExceptionP2 */\012NPUSHW[ ]	/* 33 values pushed */\0129 114 25 114 41 114 57 114 73 114 89 114 105 114 121 114 137 114 153 114 169 114 185 114 201 114 217 114 233 114 249 114 16 \012DELTAP1[ ]	/* DeltaExceptionP1 */\012NPUSHW[ ]	/* 13 values pushed */\0129 114 25 114 41 114 57 114 73 114 89 114 6 \012DELTAP2[ ]	/* DeltaExceptionP2 */\012PUSHW[ ]	/* 3 values pushed */\012120 39 83 \012SRP1[ ]	/* SetRefPoint1 */\012SRP2[ ]	/* SetRefPoint2 */\012IP[ ]	/* InterpolatePts */\012NPUSHW[ ]	/* 33 values pushed */\0126 134 22 134 38 134 54 134 70 134 86 134 102 134 118 134 134 134 150 134 166 134 182 134 198 134 214 134 230 134 246 134 16 \012DELTAP1[ ]	/* DeltaExceptionP1 */\012NPUSHW[ ]	/* 13 values pushed */\0126 134 22 134 38 134 54 134 70 134 86 134 6 \012DELTAP2[ ]	/* DeltaExceptionP2 */\012NPUSHW[ ]	/* 5 values pushed */\012101 134 117 134 2 \012DELTAP2[ ]	/* DeltaExceptionP2 */\012PUSHW[ ]	/* 3 values pushed */\012143 39 83 \012SRP1[ ]	/* SetRefPoint1 */\012SRP2[ ]	/* SetRefPoint2 */\012IP[ ]	/* InterpolatePts */\012PUSHW[ ]	/* 3 values pushed */\012163 39 83 \012SRP1[ ]	/* SetRefPoint1 */\012SRP2[ ]	/* SetRefPoint2 */\012IP[ ]	/* InterpolatePts */\012PUSHW[ ]	/* 3 values pushed */\012169 2 57 \012SRP1[ ]	/* SetRefPoint1 */\012SRP2[ ]	/* SetRefPoint2 */\012IP[ ]	/* InterpolatePts */\012PUSHW[ ]	/* 3 values pushed */\012173 39 83 \012SRP1[ ]	/* SetRefPoint1 */\012SRP2[ ]	/* SetRefPoint2 */\012IP[ ]	/* InterpolatePts */\012PUSHW[ ]	/* 1 value pushed */\01283 \012SRP0[ ]	/* SetRefPoint0 */\012PUSHW[ ]	/* 1 value pushed */\012178 \012MDRP[11100]	/* MoveDirectRelPt */\012SVTCA[0]	/* SetFreedomAndProjectionVectorToAxis */\012PUSHW[ ]	/* 1 value pushed */\01265 \012MDAP[1]	/* MoveDirectAbsPt */\012PUSHW[ ]	/* 4 values pushed */\012139 1 34 4 \012CALL[ ]	/* CallFunction */\012PUSHW[ ]	/* 4 values pushed */\01255 3 24 4 \012CALL[ ]	/* CallFunction */\012PUSHW[ ]	/* 4 values pushed */\0120 4 163 4 \012CALL[ ]	/* CallFunction */\012PUSHW[ ]	/* 1 value pushed */\0120 \012SRP0[ ]	/* SetRefPoint0 */\012PUSHW[ ]	/* 1 value pushed */\01218 \012MDRP[10000]	/* MoveDirectRelPt */\012PUSHW[ ]	/* 1 value pushed */\01218 \012MDAP[1]	/* MoveDirectAbsPt */\012PUSHW[ ]	/* 1 value pushed */\0120 \012SRP0[ ]	/* SetRefPoint0 */\012PUSHW[ ]	/* 1 value pushed */\01220 \012MDRP[10000]	/* MoveDirectRelPt */\012PUSHW[ ]	/* 1 value pushed */\01220 \012MDAP[1]	/* MoveDirectAbsPt */\012PUSHW[ ]	/* 1 value pushed */\012163 \012SRP0[ ]	/* SetRefPoint0 */\012PUSHW[ ]	/* 1 value pushed */\012169 \012MDRP[10000]	/* MoveDirectRelPt */\012PUSHW[ ]	/* 1 value pushed */\012169 \012MDAP[1]	/* MoveDirectAbsPt */\012PUSHW[ ]	/* 1 value pushed */\012163 \012SRP0[ ]	/* SetRefPoint0 */\012PUSHW[ ]	/* 1 value pushed */\012171 \012MDRP[10000]	/* MoveDirectRelPt */\012PUSHW[ ]	/* 1 value pushed */\012171 \012MDAP[1]	/* MoveDirectAbsPt */\012IUP[0]	/* InterpolateUntPts */\012IUP[1]	/* InterpolateUntPts */";
};
width = 876;
}
);
leftKerningGroup = H;
note = H;
rightKerningGroup = H;
unicode = 0048;
},
{
glyphname = I;
lastChange = "2021-10-05 05:06:45 +0000";
layers = (
{
anchors = (
{
name = bottom;
position = "{108, -87}";
},
{
name = ogonek;
position = "{146, -81}";
},
{
name = top;
position = "{428, 497}";
},
{
name = topleft;
position = "{20, 475}";
}
);
layerId = "0CF23081-C341-41E4-8FF8-6B151438961F";
paths = (
{
closed = 1;
nodes = (
"167 -87 OFFCURVE",
"208 -72 OFFCURVE",
"249 -41 CURVE SMOOTH",
"296 -7 OFFCURVE",
"337 42 OFFCURVE",
"373 107 CURVE",
"400 113 OFFCURVE",
"425 126 OFFCURVE",
"446 146 CURVE SMOOTH",
"467 164 OFFCURVE",
"480 184 OFFCURVE",
"486 205 CURVE",
"488 208 OFFCURVE",
"486 209 OFFCURVE",
"482 209 CURVE SMOOTH",
"480 209 OFFCURVE",
"479 208 OFFCURVE",
"478 206 CURVE",
"473 187 OFFCURVE",
"461 170 OFFCURVE",
"443 153 CURVE SMOOTH",
"424 135 OFFCURVE",
"402 123 OFFCURVE",
"378 116 CURVE",
"395 147 OFFCURVE",
"410 182 OFFCURVE",
"424 219 CURVE SMOOTH",
"451 292 OFFCURVE",
"464 353 OFFCURVE",
"464 401 CURVE SMOOTH",
"464 441 OFFCURVE",
"454 471 OFFCURVE",
"435 490 CURVE SMOOTH",
"428 497 OFFCURVE",
"419 501 OFFCURVE",
"410 501 CURVE SMOOTH",
"399 501 OFFCURVE",
"386 496 OFFCURVE",
"373 485 CURVE",
"357 511 OFFCURVE",
"334 524 OFFCURVE",
"304 524 CURVE SMOOTH",
"269 524 OFFCURVE",
"236 508 OFFCURVE",
"207 476 CURVE SMOOTH",
"171 437 OFFCURVE",
"153 386 OFFCURVE",
"153 325 CURVE SMOOTH",
"153 279 OFFCURVE",
"163 237 OFFCURVE",
"182 199 CURVE SMOOTH",
"206 152 OFFCURVE",
"242 122 OFFCURVE",
"289 109 CURVE",
"237 25 OFFCURVE",
"172 -32 OFFCURVE",
"93 -62 CURVE",
"57 -50 OFFCURVE",
"39 -18 OFFCURVE",
"39 33 CURVE SMOOTH",
"39 46 OFFCURVE",
"40 61 OFFCURVE",
"43 77 CURVE SMOOTH",
"55 144 OFFCURVE",
"88 201 OFFCURVE",
"143 249 CURVE SMOOTH",
"146 252 OFFCURVE",
"148 255 OFFCURVE",
"148 257 CURVE SMOOTH",
"148 260 OFFCURVE",
"146 261 OFFCURVE",
"141 261 CURVE SMOOTH",
"140 261 OFFCURVE",
"139 261 OFFCURVE",
"138 260 CURVE SMOOTH",
"70 203 OFFCURVE",
"30 141 OFFCURVE",
"17 76 CURVE SMOOTH",
"14 62 OFFCURVE",
"13 49 OFFCURVE",
"13 36 CURVE SMOOTH",
"13 -14 OFFCURVE",
"31 -50 OFFCURVE",
"66 -71 CURVE",
"41 -77 LINE SMOOTH",
"30 -80 OFFCURVE",
"-3 -72 OFFCURVE",
"-16 -67 CURVE",
"-19 -67 OFFCURVE",
"-20 -68 OFFCURVE",
"-20 -71 CURVE SMOOTH",
"-20 -72 OFFCURVE",
"-20 -73 OFFCURVE",
"-19 -74 CURVE",
"-12 -78 OFFCURVE",
"-2 -81 OFFCURVE",
"11 -84 CURVE",
"24 -85 OFFCURVE",
"35 -85 OFFCURVE",
"43 -84 CURVE SMOOTH",
"54 -82 OFFCURVE",
"64 -79 OFFCURVE",
"75 -76 CURVE",
"90 -83 OFFCURVE",
"108 -87 OFFCURVE",
"127 -87 CURVE",
"127 -87 LINE"
);
},
{
closed = 1;
nodes = (
"116 -66 OFFCURVE",
"110 -65 OFFCURVE",
"105 -64 CURVE",
"182 -33 OFFCURVE",
"246 24 OFFCURVE",
"299 107 CURVE",
"309 105 OFFCURVE",
"320 104 OFFCURVE",
"331 103 CURVE",
"320 83 OFFCURVE",
"309 65 OFFCURVE",
"298 48 CURVE SMOOTH",
"273 13 OFFCURVE",
"244 -15 OFFCURVE",
"211 -36 CURVE SMOOTH",
"180 -56 OFFCURVE",
"150 -66 OFFCURVE",
"121 -66 CURVE",
"121 -66 LINE"
);
},
{
closed = 1;
nodes = (
"251 127 OFFCURVE",
"218 154 OFFCURVE",
"196 195 CURVE SMOOTH",
"176 232 OFFCURVE",
"166 276 OFFCURVE",
"166 326 CURVE SMOOTH",
"166 371 OFFCURVE",
"177 412 OFFCURVE",
"199 450 CURVE SMOOTH",
"226 495 OFFCURVE",
"260 517 OFFCURVE",
"302 517 CURVE SMOOTH",
"329 517 OFFCURVE",
"350 504 OFFCURVE",
"364 478 CURVE",
"319 434 OFFCURVE",
"276 341 OFFCURVE",
"276 284 CURVE SMOOTH",
"276 253 OFFCURVE",
"287 238 OFFCURVE",
"308 238 CURVE SMOOTH",
"320 238 OFFCURVE",
"326 240 OFFCURVE",
"326 244 CURVE SMOOTH",
"326 245 OFFCURVE",
"325 246 OFFCURVE",
"324 246 CURVE",
"327 245 OFFCURVE",
"323 245 OFFCURVE",
"314 245 CURVE SMOOTH",
"309 245 OFFCURVE",
"305 248 OFFCURVE",
"302 255 CURVE SMOOTH",
"299 261 OFFCURVE",
"297 270 OFFCURVE",
"297 281 CURVE SMOOTH",
"297 308 OFFCURVE",
"304 341 OFFCURVE",
"319 380 CURVE SMOOTH",
"334 421 OFFCURVE",
"350 450 OFFCURVE",
"369 468 CURVE",
"376 449 OFFCURVE",
"380 425 OFFCURVE",
"380 398 CURVE SMOOTH",
"380 354 OFFCURVE",
"371 305 OFFCURVE",
"354 251 CURVE SMOOTH",
"339 202 OFFCURVE",
"319 157 OFFCURVE",
"294 116 CURVE",
"294 116 LINE"
);
},
{
closed = 1;
nodes = (
"323 111 OFFCURVE",
"313 112 OFFCURVE",
"303 114 CURVE",
"346 184 OFFCURVE",
"374 260 OFFCURVE",
"387 341 CURVE SMOOTH",
"390 362 OFFCURVE",
"392 381 OFFCURVE",
"392 399 CURVE SMOOTH",
"392 429 OFFCURVE",
"387 454 OFFCURVE",
"378 475 CURVE",
"379 476 LINE SMOOTH",
"385 482 OFFCURVE",
"392 483 OFFCURVE",
"397 483 CURVE SMOOTH",
"403 483 OFFCURVE",
"408 481 OFFCURVE",
"411 476 CURVE SMOOTH",
"421 461 OFFCURVE",
"426 440 OFFCURVE",
"426 413 CURVE SMOOTH",
"426 366 OFFCURVE",
"412 305 OFFCURVE",
"385 229 CURVE SMOOTH",
"369 184 OFFCURVE",
"352 144 OFFCURVE",
"334 111 CURVE",
"334 111 LINE"
);
}
);
userData = {
assembly = "PUSHW[ ]	/* 4 values pushed */\012120 5 106 4 \012CALL[ ]	/* CallFunction */\012PUSHW[ ]	/* 3 values pushed */\0124 128 3 \012CALL[ ]	/* CallFunction */\012PUSHW[ ]	/* 3 values pushed */\01267 32 3 \012CALL[ ]	/* CallFunction */\012PUSHW[ ]	/* 3 values pushed */\0120 106 67 \012SRP1[ ]	/* SetRefPoint1 */\012SRP2[ ]	/* SetRefPoint2 */\012IP[ ]	/* InterpolatePts */\012NPUSHW[ ]	/* 27 values pushed */\0126 4 22 4 38 4 54 4 70 4 86 4 102 4 118 4 134 4 150 4 166 4 182 4 198 4 13 \012DELTAP1[ ]	/* DeltaExceptionP1 */\012NPUSHW[ ]	/* 5 values pushed */\012213 4 229 4 2 \012DELTAP1[ ]	/* DeltaExceptionP1 */\012PUSHW[ ]	/* 1 value pushed */\0124 \012SRP0[ ]	/* SetRefPoint0 */\012PUSHW[ ]	/* 2 values pushed */\01215 7 \012MIRP[10100]	/* MoveIndirectRelPt */\012NPUSHW[ ]	/* 5 values pushed */\012218 32 234 32 2 \012DELTAP1[ ]	/* DeltaExceptionP1 */\012NPUSHW[ ]	/* 27 values pushed */\0129 32 25 32 41 32 57 32 73 32 89 32 105 32 121 32 137 32 153 32 169 32 185 32 201 32 13 \012DELTAP1[ ]	/* DeltaExceptionP1 */\012PUSHW[ ]	/* 1 value pushed */\01267 \012SRP0[ ]	/* SetRefPoint0 */\012PUSHW[ ]	/* 2 values pushed */\01238 8 \012MIRP[10100]	/* MoveIndirectRelPt */\012PUSHW[ ]	/* 3 values pushed */\01251 106 67 \012SRP1[ ]	/* SetRefPoint1 */\012SRP2[ ]	/* SetRefPoint2 */\012IP[ ]	/* InterpolatePts */\012PUSHW[ ]	/* 3 values pushed */\01253 106 67 \012SRP1[ ]	/* SetRefPoint1 */\012SRP2[ ]	/* SetRefPoint2 */\012IP[ ]	/* InterpolatePts */\012PUSHW[ ]	/* 3 values pushed */\01261 106 67 \012SRP1[ ]	/* SetRefPoint1 */\012SRP2[ ]	/* SetRefPoint2 */\012IP[ ]	/* InterpolatePts */\012PUSHW[ ]	/* 3 values pushed */\01271 106 67 \012SRP1[ ]	/* SetRefPoint1 */\012SRP2[ ]	/* SetRefPoint2 */\012IP[ ]	/* InterpolatePts */\012PUSHW[ ]	/* 3 values pushed */\012104 106 67 \012SRP1[ ]	/* SetRefPoint1 */\012SRP2[ ]	/* SetRefPoint2 */\012IP[ ]	/* InterpolatePts */\012NPUSHW[ ]	/* 33 values pushed */\0126 120 22 120 38 120 54 120 70 120 86 120 102 120 118 120 134 120 150 120 166 120 182 120 198 120 214 120 230 120 246 120 16 \012DELTAP1[ ]	/* DeltaExceptionP1 */\012NPUSHW[ ]	/* 13 values pushed */\0126 120 22 120 38 120 54 120 70 120 86 120 6 \012DELTAP2[ ]	/* DeltaExceptionP2 */\012NPUSHW[ ]	/* 5 values pushed */\012101 120 117 120 2 \012DELTAP2[ ]	/* DeltaExceptionP2 */\012PUSHW[ ]	/* 3 values pushed */\012124 128 4 \012SRP1[ ]	/* SetRefPoint1 */\012SRP2[ ]	/* SetRefPoint2 */\012IP[ ]	/* InterpolatePts */\012PUSHW[ ]	/* 1 value pushed */\01267 \012SRP0[ ]	/* SetRefPoint0 */\012PUSHW[ ]	/* 1 value pushed */\012139 \012MDRP[11100]	/* MoveDirectRelPt */\012SVTCA[0]	/* SetFreedomAndProjectionVectorToAxis */\012PUSHW[ ]	/* 1 value pushed */\012132 \012MDAP[1]	/* MoveDirectAbsPt */\012PUSHW[ ]	/* 4 values pushed */\01255 4 87 4 \012CALL[ ]	/* CallFunction */\012PUSHW[ ]	/* 1 value pushed */\01287 \012SRP0[ ]	/* SetRefPoint0 */\012PUSHW[ ]	/* 1 value pushed */\01293 \012MDRP[10000]	/* MoveDirectRelPt */\012PUSHW[ ]	/* 1 value pushed */\01293 \012MDAP[1]	/* MoveDirectAbsPt */\012PUSHW[ ]	/* 1 value pushed */\01255 \012SRP0[ ]	/* SetRefPoint0 */\012PUSHW[ ]	/* 1 value pushed */\01299 \012MDRP[10000]	/* MoveDirectRelPt */\012PUSHW[ ]	/* 1 value pushed */\01299 \012MDAP[1]	/* MoveDirectAbsPt */\012PUSHW[ ]	/* 3 values pushed */\012104 87 55 \012SRP1[ ]	/* SetRefPoint1 */\012SRP2[ ]	/* SetRefPoint2 */\012IP[ ]	/* InterpolatePts */\012IUP[0]	/* InterpolateUntPts */\012IUP[1]	/* InterpolateUntPts */";
};
width = 446;
}
);
leftKerningGroup = H;
note = I;
rightKerningGroup = H;
unicode = 0049;
},
{
glyphname = J;
lastChange = "2021-10-05 05:06:45 +0000";
layers = (
{
anchors = (
{
name = bottom;
position = "{223, 0}";
},
{
name = top;
position = "{460, 513}";
}
);
layerId = "0CF23081-C341-41E4-8FF8-6B151438961F";
paths = (
{
closed = 1;
nodes = (
"65 -186 OFFCURVE",
"109 -175 OFFCURVE",
"154 -153 CURVE SMOOTH",
"197 -134 OFFCURVE",
"235 -108 OFFCURVE",
"270 -76 CURVE SMOOTH",
"337 -15 OFFCURVE",
"388 62 OFFCURVE",
"421 153 CURVE SMOOTH",
"452 236 OFFCURVE",
"473 328 OFFCURVE",
"483 429 CURVE",
"522 427 OFFCURVE",
"545 420 OFFCURVE",
"551 408 CURVE SMOOTH",
"552 405 OFFCURVE",
"554 404 OFFCURVE",
"557 404 CURVE SMOOTH",
"560 404 OFFCURVE",
"562 406 OFFCURVE",
"562 409 CURVE SMOOTH",
"562 410 OFFCURVE",
"562 412 OFFCURVE",
"561 413 CURVE",
"551 434 OFFCURVE",
"526 447 OFFCURVE",
"485 453 CURVE",
"487 473 OFFCURVE",
"488 490 OFFCURVE",
"488 503 CURVE SMOOTH",
"487 510 OFFCURVE",
"484 514 OFFCURVE",
"477 514 CURVE SMOOTH",
"466 514 OFFCURVE",
"451 503 OFFCURVE",
"451 496 CURVE SMOOTH",
"451 484 OFFCURVE",
"450 471 OFFCURVE",
"449 456 CURVE",
"428 457 OFFCURVE",
"405 456 OFFCURVE",
"380 453 CURVE",
"364 499 OFFCURVE",
"336 522 OFFCURVE",
"294 522 CURVE SMOOTH",
"236 522 OFFCURVE",
"174 459 OFFCURVE",
"174 388 CURVE SMOOTH",
"174 384 LINE",
"137 359 OFFCURVE",
"119 333 OFFCURVE",
"119 305 CURVE SMOOTH",
"119 285 OFFCURVE",
"127 269 OFFCURVE",
"143 259 CURVE SMOOTH",
"150 255 OFFCURVE",
"154 256 OFFCURVE",
"154 261 CURVE SMOOTH",
"154 262 OFFCURVE",
"153 264 OFFCURVE",
"150 266 CURVE SMOOTH",
"141 272 OFFCURVE",
"135 284 OFFCURVE",
"135 301 CURVE SMOOTH",
"135 321 OFFCURVE",
"148 340 OFFCURVE",
"173 358 CURVE",
"175 327 OFFCURVE",
"185 298 OFFCURVE",
"203 273 CURVE SMOOTH",
"222 245 OFFCURVE",
"247 224 OFFCURVE",
"280 211 CURVE",
"282 209 OFFCURVE",
"286 211 OFFCURVE",
"286 215 CURVE SMOOTH",
"286 216 OFFCURVE",
"285 217 OFFCURVE",
"283 218 CURVE SMOOTH",
"251 231 OFFCURVE",
"227 252 OFFCURVE",
"211 281 CURVE SMOOTH",
"196 307 OFFCURVE",
"189 336 OFFCURVE",
"189 368 CURVE",
"235 394 OFFCURVE",
"297 412 OFFCURVE",
"374 423 CURVE",
"377 406 OFFCURVE",
"378 389 OFFCURVE",
"378 370 CURVE SMOOTH",
"378 323 OFFCURVE",
"370 271 OFFCURVE",
"352 212 CURVE SMOOTH",
"327 126 OFFCURVE",
"290 52 OFFCURVE",
"243 -9 CURVE SMOOTH",
"190 -78 OFFCURVE",
"131 -117 OFFCURVE",
"68 -126 CURVE",
"64 -129 LINE",
"64 -133 LINE",
"65 -134 OFFCURVE",
"66 -134 OFFCURVE",
"68 -134 CURVE SMOOTH",
"129 -127 OFFCURVE",
"185 -95 OFFCURVE",
"238 -36 CURVE SMOOTH",
"285 15 OFFCURVE",
"322 80 OFFCURVE",
"351 158 CURVE SMOOTH",
"379 233 OFFCURVE",
"393 302 OFFCURVE",
"393 367 CURVE SMOOTH",
"393 388 OFFCURVE",
"391 408 OFFCURVE",
"388 425 CURVE",
"409 428 OFFCURVE",
"428 429 OFFCURVE",
"447 429 CURVE",
"436 335 OFFCURVE",
"415 245 OFFCURVE",
"383 159 CURVE SMOOTH",
"344 52 OFFCURVE",
"288 -32 OFFCURVE",
"216 -93 CURVE SMOOTH",
"156 -143 OFFCURVE",
"99 -168 OFFCURVE",
"44 -168 CURVE SMOOTH",
"-2 -168 OFFCURVE",
"-31 -145 OFFCURVE",
"-31 -107 CURVE SMOOTH",
"-31 -60 OFFCURVE",
"1 -15 OFFCURVE",
"62 28 CURVE SMOOTH",
"109 61 OFFCURVE",
"168 89 OFFCURVE",
"237 112 CURVE SMOOTH",
"245 115 OFFCURVE",
"249 117 OFFCURVE",
"249 119 CURVE SMOOTH",
"249 121 OFFCURVE",
"247 122 OFFCURVE",
"243 122 CURVE SMOOTH",
"240 122 OFFCURVE",
"236 122 OFFCURVE",
"233 121 CURVE SMOOTH",
"153 94 OFFCURVE",
"87 64 OFFCURVE",
"36 31 CURVE SMOOTH",
"-34 -15 OFFCURVE",
"-69 -63 OFFCURVE",
"-69 -112 CURVE SMOOTH",
"-69 -156 OFFCURVE",
"-33 -186 OFFCURVE",
"24 -186 CURVE",
"24 -186 LINE"
);
},
{
closed = 1;
nodes = (
"198 432 OFFCURVE",
"211 461 OFFCURVE",
"232 484 CURVE SMOOTH",
"251 504 OFFCURVE",
"271 514 OFFCURVE",
"294 514 CURVE SMOOTH",
"330 514 OFFCURVE",
"354 494 OFFCURVE",
"368 452 CURVE",
"331 446 LINE SMOOTH",
"280 438 OFFCURVE",
"233 420 OFFCURVE",
"192 396 CURVE",
"192 396 LINE"
);
}
);
userData = {
assembly = "PUSHW[ ]	/* 4 values pushed */\01280 7 92 4 \012CALL[ ]	/* CallFunction */\012NPUSHW[ ]	/* 33 values pushed */\0126 80 22 80 38 80 54 80 70 80 86 80 102 80 118 80 134 80 150 80 166 80 182 80 198 80 214 80 230 80 246 80 16 \012DELTAP1[ ]	/* DeltaExceptionP1 */\012NPUSHW[ ]	/* 33 values pushed */\0126 80 22 80 38 80 54 80 70 80 86 80 102 80 118 80 134 80 150 80 166 80 182 80 198 80 214 80 230 80 246 80 16 \012DELTAP2[ ]	/* DeltaExceptionP2 */\012NPUSHW[ ]	/* 33 values pushed */\0126 80 22 80 38 80 54 80 70 80 86 80 102 80 118 80 134 80 150 80 166 80 182 80 198 80 214 80 230 80 246 80 16 \012DELTAP3[ ]	/* DeltaExceptionP3 */\012PUSHW[ ]	/* 1 value pushed */\01280 \012SRP0[ ]	/* SetRefPoint0 */\012PUSHW[ ]	/* 1 value pushed */\0126 \012MDRP[10000]	/* MoveDirectRelPt */\012PUSHW[ ]	/* 1 value pushed */\0126 \012MDAP[1]	/* MoveDirectAbsPt */\012PUSHW[ ]	/* 1 value pushed */\01292 \012SRP0[ ]	/* SetRefPoint0 */\012PUSHW[ ]	/* 1 value pushed */\012104 \012MDRP[10000]	/* MoveDirectRelPt */\012PUSHW[ ]	/* 1 value pushed */\012104 \012MDAP[1]	/* MoveDirectAbsPt */\012SVTCA[0]	/* SetFreedomAndProjectionVectorToAxis */\012PUSHW[ ]	/* 4 values pushed */\01250 3 30 4 \012CALL[ ]	/* CallFunction */\012PUSHW[ ]	/* 3 values pushed */\012117 22 3 \012CALL[ ]	/* CallFunction */\012PUSHW[ ]	/* 1 value pushed */\012117 \012SRP0[ ]	/* SetRefPoint0 */\012PUSHW[ ]	/* 1 value pushed */\0122 \012MDRP[10000]	/* MoveDirectRelPt */\012PUSHW[ ]	/* 1 value pushed */\0122 \012MDAP[1]	/* MoveDirectAbsPt */\012PUSHW[ ]	/* 1 value pushed */\01222 \012SRP0[ ]	/* SetRefPoint0 */\012PUSHW[ ]	/* 1 value pushed */\01256 \012MDRP[10000]	/* MoveDirectRelPt */\012PUSHW[ ]	/* 1 value pushed */\01222 \012SRP0[ ]	/* SetRefPoint0 */\012PUSHW[ ]	/* 1 value pushed */\01258 \012MDRP[10000]	/* MoveDirectRelPt */\012PUSHW[ ]	/* 1 value pushed */\01258 \012MDAP[1]	/* MoveDirectAbsPt */\012IUP[0]	/* InterpolateUntPts */\012IUP[1]	/* InterpolateUntPts */";
};
width = 446;
}
);
leftKerningGroup = J;
note = J;
rightKerningGroup = J;
unicode = 004A;
},
{
glyphname = K;
lastChange = "2021-10-05 05:06:59 +0000";
layers = (
{
anchors = (
{
name = bottom;
position = "{381, 0}";
},
{
name = top;
position = "{381, 475}";
}
);
layerId = "0CF23081-C341-41E4-8FF8-6B151438961F";
paths = (
{
closed = 1;
nodes = (
"709 -53 OFFCURVE",
"713 -49 OFFCURVE",
"716 -40 CURVE SMOOTH",
"721 -21 OFFCURVE",
"724 -2 OFFCURVE",
"724 16 CURVE SMOOTH",
"724 84 OFFCURVE",
"686 140 OFFCURVE",
"609 185 CURVE SMOOTH",
"555 216 OFFCURVE",
"486 241 OFFCURVE",
"402 258 CURVE",
"478 290 OFFCURVE",
"542 327 OFFCURVE",
"594 369 CURVE SMOOTH",
"652 416 OFFCURVE",
"685 461 OFFCURVE",
"692 504 CURVE SMOOTH",
"693 510 LINE SMOOTH",
"693 515 OFFCURVE",
"692 517 OFFCURVE",
"689 517 CURVE SMOOTH",
"686 517 OFFCURVE",
"682 512 OFFCURVE",
"679 503 CURVE SMOOTH",
"655 431 OFFCURVE",
"517 329 OFFCURVE",
"362 265 CURVE",
"344 268 LINE",
"400 375 OFFCURVE",
"433 437 OFFCURVE",
"443 453 CURVE",
"446 456 OFFCURVE",
"447 460 OFFCURVE",
"447 464 CURVE SMOOTH",
"447 471 OFFCURVE",
"442 474 OFFCURVE",
"433 474 CURVE SMOOTH",
"414 474 OFFCURVE",
"399 466 OFFCURVE",
"388 451 CURVE",
"369 411 LINE",
"309 273 LINE",
"269 276 LINE",
"292 338 OFFCURVE",
"304 390 OFFCURVE",
"304 433 CURVE SMOOTH",
"304 472 OFFCURVE",
"295 502 OFFCURVE",
"277 524 CURVE SMOOTH",
"261 545 OFFCURVE",
"240 555 OFFCURVE",
"215 555 CURVE SMOOTH",
"184 555 OFFCURVE",
"157 540 OFFCURVE",
"134 511 CURVE SMOOTH",
"106 476 OFFCURVE",
"91 429 OFFCURVE",
"91 369 CURVE SMOOTH",
"91 339 OFFCURVE",
"96 307 OFFCURVE",
"106 272 CURVE",
"55 263 OFFCURVE",
"29 248 OFFCURVE",
"29 227 CURVE SMOOTH",
"29 206 OFFCURVE",
"60 189 OFFCURVE",
"103 186 CURVE",
"139 187 LINE",
"150 165 OFFCURVE",
"163 146 OFFCURVE",
"177 129 CURVE",
"158 105 OFFCURVE",
"137 84 OFFCURVE",
"114 65 CURVE",
"113 63 LINE",
"113 60 OFFCURVE",
"115 58 OFFCURVE",
"118 58 CURVE SMOOTH",
"121 58 OFFCURVE",
"132 68 OFFCURVE",
"151 87 CURVE SMOOTH",
"166 102 OFFCURVE",
"176 113 OFFCURVE",
"183 122 CURVE",
"192 111 OFFCURVE",
"201 102 OFFCURVE",
"211 94 CURVE",
"173 41 OFFCURVE",
"138 17 OFFCURVE",
"107 17 CURVE SMOOTH",
"71 17 OFFCURVE",
"42 44 OFFCURVE",
"42 74 CURVE SMOOTH",
"42 77 OFFCURVE",
"43 82 OFFCURVE",
"44 87 CURVE SMOOTH",
"45 92 OFFCURVE",
"46 95 OFFCURVE",
"46 97 CURVE SMOOTH",
"46 101 OFFCURVE",
"44 103 OFFCURVE",
"41 103 CURVE SMOOTH",
"35 103 OFFCURVE",
"31 100 OFFCURVE",
"30 93 CURVE SMOOTH",
"29 88 OFFCURVE",
"29 83 OFFCURVE",
"29 78 CURVE SMOOTH",
"29 30 OFFCURVE",
"65 -3 OFFCURVE",
"111 -3 CURVE SMOOTH",
"148 -3 OFFCURVE",
"188 24 OFFCURVE",
"231 79 CURVE",
"264 58 OFFCURVE",
"300 47 OFFCURVE",
"339 47 CURVE SMOOTH",
"368 47 OFFCURVE",
"387 54 OFFCURVE",
"397 68 CURVE SMOOTH",
"398 70 OFFCURVE",
"398 72 OFFCURVE",
"395 74 CURVE SMOOTH",
"393 75 OFFCURVE",
"391 75 OFFCURVE",
"390 74 CURVE SMOOTH",
"381 61 OFFCURVE",
"363 54 OFFCURVE",
"337 54 CURVE SMOOTH",
"300 54 OFFCURVE",
"266 65 OFFCURVE",
"235 86 CURVE",
"261 120 OFFCURVE",
"290 167 OFFCURVE",
"323 228 CURVE",
"345 236 LINE",
"443 218 OFFCURVE",
"524 190 OFFCURVE",
"589 153 CURVE SMOOTH",
"667 108 OFFCURVE",
"706 57 OFFCURVE",
"706 -1 CURVE SMOOTH",
"706 -14 OFFCURVE",
"704 -26 OFFCURVE",
"700 -39 CURVE",
"699 -46 LINE SMOOTH",
"699 -51 OFFCURVE",
"701 -53 OFFCURVE",
"704 -53 CURVE",
"704 -53 LINE"
);
},
{
closed = 1;
nodes = (
"81 210 OFFCURVE",
"71 215 OFFCURVE",
"71 226 CURVE SMOOTH",
"71 237 OFFCURVE",
"85 248 OFFCURVE",
"106 251 CURVE",
"111 253 LINE",
"116 238 OFFCURVE",
"122 223 OFFCURVE",
"128 209 CURVE",
"118 208 OFFCURVE",
"109 208 OFFCURVE",
"100 209 CURVE",
"100 209 LINE"
);
},
{
closed = 1;
nodes = (
"171 151 OFFCURVE",
"160 169 OFFCURVE",
"151 188 CURVE",
"173 190 OFFCURVE",
"197 194 OFFCURVE",
"222 199 CURVE",
"210 176 OFFCURVE",
"197 155 OFFCURVE",
"183 136 CURVE",
"183 136 LINE"
);
},
{
closed = 1;
nodes = (
"206 109 OFFCURVE",
"197 118 OFFCURVE",
"188 129 CURVE",
"205 151 OFFCURVE",
"221 175 OFFCURVE",
"236 202 CURVE",
"281 214 LINE",
"258 167 OFFCURVE",
"237 129 OFFCURVE",
"216 100 CURVE",
"216 100 LINE"
);
},
{
closed = 1;
nodes = (
"134 224 OFFCURVE",
"129 239 OFFCURVE",
"124 254 CURVE",
"140 256 OFFCURVE",
"159 256 OFFCURVE",
"179 256 CURVE SMOOTH",
"200 256 OFFCURVE",
"222 256 OFFCURVE",
"247 254 CURVE",
"243 244 OFFCURVE",
"239 234 OFFCURVE",
"234 225 CURVE",
"193 216 OFFCURVE",
"162 211 OFFCURVE",
"141 209 CURVE",
"141 209 LINE"
);
},
{
closed = 1;
nodes = (
"252 236 OFFCURVE",
"256 244 OFFCURVE",
"259 253 CURVE",
"277 252 OFFCURVE",
"286 249 OFFCURVE",
"286 244 CURVE SMOOTH",
"286 239 OFFCURVE",
"273 233 OFFCURVE",
"248 228 CURVE",
"248 228 LINE"
);
},
{
closed = 1;
nodes = (
"111 307 OFFCURVE",
"107 338 OFFCURVE",
"107 366 CURVE SMOOTH",
"107 425 OFFCURVE",
"120 470 OFFCURVE",
"144 504 CURVE SMOOTH",
"164 532 OFFCURVE",
"187 546 OFFCURVE",
"214 546 CURVE SMOOTH",
"235 546 OFFCURVE",
"252 537 OFFCURVE",
"266 518 CURVE SMOOTH",
"281 497 OFFCURVE",
"288 468 OFFCURVE",
"288 432 CURVE SMOOTH",
"288 390 OFFCURVE",
"277 339 OFFCURVE",
"256 278 CURVE",
"238 279 OFFCURVE",
"220 280 OFFCURVE",
"203 280 CURVE SMOOTH",
"173 280 OFFCURVE",
"145 278 OFFCURVE",
"119 274 CURVE",
"119 274 LINE"
);
}
);
userData = {
assembly = "PUSHW[ ]	/* 4 values pushed */\01292 6 83 4 \012CALL[ ]	/* CallFunction */\012PUSHW[ ]	/* 4 values pushed */\01210 7 120 4 \012CALL[ ]	/* CallFunction */\012PUSHW[ ]	/* 4 values pushed */\012128 7 2 4 \012CALL[ ]	/* CallFunction */\012PUSHW[ ]	/* 4 values pushed */\01248 7 58 4 \012CALL[ ]	/* CallFunction */\012NPUSHW[ ]	/* 33 values pushed */\0126 10 22 10 38 10 54 10 70 10 86 10 102 10 118 10 134 10 150 10 166 10 182 10 198 10 214 10 230 10 246 10 16 \012DELTAP1[ ]	/* DeltaExceptionP1 */\012NPUSHW[ ]	/* 33 values pushed */\0126 10 22 10 38 10 54 10 70 10 86 10 102 10 118 10 134 10 150 10 166 10 182 10 198 10 214 10 230 10 246 10 16 \012DELTAP2[ ]	/* DeltaExceptionP2 */\012NPUSHW[ ]	/* 33 values pushed */\0126 10 22 10 38 10 54 10 70 10 86 10 102 10 118 10 134 10 150 10 166 10 182 10 198 10 214 10 230 10 246 10 16 \012DELTAP3[ ]	/* DeltaExceptionP3 */\012PUSHW[ ]	/* 3 values pushed */\01214 83 48 \012SRP1[ ]	/* SetRefPoint1 */\012SRP2[ ]	/* SetRefPoint2 */\012IP[ ]	/* InterpolatePts */\012PUSHW[ ]	/* 3 values pushed */\01216 83 48 \012SRP1[ ]	/* SetRefPoint1 */\012SRP2[ ]	/* SetRefPoint2 */\012IP[ ]	/* InterpolatePts */\012PUSHW[ ]	/* 3 values pushed */\01218 83 48 \012SRP1[ ]	/* SetRefPoint1 */\012SRP2[ ]	/* SetRefPoint2 */\012IP[ ]	/* InterpolatePts */\012PUSHW[ ]	/* 3 values pushed */\01222 83 48 \012SRP1[ ]	/* SetRefPoint1 */\012SRP2[ ]	/* SetRefPoint2 */\012IP[ ]	/* InterpolatePts */\012PUSHW[ ]	/* 3 values pushed */\01230 83 48 \012SRP1[ ]	/* SetRefPoint1 */\012SRP2[ ]	/* SetRefPoint2 */\012IP[ ]	/* InterpolatePts */\012PUSHW[ ]	/* 3 values pushed */\01244 83 48 \012SRP1[ ]	/* SetRefPoint1 */\012SRP2[ ]	/* SetRefPoint2 */\012IP[ ]	/* InterpolatePts */\012NPUSHW[ ]	/* 33 values pushed */\0129 58 25 58 41 58 57 58 73 58 89 58 105 58 121 58 137 58 153 58 169 58 185 58 201 58 217 58 233 58 249 58 16 \012DELTAP1[ ]	/* DeltaExceptionP1 */\012NPUSHW[ ]	/* 33 values pushed */\0129 58 25 58 41 58 57 58 73 58 89 58 105 58 121 58 137 58 153 58 169 58 185 58 201 58 217 58 233 58 249 58 16 \012DELTAP2[ ]	/* DeltaExceptionP2 */\012NPUSHW[ ]	/* 33 values pushed */\0129 58 25 58 41 58 57 58 73 58 89 58 105 58 121 58 137 58 153 58 169 58 185 58 201 58 217 58 233 58 249 58 16 \012DELTAP3[ ]	/* DeltaExceptionP3 */\012NPUSHW[ ]	/* 33 values pushed */\0126 92 22 92 38 92 54 92 70 92 86 92 102 92 118 92 134 92 150 92 166 92 182 92 198 92 214 92 230 92 246 92 16 \012DELTAP1[ ]	/* DeltaExceptionP1 */\012NPUSHW[ ]	/* 33 values pushed */\0126 92 22 92 38 92 54 92 70 92 86 92 102 92 118 92 134 92 150 92 166 92 182 92 198 92 214 92 230 92 246 92 16 \012DELTAP2[ ]	/* DeltaExceptionP2 */\012NPUSHW[ ]	/* 33 values pushed */\0126 92 22 92 38 92 54 92 70 92 86 92 102 92 118 92 134 92 150 92 166 92 182 92 198 92 214 92 230 92 246 92 16 \012DELTAP3[ ]	/* DeltaExceptionP3 */\012PUSHW[ ]	/* 1 value pushed */\01292 \012SRP0[ ]	/* SetRefPoint0 */\012PUSHW[ ]	/* 1 value pushed */\01289 \012MDRP[10000]	/* MoveDirectRelPt */\012PUSHW[ ]	/* 1 value pushed */\01289 \012MDAP[1]	/* MoveDirectAbsPt */\012PUSHW[ ]	/* 1 value pushed */\01283 \012SRP0[ ]	/* SetRefPoint0 */\012PUSHW[ ]	/* 1 value pushed */\012116 \012MDRP[10000]	/* MoveDirectRelPt */\012PUSHW[ ]	/* 1 value pushed */\012116 \012MDAP[1]	/* MoveDirectAbsPt */\012NPUSHW[ ]	/* 33 values pushed */\0126 128 22 128 38 128 54 128 70 128 86 128 102 128 118 128 134 128 150 128 166 128 182 128 198 128 214 128 230 128 246 128 16 \012DELTAP1[ ]	/* DeltaExceptionP1 */\012NPUSHW[ ]	/* 33 values pushed */\0126 128 22 128 38 128 54 128 70 128 86 128 102 128 118 128 134 128 150 128 166 128 182 128 198 128 214 128 230 128 246 128 16 \012DELTAP2[ ]	/* DeltaExceptionP2 */\012NPUSHW[ ]	/* 33 values pushed */\0126 128 22 128 38 128 54 128 70 128 86 128 102 128 118 128 134 128 150 128 166 128 182 128 198 128 214 128 230 128 246 128 16 \012DELTAP3[ ]	/* DeltaExceptionP3 */\012PUSHW[ ]	/* 3 values pushed */\012130 83 48 \012SRP1[ ]	/* SetRefPoint1 */\012SRP2[ ]	/* SetRefPoint2 */\012IP[ ]	/* InterpolatePts */\012PUSHW[ ]	/* 3 values pushed */\012142 83 48 \012SRP1[ ]	/* SetRefPoint1 */\012SRP2[ ]	/* SetRefPoint2 */\012IP[ ]	/* InterpolatePts */\012PUSHW[ ]	/* 1 value pushed */\0122 \012SRP0[ ]	/* SetRefPoint0 */\012PUSHW[ ]	/* 1 value pushed */\012144 \012MDRP[10000]	/* MoveDirectRelPt */\012PUSHW[ ]	/* 1 value pushed */\012144 \012MDAP[1]	/* MoveDirectAbsPt */\012PUSHW[ ]	/* 1 value pushed */\01283 \012SRP0[ ]	/* SetRefPoint0 */\012PUSHW[ ]	/* 2 values pushed */\012151 8 \012MIRP[10100]	/* MoveIndirectRelPt */\012PUSHW[ ]	/* 3 values pushed */\012155 83 48 \012SRP1[ ]	/* SetRefPoint1 */\012SRP2[ ]	/* SetRefPoint2 */\012IP[ ]	/* InterpolatePts */\012PUSHW[ ]	/* 3 values pushed */\012158 83 48 \012SRP1[ ]	/* SetRefPoint1 */\012SRP2[ ]	/* SetRefPoint2 */\012IP[ ]	/* InterpolatePts */\012PUSHW[ ]	/* 1 value pushed */\01248 \012SRP0[ ]	/* SetRefPoint0 */\012PUSHW[ ]	/* 1 value pushed */\012167 \012MDRP[11100]	/* MoveDirectRelPt */\012SVTCA[0]	/* SetFreedomAndProjectionVectorToAxis */\012PUSHW[ ]	/* 1 value pushed */\01252 \012MDAP[1]	/* MoveDirectAbsPt */\012PUSHW[ ]	/* 1 value pushed */\0120 \012RCVT[ ]	/* ReadCVT */\012IF[ ]	/* If */\012PUSHW[ ]	/* 1 value pushed */\012124 \012MDAP[1]	/* MoveDirectAbsPt */\012ELSE[ ]	/* Else */\012PUSHW[ ]	/* 2 values pushed */\012124 15 \012MIAP[0]	/* MoveIndirectAbsPt */\012EIF[ ]	/* EndIf */\012PUSHW[ ]	/* 1 value pushed */\0120 \012RCVT[ ]	/* ReadCVT */\012IF[ ]	/* If */\012PUSHW[ ]	/* 1 value pushed */\012153 \012MDAP[1]	/* MoveDirectAbsPt */\012ELSE[ ]	/* Else */\012PUSHW[ ]	/* 2 values pushed */\012153 13 \012MIAP[0]	/* MoveIndirectAbsPt */\012EIF[ ]	/* EndIf */\012PUSHW[ ]	/* 1 value pushed */\0120 \012RCVT[ ]	/* ReadCVT */\012IF[ ]	/* If */\012PUSHW[ ]	/* 1 value pushed */\012155 \012MDAP[1]	/* MoveDirectAbsPt */\012ELSE[ ]	/* Else */\012PUSHW[ ]	/* 2 values pushed */\012155 13 \012MIAP[0]	/* MoveIndirectAbsPt */\012EIF[ ]	/* EndIf */\012PUSHW[ ]	/* 1 value pushed */\0120 \012RCVT[ ]	/* ReadCVT */\012IF[ ]	/* If */\012PUSHW[ ]	/* 1 value pushed */\012162 \012MDAP[1]	/* MoveDirectAbsPt */\012ELSE[ ]	/* Else */\012PUSHW[ ]	/* 2 values pushed */\012162 13 \012MIAP[0]	/* MoveIndirectAbsPt */\012EIF[ ]	/* EndIf */\012PUSHW[ ]	/* 4 values pushed */\0120 4 158 4 \012CALL[ ]	/* CallFunction */\012PUSHW[ ]	/* 1 value pushed */\0120 \012SRP0[ ]	/* SetRefPoint0 */\012PUSHW[ ]	/* 1 value pushed */\01212 \012MDRP[10000]	/* MoveDirectRelPt */\012PUSHW[ ]	/* 1 value pushed */\01212 \012MDAP[1]	/* MoveDirectAbsPt */\012PUSHW[ ]	/* 3 values pushed */\01214 52 124 \012SRP1[ ]	/* SetRefPoint1 */\012SRP2[ ]	/* SetRefPoint2 */\012IP[ ]	/* InterpolatePts */\012PUSHW[ ]	/* 1 value pushed */\012162 \012SRP0[ ]	/* SetRefPoint0 */\012PUSHW[ ]	/* 2 values pushed */\01218 4 \012MIRP[10100]	/* MoveIndirectRelPt */\012NPUSHW[ ]	/* 33 values pushed */\0128 18 24 18 40 18 56 18 72 18 88 18 104 18 120 18 136 18 152 18 168 18 184 18 200 18 216 18 232 18 248 18 16 \012DELTAP1[ ]	/* DeltaExceptionP1 */\012NPUSHW[ ]	/* 33 values pushed */\0128 18 24 18 40 18 56 18 72 18 88 18 104 18 120 18 136 18 152 18 168 18 184 18 200 18 216 18 232 18 248 18 16 \012DELTAP2[ ]	/* DeltaExceptionP2 */\012NPUSHW[ ]	/* 33 values pushed */\0128 18 24 18 40 18 56 18 72 18 88 18 104 18 120 18 136 18 152 18 168 18 184 18 200 18 216 18 232 18 248 18 16 \012DELTAP3[ ]	/* DeltaExceptionP3 */\012PUSHW[ ]	/* 3 values pushed */\01216 162 18 \012SRP1[ ]	/* SetRefPoint1 */\012SRP2[ ]	/* SetRefPoint2 */\012IP[ ]	/* InterpolatePts */\012PUSHW[ ]	/* 3 values pushed */\01222 52 124 \012SRP1[ ]	/* SetRefPoint1 */\012SRP2[ ]	/* SetRefPoint2 */\012IP[ ]	/* InterpolatePts */\012PUSHW[ ]	/* 3 values pushed */\01230 158 0 \012SRP1[ ]	/* SetRefPoint1 */\012SRP2[ ]	/* SetRefPoint2 */\012IP[ ]	/* InterpolatePts */\012PUSHW[ ]	/* 1 value pushed */\012158 \012SRP0[ ]	/* SetRefPoint0 */\012PUSHW[ ]	/* 1 value pushed */\01244 \012MDRP[10000]	/* MoveDirectRelPt */\012PUSHW[ ]	/* 1 value pushed */\01244 \012MDAP[1]	/* MoveDirectAbsPt */\012PUSHW[ ]	/* 1 value pushed */\01218 \012SRP0[ ]	/* SetRefPoint0 */\012PUSHW[ ]	/* 1 value pushed */\012111 \012MDRP[10000]	/* MoveDirectRelPt */\012PUSHW[ ]	/* 1 value pushed */\012111 \012MDAP[1]	/* MoveDirectAbsPt */\012PUSHW[ ]	/* 1 value pushed */\012113 \012MDRP[10000]	/* MoveDirectRelPt */\012PUSHW[ ]	/* 1 value pushed */\0120 \012SRP0[ ]	/* SetRefPoint0 */\012PUSHW[ ]	/* 1 value pushed */\012130 \012MDRP[10000]	/* MoveDirectRelPt */\012PUSHW[ ]	/* 1 value pushed */\012130 \012MDAP[1]	/* MoveDirectAbsPt */\012PUSHW[ ]	/* 3 values pushed */\012142 52 124 \012SRP1[ ]	/* SetRefPoint1 */\012SRP2[ ]	/* SetRefPoint2 */\012IP[ ]	/* InterpolatePts */\012PUSHW[ ]	/* 1 value pushed */\012158 \012SRP0[ ]	/* SetRefPoint0 */\012PUSHW[ ]	/* 1 value pushed */\012146 \012MDRP[10000]	/* MoveDirectRelPt */\012PUSHW[ ]	/* 1 value pushed */\012146 \012MDAP[1]	/* MoveDirectAbsPt */\012PUSHW[ ]	/* 1 value pushed */\012158 \012SRP0[ ]	/* SetRefPoint0 */\012PUSHW[ ]	/* 1 value pushed */\012148 \012MDRP[10000]	/* MoveDirectRelPt */\012PUSHW[ ]	/* 1 value pushed */\012148 \012MDAP[1]	/* MoveDirectAbsPt */\012PUSHW[ ]	/* 1 value pushed */\012158 \012SRP0[ ]	/* SetRefPoint0 */\012PUSHW[ ]	/* 1 value pushed */\012160 \012MDRP[10000]	/* MoveDirectRelPt */\012PUSHW[ ]	/* 1 value pushed */\012160 \012MDAP[1]	/* MoveDirectAbsPt */\012IUP[0]	/* InterpolateUntPts */\012IUP[1]	/* InterpolateUntPts */";
};
width = 761;
}
);
leftKerningGroup = H;
note = K;
rightKerningGroup = K;
unicode = 004B;
},
{
glyphname = L;
lastChange = "2021-10-05 05:06:45 +0000";
layers = (
{
anchors = (
{
name = bottom;
position = "{438, -91}";
},
{
name = center;
position = "{351, 238}";
},
{
name = top;
position = "{643, 534}";
},
{
name = topright;
position = "{769, 541}";
}
);
layerId = "0CF23081-C341-41E4-8FF8-6B151438961F";
paths = (
{
closed = 1;
nodes = (
"653 -118 OFFCURVE",
"694 -90 OFFCURVE",
"694 -34 CURVE SMOOTH",
"694 -15 OFFCURVE",
"680 5 OFFCURVE",
"651 27 CURVE SMOOTH",
"650 28 OFFCURVE",
"648 29 OFFCURVE",
"646 29 CURVE SMOOTH",
"644 29 OFFCURVE",
"642 28 OFFCURVE",
"643 25 CURVE SMOOTH",
"644 20 LINE",
"651 12 OFFCURVE",
"657 3 OFFCURVE",
"664 -6 CURVE SMOOTH",
"672 -16 OFFCURVE",
"676 -26 OFFCURVE",
"676 -35 CURVE SMOOTH",
"676 -70 OFFCURVE",
"648 -88 OFFCURVE",
"593 -88 CURVE SMOOTH",
"536 -88 OFFCURVE",
"449 -62 OFFCURVE",
"331 -9 CURVE",
"362 11 OFFCURVE",
"403 75 OFFCURVE",
"428 140 CURVE",
"511 143 OFFCURVE",
"582 174 OFFCURVE",
"639 233 CURVE SMOOTH",
"698 294 OFFCURVE",
"728 369 OFFCURVE",
"728 459 CURVE SMOOTH",
"728 479 OFFCURVE",
"722 499 OFFCURVE",
"711 518 CURVE SMOOTH",
"697 539 OFFCURVE",
"681 549 OFFCURVE",
"662 549 CURVE SMOOTH",
"636 549 OFFCURVE",
"612 544 OFFCURVE",
"590 534 CURVE",
"580 539 OFFCURVE",
"568 541 OFFCURVE",
"554 541 CURVE SMOOTH",
"513 541 OFFCURVE",
"477 515 OFFCURVE",
"446 463 CURVE SMOOTH",
"426 428 OFFCURVE",
"407 378 OFFCURVE",
"389 314 CURVE SMOOTH",
"366 233 OFFCURVE",
"350 182 OFFCURVE",
"341 161 CURVE",
"296 172 OFFCURVE",
"262 193 OFFCURVE",
"238 226 CURVE SMOOTH",
"215 256 OFFCURVE",
"203 290 OFFCURVE",
"203 328 CURVE SMOOTH",
"203 358 OFFCURVE",
"210 386 OFFCURVE",
"225 412 CURVE SMOOTH",
"240 439 OFFCURVE",
"262 461 OFFCURVE",
"290 477 CURVE SMOOTH",
"292 478 OFFCURVE",
"293 480 OFFCURVE",
"293 482 CURVE SMOOTH",
"293 486 OFFCURVE",
"291 488 OFFCURVE",
"287 488 CURVE SMOOTH",
"284 488 LINE",
"220 452 OFFCURVE",
"183 386 OFFCURVE",
"183 319 CURVE SMOOTH",
"183 278 OFFCURVE",
"195 243 OFFCURVE",
"219 213 CURVE SMOOTH",
"247 180 OFFCURVE",
"286 159 OFFCURVE",
"336 148 CURVE",
"315 99 OFFCURVE",
"290 61 OFFCURVE",
"263 34 CURVE",
"256 39 OFFCURVE",
"231 59 OFFCURVE",
"186 94 CURVE SMOOTH",
"157 117 OFFCURVE",
"135 133 OFFCURVE",
"118 143 CURVE SMOOTH",
"96 155 OFFCURVE",
"77 161 OFFCURVE",
"60 161 CURVE SMOOTH",
"47 161 OFFCURVE",
"34 157 OFFCURVE",
"24 149 CURVE SMOOTH",
"4 134 OFFCURVE",
"-6 110 OFFCURVE",
"-6 76 CURVE SMOOTH",
"-6 46 OFFCURVE",
"2 21 OFFCURVE",
"18 0 CURVE SMOOTH",
"35 -22 OFFCURVE",
"59 -39 OFFCURVE",
"92 -50 CURVE SMOOTH",
"120 -60 OFFCURVE",
"150 -65 OFFCURVE",
"182 -65 CURVE SMOOTH",
"222 -65 OFFCURVE",
"265 -52 OFFCURVE",
"309 -24 CURVE",
"388 -65 OFFCURVE",
"430 -86 OFFCURVE",
"435 -88 CURVE SMOOTH",
"482 -108 OFFCURVE",
"527 -118 OFFCURVE",
"570 -118 CURVE",
"570 -118 LINE"
);
},
{
closed = 1;
nodes = (
"134 -44 OFFCURVE",
"108 -39 OFFCURVE",
"85 -29 CURVE SMOOTH",
"36 -8 OFFCURVE",
"11 40 OFFCURVE",
"11 73 CURVE SMOOTH",
"11 102 OFFCURVE",
"25 116 OFFCURVE",
"54 116 CURVE SMOOTH",
"76 116 OFFCURVE",
"108 103 OFFCURVE",
"149 76 CURVE SMOOTH",
"236 13 LINE",
"209 -4 OFFCURVE",
"179 -13 OFFCURVE",
"145 -13 CURVE SMOOTH",
"130 -13 OFFCURVE",
"115 -11 OFFCURVE",
"98 -8 CURVE",
"96 -7 OFFCURVE",
"95 -8 OFFCURVE",
"94 -9 CURVE SMOOTH",
"93 -10 OFFCURVE",
"93 -11 OFFCURVE",
"94 -13 CURVE",
"98 -15 LINE",
"115 -20 OFFCURVE",
"131 -22 OFFCURVE",
"148 -22 CURVE SMOOTH",
"182 -22 OFFCURVE",
"214 -12 OFFCURVE",
"245 8 CURVE",
"275 -13 LINE",
"242 -34 OFFCURVE",
"205 -44 OFFCURVE",
"163 -44 CURVE",
"163 -44 LINE"
);
},
{
closed = 1;
nodes = (
"294 12 OFFCURVE",
"283 19 OFFCURVE",
"272 28 CURVE",
"305 57 OFFCURVE",
"332 95 OFFCURVE",
"354 144 CURVE",
"366 142 OFFCURVE",
"378 141 OFFCURVE",
"391 141 CURVE",
"382 115 OFFCURVE",
"369 87 OFFCURVE",
"352 58 CURVE SMOOTH",
"332 25 OFFCURVE",
"316 7 OFFCURVE",
"305 5 CURVE",
"305 5 LINE"
);
},
{
closed = 1;
nodes = (
"395 153 LINE",
"383 154 OFFCURVE",
"371 155 OFFCURVE",
"359 156 CURVE",
"370 184 OFFCURVE",
"385 234 OFFCURVE",
"404 307 CURVE SMOOTH",
"421 372 OFFCURVE",
"439 421 OFFCURVE",
"456 455 CURVE SMOOTH",
"483 508 OFFCURVE",
"516 534 OFFCURVE",
"556 534 CURVE",
"565 533 OFFCURVE",
"573 532 OFFCURVE",
"581 529 CURVE",
"540 508 OFFCURVE",
"507 469 OFFCURVE",
"482 412 CURVE SMOOTH",
"472 388 OFFCURVE",
"457 346 OFFCURVE",
"438 285 CURVE SMOOTH",
"413 208 OFFCURVE",
"399 165 OFFCURVE",
"396 156 CURVE SMOOTH",
"395 153 LINE"
);
},
{
closed = 1;
nodes = (
"451 210 LINE SMOOTH",
"481 295 OFFCURVE",
"508 363 OFFCURVE",
"531 412 CURVE SMOOTH",
"551 456 OFFCURVE",
"576 490 OFFCURVE",
"606 513 CURVE",
"615 502 OFFCURVE",
"620 487 OFFCURVE",
"620 470 CURVE SMOOTH",
"620 448 OFFCURVE",
"613 426 OFFCURVE",
"599 404 CURVE SMOOTH",
"584 381 OFFCURVE",
"564 363 OFFCURVE",
"539 352 CURVE SMOOTH",
"537 351 OFFCURVE",
"537 349 OFFCURVE",
"538 347 CURVE SMOOTH",
"539 345 OFFCURVE",
"540 344 OFFCURVE",
"543 345 CURVE SMOOTH",
"570 356 OFFCURVE",
"592 373 OFFCURVE",
"609 396 CURVE SMOOTH",
"624 418 OFFCURVE",
"631 441 OFFCURVE",
"631 464 CURVE SMOOTH",
"631 486 OFFCURVE",
"625 504 OFFCURVE",
"613 518 CURVE",
"629 529 OFFCURVE",
"643 534 OFFCURVE",
"656 534 CURVE SMOOTH",
"686 534 OFFCURVE",
"701 508 OFFCURVE",
"701 456 CURVE SMOOTH",
"701 379 OFFCURVE",
"675 311 OFFCURVE",
"624 251 CURVE SMOOTH",
"571 190 OFFCURVE",
"506 157 OFFCURVE",
"431 153 CURVE",
"431 153 LINE"
);
}
);
userData = {
assembly = "PUSHW[ ]	/* 4 values pushed */\012160 7 64 4 \012CALL[ ]	/* CallFunction */\012PUSHW[ ]	/* 4 values pushed */\01291 7 78 4 \012CALL[ ]	/* CallFunction */\012PUSHW[ ]	/* 3 values pushed */\01227 127 3 \012CALL[ ]	/* CallFunction */\012PUSHW[ ]	/* 3 values pushed */\0129 64 27 \012SRP1[ ]	/* SetRefPoint1 */\012SRP2[ ]	/* SetRefPoint2 */\012IP[ ]	/* InterpolatePts */\012PUSHW[ ]	/* 3 values pushed */\01223 64 27 \012SRP1[ ]	/* SetRefPoint1 */\012SRP2[ ]	/* SetRefPoint2 */\012IP[ ]	/* InterpolatePts */\012PUSHW[ ]	/* 3 values pushed */\01234 64 27 \012SRP1[ ]	/* SetRefPoint1 */\012SRP2[ ]	/* SetRefPoint2 */\012IP[ ]	/* InterpolatePts */\012NPUSHW[ ]	/* 5 values pushed */\012218 127 234 127 2 \012DELTAP1[ ]	/* DeltaExceptionP1 */\012NPUSHW[ ]	/* 27 values pushed */\0129 127 25 127 41 127 57 127 73 127 89 127 105 127 121 127 137 127 153 127 169 127 185 127 201 127 13 \012DELTAP1[ ]	/* DeltaExceptionP1 */\012PUSHW[ ]	/* 3 values pushed */\01238 127 27 \012SRP1[ ]	/* SetRefPoint1 */\012SRP2[ ]	/* SetRefPoint2 */\012IP[ ]	/* InterpolatePts */\012PUSHW[ ]	/* 1 value pushed */\01238 \012MDAP[1]	/* MoveDirectAbsPt */\012NPUSHW[ ]	/* 33 values pushed */\0129 38 25 38 41 38 57 38 73 38 89 38 105 38 121 38 137 38 153 38 169 38 185 38 201 38 217 38 233 38 249 38 16 \012DELTAP1[ ]	/* DeltaExceptionP1 */\012NPUSHW[ ]	/* 33 values pushed */\0129 38 25 38 41 38 57 38 73 38 89 38 105 38 121 38 137 38 153 38 169 38 185 38 201 38 217 38 233 38 249 38 16 \012DELTAP2[ ]	/* DeltaExceptionP2 */\012NPUSHW[ ]	/* 33 values pushed */\0129 38 25 38 41 38 57 38 73 38 89 38 105 38 121 38 137 38 153 38 169 38 185 38 201 38 217 38 233 38 249 38 16 \012DELTAP3[ ]	/* DeltaExceptionP3 */\012PUSHW[ ]	/* 3 values pushed */\01248 127 27 \012SRP1[ ]	/* SetRefPoint1 */\012SRP2[ ]	/* SetRefPoint2 */\012IP[ ]	/* InterpolatePts */\012PUSHW[ ]	/* 2 values pushed */\01250 7 \012MIRP[10100]	/* MoveIndirectRelPt */\012NPUSHW[ ]	/* 33 values pushed */\0126 91 22 91 38 91 54 91 70 91 86 91 102 91 118 91 134 91 150 91 166 91 182 91 198 91 214 91 230 91 246 91 16 \012DELTAP1[ ]	/* DeltaExceptionP1 */\012NPUSHW[ ]	/* 33 values pushed */\0126 91 22 91 38 91 54 91 70 91 86 91 102 91 118 91 134 91 150 91 166 91 182 91 198 91 214 91 230 91 246 91 16 \012DELTAP2[ ]	/* DeltaExceptionP2 */\012NPUSHW[ ]	/* 33 values pushed */\0126 91 22 91 38 91 54 91 70 91 86 91 102 91 118 91 134 91 150 91 166 91 182 91 198 91 214 91 230 91 246 91 16 \012DELTAP3[ ]	/* DeltaExceptionP3 */\012PUSHW[ ]	/* 1 value pushed */\01227 \012SRP0[ ]	/* SetRefPoint0 */\012PUSHW[ ]	/* 2 values pushed */\012109 5 \012MIRP[10100]	/* MoveIndirectRelPt */\012PUSHW[ ]	/* 3 values pushed */\012134 64 27 \012SRP1[ ]	/* SetRefPoint1 */\012SRP2[ ]	/* SetRefPoint2 */\012IP[ ]	/* InterpolatePts */\012PUSHW[ ]	/* 3 values pushed */\012138 64 27 \012SRP1[ ]	/* SetRefPoint1 */\012SRP2[ ]	/* SetRefPoint2 */\012IP[ ]	/* InterpolatePts */\012PUSHW[ ]	/* 3 values pushed */\012150 64 27 \012SRP1[ ]	/* SetRefPoint1 */\012SRP2[ ]	/* SetRefPoint2 */\012IP[ ]	/* InterpolatePts */\012PUSHW[ ]	/* 3 values pushed */\012154 64 27 \012SRP1[ ]	/* SetRefPoint1 */\012SRP2[ ]	/* SetRefPoint2 */\012IP[ ]	/* InterpolatePts */\012NPUSHW[ ]	/* 33 values pushed */\0126 160 22 160 38 160 54 160 70 160 86 160 102 160 118 160 134 160 150 160 166 160 182 160 198 160 214 160 230 160 246 160 16 \012DELTAP1[ ]	/* DeltaExceptionP1 */\012NPUSHW[ ]	/* 33 values pushed */\0126 160 22 160 38 160 54 160 70 160 86 160 102 160 118 160 134 160 150 160 166 160 182 160 198 160 214 160 230 160 246 160 16 \012DELTAP2[ ]	/* DeltaExceptionP2 */\012NPUSHW[ ]	/* 33 values pushed */\0126 160 22 160 38 160 54 160 70 160 86 160 102 160 118 160 134 160 150 160 166 160 182 160 198 160 214 160 230 160 246 160 16 \012DELTAP3[ ]	/* DeltaExceptionP3 */\012PUSHW[ ]	/* 1 value pushed */\01227 \012SRP0[ ]	/* SetRefPoint0 */\012PUSHW[ ]	/* 1 value pushed */\012168 \012MDRP[11100]	/* MoveDirectRelPt */\012SVTCA[0]	/* SetFreedomAndProjectionVectorToAxis */\012PUSHW[ ]	/* 1 value pushed */\01223 \012MDAP[1]	/* MoveDirectAbsPt */\012PUSHW[ ]	/* 1 value pushed */\01225 \012MDAP[1]	/* MoveDirectAbsPt */\012PUSHW[ ]	/* 1 value pushed */\01231 \012MDAP[1]	/* MoveDirectAbsPt */\012PUSHW[ ]	/* 1 value pushed */\01268 \012MDAP[1]	/* MoveDirectAbsPt */\012PUSHW[ ]	/* 4 values pushed */\01236 4 52 4 \012CALL[ ]	/* CallFunction */\012PUSHW[ ]	/* 4 values pushed */\012105 1 111 4 \012CALL[ ]	/* CallFunction */\012PUSHW[ ]	/* 4 values pushed */\012165 4 58 4 \012CALL[ ]	/* CallFunction */\012PUSHW[ ]	/* 1 value pushed */\012111 \012SRP0[ ]	/* SetRefPoint0 */\012PUSHW[ ]	/* 1 value pushed */\01211 \012MDRP[10000]	/* MoveDirectRelPt */\012PUSHW[ ]	/* 1 value pushed */\01258 \012SRP0[ ]	/* SetRefPoint0 */\012PUSHW[ ]	/* 1 value pushed */\012152 \012MDRP[11100]	/* MoveDirectRelPt */\012IUP[0]	/* InterpolateUntPts */\012IUP[1]	/* InterpolateUntPts */";
};
width = 701;
}
);
leftKerningGroup = H;
note = L;
rightKerningGroup = L;
unicode = 004C;
},
{
glyphname = M;
lastChange = "2021-10-05 05:06:45 +0000";
layers = (
{
layerId = "0CF23081-C341-41E4-8FF8-6B151438961F";
paths = (
{
closed = 1;
nodes = (
"663 -141 OFFCURVE",
"687 -129 OFFCURVE",
"712 -106 CURVE SMOOTH",
"718 -100 OFFCURVE",
"721 -95 OFFCURVE",
"721 -92 CURVE SMOOTH",
"721 -90 OFFCURVE",
"720 -89 OFFCURVE",
"717 -89 CURVE SMOOTH",
"714 -89 OFFCURVE",
"711 -91 OFFCURVE",
"708 -94 CURVE SMOOTH",
"691 -112 OFFCURVE",
"676 -121 OFFCURVE",
"663 -121 CURVE SMOOTH",
"650 -121 OFFCURVE",
"643 -108 OFFCURVE",
"643 -83 CURVE SMOOTH",
"643 -30 OFFCURVE",
"662 37 OFFCURVE",
"702 118 CURVE SMOOTH",
"734 184 OFFCURVE",
"773 247 OFFCURVE",
"818 307 CURVE SMOOTH",
"878 386 OFFCURVE",
"908 441 OFFCURVE",
"908 474 CURVE SMOOTH",
"908 489 OFFCURVE",
"900 497 OFFCURVE",
"884 497 CURVE SMOOTH",
"871 497 OFFCURVE",
"851 491 OFFCURVE",
"824 479 CURVE SMOOTH",
"771 454 OFFCURVE",
"709 393 OFFCURVE",
"638 295 CURVE SMOOTH",
"583 218 OFFCURVE",
"540 148 OFFCURVE",
"510 83 CURVE",
"511 90 OFFCURVE",
"517 119 OFFCURVE",
"528 172 CURVE SMOOTH",
"538 223 OFFCURVE",
"545 262 OFFCURVE",
"548 289 CURVE SMOOTH",
"549 307 OFFCURVE",
"550 324 OFFCURVE",
"550 341 CURVE SMOOTH",
"550 380 OFFCURVE",
"546 410 OFFCURVE",
"537 433 CURVE SMOOTH",
"528 458 OFFCURVE",
"514 471 OFFCURVE",
"497 471 CURVE SMOOTH",
"465 471 OFFCURVE",
"425 431 OFFCURVE",
"376 350 CURVE SMOOTH",
"361 325 OFFCURVE",
"342 287 OFFCURVE",
"321 236 CURVE",
"326 267 OFFCURVE",
"329 297 OFFCURVE",
"329 325 CURVE SMOOTH",
"329 421 OFFCURVE",
"303 489 OFFCURVE",
"250 529 CURVE SMOOTH",
"226 548 OFFCURVE",
"201 557 OFFCURVE",
"176 557 CURVE SMOOTH",
"99 557 OFFCURVE",
"31 472 OFFCURVE",
"31 381 CURVE SMOOTH",
"31 358 OFFCURVE",
"35 336 OFFCURVE",
"44 315 CURVE SMOOTH",
"47 307 OFFCURVE",
"51 303 OFFCURVE",
"56 303 CURVE SMOOTH",
"59 303 OFFCURVE",
"61 306 OFFCURVE",
"61 311 CURVE SMOOTH",
"61 315 OFFCURVE",
"60 320 OFFCURVE",
"58 325 CURVE SMOOTH",
"53 338 OFFCURVE",
"50 352 OFFCURVE",
"50 369 CURVE SMOOTH",
"50 410 OFFCURVE",
"63 449 OFFCURVE",
"89 486 CURVE SMOOTH",
"116 524 OFFCURVE",
"146 543 OFFCURVE",
"179 543 CURVE SMOOTH",
"200 543 OFFCURVE",
"220 534 OFFCURVE",
"239 516 CURVE SMOOTH",
"278 479 OFFCURVE",
"297 425 OFFCURVE",
"297 354 CURVE SMOOTH",
"297 296 OFFCURVE",
"284 226 OFFCURVE",
"257 144 CURVE SMOOTH",
"245 107 OFFCURVE",
"232 73 OFFCURVE",
"218 43 CURVE",
"207 47 OFFCURVE",
"196 53 OFFCURVE",
"187 61 CURVE",
"238 173 OFFCURVE",
"264 276 OFFCURVE",
"265 370 CURVE SMOOTH",
"265 409 OFFCURVE",
"257 440 OFFCURVE",
"240 462 CURVE SMOOTH",
"225 483 OFFCURVE",
"206 493 OFFCURVE",
"183 493 CURVE SMOOTH",
"153 493 OFFCURVE",
"127 477 OFFCURVE",
"104 445 CURVE SMOOTH",
"79 410 OFFCURVE",
"67 362 OFFCURVE",
"67 303 CURVE SMOOTH",
"67 292 OFFCURVE",
"68 280 OFFCURVE",
"69 267 CURVE SMOOTH",
"72 230 OFFCURVE",
"83 192 OFFCURVE",
"101 153 CURVE SMOOTH",
"121 112 OFFCURVE",
"145 80 OFFCURVE",
"174 58 CURVE",
"158 23 OFFCURVE",
"143 -5 OFFCURVE",
"129 -28 CURVE",
"127 -30 OFFCURVE",
"128 -33 OFFCURVE",
"132 -33 CURVE SMOOTH",
"133 -33 OFFCURVE",
"134 -33 OFFCURVE",
"134 -32 CURVE",
"154 -1 OFFCURVE",
"170 27 OFFCURVE",
"183 52 CURVE",
"193 45 OFFCURVE",
"203 39 OFFCURVE",
"214 36 CURVE",
"185 -24 OFFCURVE",
"155 -59 OFFCURVE",
"125 -70 CURVE SMOOTH",
"121 -72 OFFCURVE",
"117 -73 OFFCURVE",
"113 -73 CURVE SMOOTH",
"101 -73 OFFCURVE",
"95 -68 OFFCURVE",
"95 -57 CURVE SMOOTH",
"96 -50 LINE SMOOTH",
"97 -44 OFFCURVE",
"95 -41 OFFCURVE",
"92 -41 CURVE SMOOTH",
"86 -41 OFFCURVE",
"83 -47 OFFCURVE",
"83 -59 CURVE SMOOTH",
"83 -84 OFFCURVE",
"96 -96 OFFCURVE",
"121 -96 CURVE SMOOTH",
"126 -96 OFFCURVE",
"131 -96 OFFCURVE",
"136 -95 CURVE SMOOTH",
"154 -92 OFFCURVE",
"174 -78 OFFCURVE",
"196 -53 CURVE SMOOTH",
"217 -31 OFFCURVE",
"236 -4 OFFCURVE",
"254 28 CURVE",
"297 27 OFFCURVE",
"353 50 OFFCURVE",
"366 86 CURVE",
"368 88 OFFCURVE",
"366 91 OFFCURVE",
"363 91 CURVE SMOOTH",
"361 91 OFFCURVE",
"360 90 OFFCURVE",
"359 89 CURVE",
"354 72 OFFCURVE",
"340 59 OFFCURVE",
"318 49 CURVE SMOOTH",
"297 39 OFFCURVE",
"277 34 OFFCURVE",
"258 35 CURVE",
"269 56 OFFCURVE",
"278 76 OFFCURVE",
"285 95 CURVE SMOOTH",
"310 167 OFFCURVE",
"340 237 OFFCURVE",
"373 304 CURVE SMOOTH",
"420 398 OFFCURVE",
"455 445 OFFCURVE",
"479 445 CURVE SMOOTH",
"502 445 OFFCURVE",
"513 401 OFFCURVE",
"513 312 CURVE SMOOTH",
"513 258 OFFCURVE",
"505 174 OFFCURVE",
"483 60 CURVE SMOOTH",
"482 55 OFFCURVE",
"481 51 OFFCURVE",
"481 48 CURVE SMOOTH",
"481 37 OFFCURVE",
"484 31 OFFCURVE",
"491 31 CURVE SMOOTH",
"502 31 OFFCURVE",
"513 44 OFFCURVE",
"523 69 CURVE SMOOTH",
"543 122 OFFCURVE",
"577 182 OFFCURVE",
"626 248 CURVE SMOOTH",
"668 305 OFFCURVE",
"712 356 OFFCURVE",
"758 401 CURVE SMOOTH",
"802 444 OFFCURVE",
"831 466 OFFCURVE",
"845 466 CURVE SMOOTH",
"849 466 OFFCURVE",
"851 463 OFFCURVE",
"851 458 CURVE SMOOTH",
"851 452 OFFCURVE",
"849 443 OFFCURVE",
"844 432 CURVE SMOOTH",
"836 415 OFFCURVE",
"812 373 OFFCURVE",
"771 304 CURVE SMOOTH",
"726 229 OFFCURVE",
"693 169 OFFCURVE",
"671 125 CURVE SMOOTH",
"635 55 OFFCURVE",
"613 -1 OFFCURVE",
"605 -44 CURVE SMOOTH",
"602 -59 OFFCURVE",
"601 -72 OFFCURVE",
"601 -85 CURVE SMOOTH",
"601 -122 OFFCURVE",
"613 -141 OFFCURVE",
"638 -141 CURVE",
"638 -141 LINE"
);
},
{
closed = 1;
nodes = (
"152 90 OFFCURVE",
"130 122 OFFCURVE",
"113 163 CURVE SMOOTH",
"97 200 OFFCURVE",
"88 236 OFFCURVE",
"85 272 CURVE SMOOTH",
"84 285 OFFCURVE",
"83 298 OFFCURVE",
"83 311 CURVE SMOOTH",
"83 365 OFFCURVE",
"93 408 OFFCURVE",
"114 441 CURVE SMOOTH",
"132 470 OFFCURVE",
"153 484 OFFCURVE",
"178 484 CURVE SMOOTH",
"198 484 OFFCURVE",
"215 474 OFFCURVE",
"228 455 CURVE SMOOTH",
"242 434 OFFCURVE",
"249 404 OFFCURVE",
"249 366 CURVE SMOOTH",
"248 269 OFFCURVE",
"225 170 OFFCURVE",
"179 67 CURVE",
"179 67 LINE"
);
}
);
userData = {
assembly = "PUSHW[ ]	/* 4 values pushed */\01277 7 87 4 \012CALL[ ]	/* CallFunction */\012PUSHW[ ]	/* 4 values pushed */\01210 7 53 4 \012CALL[ ]	/* CallFunction */\012PUSHW[ ]	/* 4 values pushed */\01261 7 2 4 \012CALL[ ]	/* CallFunction */\012PUSHW[ ]	/* 4 values pushed */\01294 8 69 4 \012CALL[ ]	/* CallFunction */\012PUSHW[ ]	/* 4 values pushed */\012104 8 164 4 \012CALL[ ]	/* CallFunction */\012PUSHW[ ]	/* 4 values pushed */\012124 8 138 4 \012CALL[ ]	/* CallFunction */\012PUSHW[ ]	/* 3 values pushed */\0120 87 124 \012SRP1[ ]	/* SetRefPoint1 */\012SRP2[ ]	/* SetRefPoint2 */\012IP[ ]	/* InterpolatePts */\012NPUSHW[ ]	/* 33 values pushed */\0126 10 22 10 38 10 54 10 70 10 86 10 102 10 118 10 134 10 150 10 166 10 182 10 198 10 214 10 230 10 246 10 16 \012DELTAP1[ ]	/* DeltaExceptionP1 */\012NPUSHW[ ]	/* 33 values pushed */\0126 10 22 10 38 10 54 10 70 10 86 10 102 10 118 10 134 10 150 10 166 10 182 10 198 10 214 10 230 10 246 10 16 \012DELTAP2[ ]	/* DeltaExceptionP2 */\012NPUSHW[ ]	/* 33 values pushed */\0126 10 22 10 38 10 54 10 70 10 86 10 102 10 118 10 134 10 150 10 166 10 182 10 198 10 214 10 230 10 246 10 16 \012DELTAP3[ ]	/* DeltaExceptionP3 */\012PUSHW[ ]	/* 1 value pushed */\01210 \012SRP0[ ]	/* SetRefPoint0 */\012PUSHW[ ]	/* 1 value pushed */\01212 \012MDRP[10000]	/* MoveDirectRelPt */\012PUSHW[ ]	/* 1 value pushed */\01212 \012MDAP[1]	/* MoveDirectAbsPt */\012PUSHW[ ]	/* 1 value pushed */\01210 \012SRP0[ ]	/* SetRefPoint0 */\012PUSHW[ ]	/* 1 value pushed */\01227 \012MDRP[10000]	/* MoveDirectRelPt */\012PUSHW[ ]	/* 3 values pushed */\01245 87 124 \012SRP1[ ]	/* SetRefPoint1 */\012SRP2[ ]	/* SetRefPoint2 */\012IP[ ]	/* InterpolatePts */\012PUSHW[ ]	/* 1 value pushed */\01253 \012SRP0[ ]	/* SetRefPoint0 */\012PUSHW[ ]	/* 1 value pushed */\01251 \012MDRP[10000]	/* MoveDirectRelPt */\012PUSHW[ ]	/* 1 value pushed */\01251 \012MDAP[1]	/* MoveDirectAbsPt */\012NPUSHW[ ]	/* 33 values pushed */\0126 61 22 61 38 61 54 61 70 61 86 61 102 61 118 61 134 61 150 61 166 61 182 61 198 61 214 61 230 61 246 61 16 \012DELTAP1[ ]	/* DeltaExceptionP1 */\012NPUSHW[ ]	/* 33 values pushed */\0126 61 22 61 38 61 54 61 70 61 86 61 102 61 118 61 134 61 150 61 166 61 182 61 198 61 214 61 230 61 246 61 16 \012DELTAP2[ ]	/* DeltaExceptionP2 */\012NPUSHW[ ]	/* 33 values pushed */\0126 61 22 61 38 61 54 61 70 61 86 61 102 61 118 61 134 61 150 61 166 61 182 61 198 61 214 61 230 61 246 61 16 \012DELTAP3[ ]	/* DeltaExceptionP3 */\012NPUSHW[ ]	/* 33 values pushed */\0126 77 22 77 38 77 54 77 70 77 86 77 102 77 118 77 134 77 150 77 166 77 182 77 198 77 214 77 230 77 246 77 16 \012DELTAP1[ ]	/* DeltaExceptionP1 */\012NPUSHW[ ]	/* 33 values pushed */\0126 77 22 77 38 77 54 77 70 77 86 77 102 77 118 77 134 77 150 77 166 77 182 77 198 77 214 77 230 77 246 77 16 \012DELTAP2[ ]	/* DeltaExceptionP2 */\012NPUSHW[ ]	/* 33 values pushed */\0126 77 22 77 38 77 54 77 70 77 86 77 102 77 118 77 134 77 150 77 166 77 182 77 198 77 214 77 230 77 246 77 16 \012DELTAP3[ ]	/* DeltaExceptionP3 */\012NPUSHW[ ]	/* 33 values pushed */\0126 94 22 94 38 94 54 94 70 94 86 94 102 94 118 94 134 94 150 94 166 94 182 94 198 94 214 94 230 94 246 94 16 \012DELTAP1[ ]	/* DeltaExceptionP1 */\012NPUSHW[ ]	/* 13 values pushed */\0126 94 22 94 38 94 54 94 70 94 86 94 6 \012DELTAP2[ ]	/* DeltaExceptionP2 */\012NPUSHW[ ]	/* 5 values pushed */\012101 94 117 94 2 \012DELTAP2[ ]	/* DeltaExceptionP2 */\012PUSHW[ ]	/* 3 values pushed */\01296 69 94 \012SRP1[ ]	/* SetRefPoint1 */\012SRP2[ ]	/* SetRefPoint2 */\012IP[ ]	/* InterpolatePts */\012PUSHW[ ]	/* 1 value pushed */\012104 \012SRP0[ ]	/* SetRefPoint0 */\012PUSHW[ ]	/* 1 value pushed */\012106 \012MDRP[10000]	/* MoveDirectRelPt */\012PUSHW[ ]	/* 1 value pushed */\012106 \012MDAP[1]	/* MoveDirectAbsPt */\012NPUSHW[ ]	/* 5 values pushed */\012106 164 122 164 2 \012DELTAP2[ ]	/* DeltaExceptionP2 */\012NPUSHW[ ]	/* 33 values pushed */\0129 164 25 164 41 164 57 164 73 164 89 164 105 164 121 164 137 164 153 164 169 164 185 164 201 164 217 164 233 164 249 164 16 \012DELTAP1[ ]	/* DeltaExceptionP1 */\012NPUSHW[ ]	/* 13 values pushed */\0129 164 25 164 41 164 57 164 73 164 89 164 6 \012DELTAP2[ ]	/* DeltaExceptionP2 */\012PUSHW[ ]	/* 1 value pushed */\012164 \012SRP0[ ]	/* SetRefPoint0 */\012PUSHW[ ]	/* 1 value pushed */\012110 \012MDRP[10000]	/* MoveDirectRelPt */\012PUSHW[ ]	/* 1 value pushed */\012110 \012MDAP[1]	/* MoveDirectAbsPt */\012NPUSHW[ ]	/* 5 values pushed */\012106 138 122 138 2 \012DELTAP2[ ]	/* DeltaExceptionP2 */\012NPUSHW[ ]	/* 33 values pushed */\0129 138 25 138 41 138 57 138 73 138 89 138 105 138 121 138 137 138 153 138 169 138 185 138 201 138 217 138 233 138 249 138 16 \012DELTAP1[ ]	/* DeltaExceptionP1 */\012NPUSHW[ ]	/* 13 values pushed */\0129 138 25 138 41 138 57 138 73 138 89 138 6 \012DELTAP2[ ]	/* DeltaExceptionP2 */\012PUSHW[ ]	/* 3 values pushed */\012172 2 61 \012SRP1[ ]	/* SetRefPoint1 */\012SRP2[ ]	/* SetRefPoint2 */\012IP[ ]	/* InterpolatePts */\012PUSHW[ ]	/* 1 value pushed */\012124 \012SRP0[ ]	/* SetRefPoint0 */\012PUSHW[ ]	/* 1 value pushed */\012181 \012MDRP[11100]	/* MoveDirectRelPt */\012SVTCA[0]	/* SetFreedomAndProjectionVectorToAxis */\012PUSHW[ ]	/* 1 value pushed */\01257 \012MDAP[1]	/* MoveDirectAbsPt */\012PUSHW[ ]	/* 1 value pushed */\012116 \012MDAP[1]	/* MoveDirectAbsPt */\012PUSHW[ ]	/* 1 value pushed */\0120 \012RCVT[ ]	/* ReadCVT */\012IF[ ]	/* If */\012PUSHW[ ]	/* 1 value pushed */\01290 \012MDAP[1]	/* MoveDirectAbsPt */\012ELSE[ ]	/* Else */\012PUSHW[ ]	/* 2 values pushed */\01290 15 \012MIAP[0]	/* MoveIndirectAbsPt */\012EIF[ ]	/* EndIf */\012PUSHW[ ]	/* 4 values pushed */\012126 4 136 4 \012CALL[ ]	/* CallFunction */\012PUSHW[ ]	/* 4 values pushed */\01233 4 25 4 \012CALL[ ]	/* CallFunction */\012PUSHW[ ]	/* 4 values pushed */\012100 4 166 4 \012CALL[ ]	/* CallFunction */\012PUSHW[ ]	/* 1 value pushed */\01290 \012SRP0[ ]	/* SetRefPoint0 */\012PUSHW[ ]	/* 2 values pushed */\01273 1 \012MIRP[10100]	/* MoveIndirectRelPt */\012NPUSHW[ ]	/* 33 values pushed */\0128 73 24 73 40 73 56 73 72 73 88 73 104 73 120 73 136 73 152 73 168 73 184 73 200 73 216 73 232 73 248 73 16 \012DELTAP1[ ]	/* DeltaExceptionP1 */\012NPUSHW[ ]	/* 33 values pushed */\0128 73 24 73 40 73 56 73 72 73 88 73 104 73 120 73 136 73 152 73 168 73 184 73 200 73 216 73 232 73 248 73 16 \012DELTAP2[ ]	/* DeltaExceptionP2 */\012NPUSHW[ ]	/* 33 values pushed */\0128 73 24 73 40 73 56 73 72 73 88 73 104 73 120 73 136 73 152 73 168 73 184 73 200 73 216 73 232 73 248 73 16 \012DELTAP3[ ]	/* DeltaExceptionP3 */\012IUP[0]	/* InterpolateUntPts */\012IUP[1]	/* InterpolateUntPts */";
};
width = 819;
}
);
leftKerningGroup = M;
note = M;
rightKerningGroup = M;
unicode = 004D;
},
{
glyphname = N;
lastChange = "2021-10-05 05:06:45 +0000";
layers = (
{
anchors = (
{
name = bottom;
position = "{489, 0}";
},
{
name = top;
position = "{745, 467}";
}
);
layerId = "0CF23081-C341-41E4-8FF8-6B151438961F";
paths = (
{
closed = 1;
nodes = (
"650 -140 OFFCURVE",
"662 -138 OFFCURVE",
"675 -133 CURVE SMOOTH",
"690 -128 OFFCURVE",
"703 -120 OFFCURVE",
"713 -110 CURVE SMOOTH",
"720 -103 OFFCURVE",
"723 -96 OFFCURVE",
"723 -89 CURVE SMOOTH",
"723 -86 OFFCURVE",
"722 -86 OFFCURVE",
"719 -87 CURVE",
"719 -95 OFFCURVE",
"684 -114 OFFCURVE",
"669 -114 CURVE SMOOTH",
"646 -114 OFFCURVE",
"634 -95 OFFCURVE",
"634 -58 CURVE SMOOTH",
"634 -17 OFFCURVE",
"647 44 OFFCURVE",
"674 123 CURVE SMOOTH",
"690 170 OFFCURVE",
"722 244 OFFCURVE",
"771 344 CURVE SMOOTH",
"786 375 OFFCURVE",
"794 400 OFFCURVE",
"794 421 CURVE SMOOTH",
"794 443 OFFCURVE",
"784 454 OFFCURVE",
"765 454 CURVE SMOOTH",
"758 454 OFFCURVE",
"749 452 OFFCURVE",
"739 449 CURVE SMOOTH",
"722 444 OFFCURVE",
"697 430 OFFCURVE",
"666 408 CURVE SMOOTH",
"592 355 OFFCURVE",
"506 270 OFFCURVE",
"408 154 CURVE",
"442 258 OFFCURVE",
"459 337 OFFCURVE",
"459 390 CURVE SMOOTH",
"459 469 OFFCURVE",
"428 512 OFFCURVE",
"367 520 CURVE",
"350 548 OFFCURVE",
"326 562 OFFCURVE",
"297 562 CURVE SMOOTH",
"256 562 OFFCURVE",
"212 530 OFFCURVE",
"188 473 CURVE",
"138 448 OFFCURVE",
"98 418 OFFCURVE",
"68 384 CURVE SMOOTH",
"33 344 OFFCURVE",
"15 303 OFFCURVE",
"15 261 CURVE SMOOTH",
"15 220 OFFCURVE",
"36 196 OFFCURVE",
"71 196 CURVE SMOOTH",
"80 196 OFFCURVE",
"89 198 OFFCURVE",
"100 201 CURVE SMOOTH",
"105 203 OFFCURVE",
"108 206 OFFCURVE",
"108 210 CURVE SMOOTH",
"108 213 OFFCURVE",
"106 214 OFFCURVE",
"102 214 CURVE SMOOTH",
"100 214 OFFCURVE",
"97 214 OFFCURVE",
"93 213 CURVE SMOOTH",
"89 212 OFFCURVE",
"86 211 OFFCURVE",
"84 211 CURVE SMOOTH",
"63 211 OFFCURVE",
"45 230 OFFCURVE",
"45 254 CURVE SMOOTH",
"45 282 OFFCURVE",
"58 313 OFFCURVE",
"83 348 CURVE SMOOTH",
"107 380 OFFCURVE",
"138 410 OFFCURVE",
"175 438 CURVE",
"169 413 OFFCURVE",
"166 386 OFFCURVE",
"166 357 CURVE SMOOTH",
"166 340 OFFCURVE",
"167 323 OFFCURVE",
"169 305 CURVE SMOOTH",
"182 201 OFFCURVE",
"224 132 OFFCURVE",
"296 97 CURVE",
"293 91 LINE SMOOTH",
"273 50 OFFCURVE",
"259 14 OFFCURVE",
"242 -14 CURVE",
"241 -17 OFFCURVE",
"241 -19 OFFCURVE",
"243 -20 CURVE SMOOTH",
"246 -21 OFFCURVE",
"248 -21 OFFCURVE",
"249 -18 CURVE",
"264 8 OFFCURVE",
"278 41 OFFCURVE",
"296 79 CURVE SMOOTH",
"303 94 LINE",
"314 89 OFFCURVE",
"325 86 OFFCURVE",
"337 83 CURVE",
"323 49 OFFCURVE",
"313 24 OFFCURVE",
"308 9 CURVE SMOOTH",
"304 0 OFFCURVE",
"302 -7 OFFCURVE",
"302 -13 CURVE SMOOTH",
"302 -18 OFFCURVE",
"304 -21 OFFCURVE",
"309 -21 CURVE SMOOTH",
"314 -21 OFFCURVE",
"320 -18 OFFCURVE",
"329 -12 CURVE SMOOTH",
"337 -7 OFFCURVE",
"342 -2 OFFCURVE",
"344 1 CURVE SMOOTH",
"363 36 OFFCURVE",
"377 62 OFFCURVE",
"386 81 CURVE",
"419 84 OFFCURVE",
"449 95 OFFCURVE",
"476 115 CURVE SMOOTH",
"503 137 OFFCURVE",
"523 165 OFFCURVE",
"534 199 CURVE",
"534 202 OFFCURVE",
"533 204 OFFCURVE",
"530 204 CURVE SMOOTH",
"528 204 OFFCURVE",
"527 203 OFFCURVE",
"526 201 CURVE SMOOTH",
"507 142 OFFCURVE",
"454 100 OFFCURVE",
"393 92 CURVE",
"417 130 OFFCURVE",
"449 170 OFFCURVE",
"489 213 CURVE SMOOTH",
"512 237 OFFCURVE",
"548 273 OFFCURVE",
"599 321 CURVE SMOOTH",
"636 356 OFFCURVE",
"673 385 OFFCURVE",
"710 408 CURVE SMOOTH",
"721 415 OFFCURVE",
"730 418 OFFCURVE",
"737 418 CURVE SMOOTH",
"745 418 OFFCURVE",
"749 413 OFFCURVE",
"749 402 CURVE SMOOTH",
"749 396 OFFCURVE",
"747 388 OFFCURVE",
"744 377 CURVE",
"707 276 OFFCURVE",
"676 195 OFFCURVE",
"653 134 CURVE SMOOTH",
"621 47 LINE SMOOTH",
"603 -1 OFFCURVE",
"598 -41 OFFCURVE",
"598 -71 CURVE SMOOTH",
"598 -112 OFFCURVE",
"612 -134 OFFCURVE",
"641 -139 CURVE",
"641 -139 LINE"
);
},
{
closed = 1;
nodes = (
"234 139 OFFCURVE",
"196 207 OFFCURVE",
"183 311 CURVE SMOOTH",
"180 329 OFFCURVE",
"179 347 OFFCURVE",
"179 364 CURVE SMOOTH",
"179 395 OFFCURVE",
"183 423 OFFCURVE",
"190 448 CURVE",
"249 488 OFFCURVE",
"300 508 OFFCURVE",
"344 508 CURVE SMOOTH",
"349 508 OFFCURVE",
"355 507 OFFCURVE",
"360 506 CURVE",
"370 485 OFFCURVE",
"374 457 OFFCURVE",
"374 423 CURVE SMOOTH",
"374 339 OFFCURVE",
"349 233 OFFCURVE",
"299 107 CURVE",
"299 107 LINE"
);
},
{
closed = 1;
nodes = (
"341 93 LINE",
"329 95 OFFCURVE",
"317 98 OFFCURVE",
"306 103 CURVE",
"361 239 OFFCURVE",
"388 347 OFFCURVE",
"388 428 CURVE SMOOTH",
"388 457 OFFCURVE",
"384 482 OFFCURVE",
"375 503 CURVE",
"410 493 OFFCURVE",
"428 462 OFFCURVE",
"428 411 CURVE SMOOTH",
"428 351 OFFCURVE",
"410 263 OFFCURVE",
"364 150 CURVE SMOOTH",
"341 93 LINE"
);
},
{
closed = 1;
nodes = (
"224 529 OFFCURVE",
"260 556 OFFCURVE",
"293 556 CURVE SMOOTH",
"317 556 OFFCURVE",
"337 544 OFFCURVE",
"352 521 CURVE",
"345 521 LINE SMOOTH",
"306 521 OFFCURVE",
"258 508 OFFCURVE",
"201 481 CURVE",
"201 481 LINE"
);
}
);
userData = {
assembly = "PUSHW[ ]	/* 4 values pushed */\012117 8 132 4 \012CALL[ ]	/* CallFunction */\012PUSHW[ ]	/* 4 values pushed */\01215 6 111 4 \012CALL[ ]	/* CallFunction */\012PUSHW[ ]	/* 4 values pushed */\01229 6 21 4 \012CALL[ ]	/* CallFunction */\012PUSHW[ ]	/* 4 values pushed */\012143 8 25 4 \012CALL[ ]	/* CallFunction */\012PUSHW[ ]	/* 4 values pushed */\01238 8 54 4 \012CALL[ ]	/* CallFunction */\012PUSHW[ ]	/* 4 values pushed */\012153 8 62 4 \012CALL[ ]	/* CallFunction */\012PUSHW[ ]	/* 3 values pushed */\0120 132 153 \012SRP1[ ]	/* SetRefPoint1 */\012SRP2[ ]	/* SetRefPoint2 */\012IP[ ]	/* InterpolatePts */\012PUSHW[ ]	/* 3 values pushed */\0124 132 153 \012SRP1[ ]	/* SetRefPoint1 */\012SRP2[ ]	/* SetRefPoint2 */\012IP[ ]	/* InterpolatePts */\012NPUSHW[ ]	/* 33 values pushed */\0126 15 22 15 38 15 54 15 70 15 86 15 102 15 118 15 134 15 150 15 166 15 182 15 198 15 214 15 230 15 246 15 16 \012DELTAP1[ ]	/* DeltaExceptionP1 */\012NPUSHW[ ]	/* 33 values pushed */\0126 15 22 15 38 15 54 15 70 15 86 15 102 15 118 15 134 15 150 15 166 15 182 15 198 15 214 15 230 15 246 15 16 \012DELTAP2[ ]	/* DeltaExceptionP2 */\012NPUSHW[ ]	/* 33 values pushed */\0126 15 22 15 38 15 54 15 70 15 86 15 102 15 118 15 134 15 150 15 166 15 182 15 198 15 214 15 230 15 246 15 16 \012DELTAP3[ ]	/* DeltaExceptionP3 */\012PUSHW[ ]	/* 1 value pushed */\01215 \012SRP0[ ]	/* SetRefPoint0 */\012PUSHW[ ]	/* 1 value pushed */\01217 \012MDRP[10000]	/* MoveDirectRelPt */\012PUSHW[ ]	/* 1 value pushed */\01217 \012MDAP[1]	/* MoveDirectAbsPt */\012NPUSHW[ ]	/* 5 values pushed */\012106 25 122 25 2 \012DELTAP2[ ]	/* DeltaExceptionP2 */\012NPUSHW[ ]	/* 33 values pushed */\0129 25 25 25 41 25 57 25 73 25 89 25 105 25 121 25 137 25 153 25 169 25 185 25 201 25 217 25 233 25 249 25 16 \012DELTAP1[ ]	/* DeltaExceptionP1 */\012NPUSHW[ ]	/* 13 values pushed */\0129 25 25 25 41 25 57 25 73 25 89 25 6 \012DELTAP2[ ]	/* DeltaExceptionP2 */\012NPUSHW[ ]	/* 33 values pushed */\0126 29 22 29 38 29 54 29 70 29 86 29 102 29 118 29 134 29 150 29 166 29 182 29 198 29 214 29 230 29 246 29 16 \012DELTAP1[ ]	/* DeltaExceptionP1 */\012NPUSHW[ ]	/* 33 values pushed */\0126 29 22 29 38 29 54 29 70 29 86 29 102 29 118 29 134 29 150 29 166 29 182 29 198 29 214 29 230 29 246 29 16 \012DELTAP2[ ]	/* DeltaExceptionP2 */\012NPUSHW[ ]	/* 33 values pushed */\0126 29 22 29 38 29 54 29 70 29 86 29 102 29 118 29 134 29 150 29 166 29 182 29 198 29 214 29 230 29 246 29 16 \012DELTAP3[ ]	/* DeltaExceptionP3 */\012PUSHW[ ]	/* 3 values pushed */\01227 21 29 \012SRP1[ ]	/* SetRefPoint1 */\012SRP2[ ]	/* SetRefPoint2 */\012IP[ ]	/* InterpolatePts */\012NPUSHW[ ]	/* 5 values pushed */\012106 54 122 54 2 \012DELTAP2[ ]	/* DeltaExceptionP2 */\012NPUSHW[ ]	/* 33 values pushed */\0129 54 25 54 41 54 57 54 73 54 89 54 105 54 121 54 137 54 153 54 169 54 185 54 201 54 217 54 233 54 249 54 16 \012DELTAP1[ ]	/* DeltaExceptionP1 */\012NPUSHW[ ]	/* 13 values pushed */\0129 54 25 54 41 54 57 54 73 54 89 54 6 \012DELTAP2[ ]	/* DeltaExceptionP2 */\012NPUSHW[ ]	/* 5 values pushed */\012106 62 122 62 2 \012DELTAP2[ ]	/* DeltaExceptionP2 */\012NPUSHW[ ]	/* 33 values pushed */\0129 62 25 62 41 62 57 62 73 62 89 62 105 62 121 62 137 62 153 62 169 62 185 62 201 62 217 62 233 62 249 62 16 \012DELTAP1[ ]	/* DeltaExceptionP1 */\012NPUSHW[ ]	/* 13 values pushed */\0129 62 25 62 41 62 57 62 73 62 89 62 6 \012DELTAP2[ ]	/* DeltaExceptionP2 */\012PUSHW[ ]	/* 3 values pushed */\01272 132 153 \012SRP1[ ]	/* SetRefPoint1 */\012SRP2[ ]	/* SetRefPoint2 */\012IP[ ]	/* InterpolatePts */\012PUSHW[ ]	/* 1 value pushed */\012111 \012SRP0[ ]	/* SetRefPoint0 */\012PUSHW[ ]	/* 1 value pushed */\012109 \012MDRP[10000]	/* MoveDirectRelPt */\012PUSHW[ ]	/* 1 value pushed */\012109 \012MDAP[1]	/* MoveDirectAbsPt */\012PUSHW[ ]	/* 3 values pushed */\012113 111 15 \012SRP1[ ]	/* SetRefPoint1 */\012SRP2[ ]	/* SetRefPoint2 */\012IP[ ]	/* InterpolatePts */\012NPUSHW[ ]	/* 33 values pushed */\0126 117 22 117 38 117 54 117 70 117 86 117 102 117 118 117 134 117 150 117 166 117 182 117 198 117 214 117 230 117 246 117 16 \012DELTAP1[ ]	/* DeltaExceptionP1 */\012NPUSHW[ ]	/* 13 values pushed */\0126 117 22 117 38 117 54 117 70 117 86 117 6 \012DELTAP2[ ]	/* DeltaExceptionP2 */\012NPUSHW[ ]	/* 5 values pushed */\012101 117 117 117 2 \012DELTAP2[ ]	/* DeltaExceptionP2 */\012PUSHW[ ]	/* 3 values pushed */\012145 132 153 \012SRP1[ ]	/* SetRefPoint1 */\012SRP2[ ]	/* SetRefPoint2 */\012IP[ ]	/* InterpolatePts */\012PUSHW[ ]	/* 1 value pushed */\012153 \012SRP0[ ]	/* SetRefPoint0 */\012PUSHW[ ]	/* 1 value pushed */\012156 \012MDRP[11100]	/* MoveDirectRelPt */\012SVTCA[0]	/* SetFreedomAndProjectionVectorToAxis */\012PUSHW[ ]	/* 1 value pushed */\0120 \012RCVT[ ]	/* ReadCVT */\012IF[ ]	/* If */\012PUSHW[ ]	/* 1 value pushed */\0126 \012MDAP[1]	/* MoveDirectAbsPt */\012ELSE[ ]	/* Else */\012PUSHW[ ]	/* 2 values pushed */\0126 15 \012MIAP[0]	/* MoveIndirectAbsPt */\012EIF[ ]	/* EndIf */\012PUSHW[ ]	/* 1 value pushed */\0120 \012RCVT[ ]	/* ReadCVT */\012IF[ ]	/* If */\012PUSHW[ ]	/* 1 value pushed */\012139 \012MDAP[1]	/* MoveDirectAbsPt */\012ELSE[ ]	/* Else */\012PUSHW[ ]	/* 2 values pushed */\012139 15 \012MIAP[0]	/* MoveIndirectAbsPt */\012EIF[ ]	/* EndIf */\012PUSHW[ ]	/* 1 value pushed */\01211 \012MDRP[11100]	/* MoveDirectRelPt */\012NPUSHW[ ]	/* 5 values pushed */\012217 11 233 11 2 \012DELTAP1[ ]	/* DeltaExceptionP1 */\012NPUSHW[ ]	/* 27 values pushed */\0128 11 24 11 40 11 56 11 72 11 88 11 104 11 120 11 136 11 152 11 168 11 184 11 200 11 13 \012DELTAP1[ ]	/* DeltaExceptionP1 */\012PUSHW[ ]	/* 2 values pushed */\0122 1 \012MIRP[10100]	/* MoveIndirectRelPt */\012PUSHW[ ]	/* 3 values pushed */\0124 139 11 \012SRP1[ ]	/* SetRefPoint1 */\012SRP2[ ]	/* SetRefPoint2 */\012IP[ ]	/* InterpolatePts */\012PUSHW[ ]	/* 1 value pushed */\012141 \012MDRP[10000]	/* MoveDirectRelPt */\012PUSHW[ ]	/* 1 value pushed */\012141 \012MDAP[1]	/* MoveDirectAbsPt */\012IUP[0]	/* InterpolateUntPts */\012IUP[1]	/* InterpolateUntPts */";
};
width = 761;
}
);
leftKerningGroup = H;
note = N;
rightKerningGroup = H;
unicode = 004E;
},
{
glyphname = Eng;
lastChange = "2021-10-05 05:06:45 +0000";
layers = (
{
layerId = "0CF23081-C341-41E4-8FF8-6B151438961F";
paths = (
{
closed = 1;
nodes = (
"430 -238 OFFCURVE",
"439 -237 OFFCURVE",
"448 -235 CURVE SMOOTH",
"584 -202 OFFCURVE",
"648 -11 OFFCURVE",
"719 187 CURVE SMOOTH",
"754 286 OFFCURVE",
"794 388 OFFCURVE",
"794 421 CURVE SMOOTH",
"794 443 OFFCURVE",
"784 454 OFFCURVE",
"765 454 CURVE SMOOTH",
"758 454 OFFCURVE",
"749 452 OFFCURVE",
"739 449 CURVE SMOOTH",
"722 444 OFFCURVE",
"697 430 OFFCURVE",
"666 408 CURVE SMOOTH",
"592 355 OFFCURVE",
"506 270 OFFCURVE",
"408 154 CURVE",
"442 258 OFFCURVE",
"459 337 OFFCURVE",
"459 390 CURVE SMOOTH",
"459 469 OFFCURVE",
"428 512 OFFCURVE",
"367 520 CURVE",
"350 548 OFFCURVE",
"326 562 OFFCURVE",
"297 562 CURVE SMOOTH",
"256 562 OFFCURVE",
"212 530 OFFCURVE",
"188 473 CURVE",
"138 448 OFFCURVE",
"98 418 OFFCURVE",
"68 384 CURVE SMOOTH",
"33 344 OFFCURVE",
"15 303 OFFCURVE",
"15 261 CURVE SMOOTH",
"15 220 OFFCURVE",
"36 196 OFFCURVE",
"71 196 CURVE SMOOTH",
"80 196 OFFCURVE",
"89 198 OFFCURVE",
"100 201 CURVE SMOOTH",
"105 203 OFFCURVE",
"108 206 OFFCURVE",
"108 210 CURVE SMOOTH",
"108 213 OFFCURVE",
"106 214 OFFCURVE",
"102 214 CURVE SMOOTH",
"100 214 OFFCURVE",
"97 214 OFFCURVE",
"93 213 CURVE SMOOTH",
"89 212 OFFCURVE",
"86 211 OFFCURVE",
"84 211 CURVE SMOOTH",
"63 211 OFFCURVE",
"45 230 OFFCURVE",
"45 254 CURVE SMOOTH",
"45 282 OFFCURVE",
"58 313 OFFCURVE",
"83 348 CURVE SMOOTH",
"107 380 OFFCURVE",
"138 410 OFFCURVE",
"175 438 CURVE",
"169 413 OFFCURVE",
"166 386 OFFCURVE",
"166 357 CURVE SMOOTH",
"166 340 OFFCURVE",
"167 323 OFFCURVE",
"169 305 CURVE SMOOTH",
"182 201 OFFCURVE",
"224 132 OFFCURVE",
"296 97 CURVE",
"293 91 LINE SMOOTH",
"273 50 OFFCURVE",
"259 14 OFFCURVE",
"242 -14 CURVE",
"241 -17 OFFCURVE",
"241 -19 OFFCURVE",
"243 -20 CURVE SMOOTH",
"246 -21 OFFCURVE",
"248 -21 OFFCURVE",
"249 -18 CURVE",
"264 8 OFFCURVE",
"278 41 OFFCURVE",
"296 79 CURVE SMOOTH",
"303 94 LINE",
"314 89 OFFCURVE",
"325 86 OFFCURVE",
"337 83 CURVE",
"323 49 OFFCURVE",
"313 24 OFFCURVE",
"308 9 CURVE SMOOTH",
"304 0 OFFCURVE",
"302 -7 OFFCURVE",
"302 -13 CURVE SMOOTH",
"302 -18 OFFCURVE",
"304 -21 OFFCURVE",
"309 -21 CURVE SMOOTH",
"314 -21 OFFCURVE",
"320 -18 OFFCURVE",
"329 -12 CURVE SMOOTH",
"337 -7 OFFCURVE",
"342 -2 OFFCURVE",
"344 1 CURVE SMOOTH",
"363 36 OFFCURVE",
"377 62 OFFCURVE",
"386 81 CURVE",
"419 84 OFFCURVE",
"449 95 OFFCURVE",
"476 115 CURVE SMOOTH",
"503 137 OFFCURVE",
"523 165 OFFCURVE",
"534 199 CURVE",
"534 203 OFFCURVE",
"533 204 OFFCURVE",
"530 204 CURVE SMOOTH",
"528 204 OFFCURVE",
"527 203 OFFCURVE",
"526 201 CURVE SMOOTH",
"507 142 OFFCURVE",
"454 100 OFFCURVE",
"393 92 CURVE",
"417 130 OFFCURVE",
"449 170 OFFCURVE",
"489 213 CURVE SMOOTH",
"512 237 OFFCURVE",
"548 273 OFFCURVE",
"599 321 CURVE SMOOTH",
"636 356 OFFCURVE",
"673 385 OFFCURVE",
"710 408 CURVE SMOOTH",
"721 415 OFFCURVE",
"730 418 OFFCURVE",
"737 418 CURVE SMOOTH",
"745 418 OFFCURVE",
"749 413 OFFCURVE",
"749 402 CURVE SMOOTH",
"749 380 OFFCURVE",
"703 246 OFFCURVE",
"692 217 CURVE SMOOTH",
"627 38 OFFCURVE",
"557 -184 OFFCURVE",
"448 -220 CURVE SMOOTH",
"442 -222 OFFCURVE",
"435 -222 OFFCURVE",
"429 -222 CURVE SMOOTH",
"395 -222 OFFCURVE",
"355 -203 OFFCURVE",
"355 -154 CURVE SMOOTH",
"355 -120 OFFCURVE",
"373 -97 OFFCURVE",
"382 -90 CURVE",
"385 -90 OFFCURVE",
"380 -86 OFFCURVE",
"375 -87 CURVE SMOOTH",
"367 -88 OFFCURVE",
"349 -106 OFFCURVE",
"344 -131 CURVE SMOOTH",
"342 -141 OFFCURVE",
"341 -150 OFFCURVE",
"341 -158 CURVE SMOOTH",
"341 -207 OFFCURVE",
"376 -238 OFFCURVE",
"422 -238 CURVE",
"422 -238 LINE"
);
},
{
closed = 1;
nodes = (
"234 139 OFFCURVE",
"196 207 OFFCURVE",
"183 311 CURVE SMOOTH",
"180 329 OFFCURVE",
"179 347 OFFCURVE",
"179 364 CURVE SMOOTH",
"179 395 OFFCURVE",
"183 423 OFFCURVE",
"190 448 CURVE",
"249 488 OFFCURVE",
"300 508 OFFCURVE",
"344 508 CURVE SMOOTH",
"349 508 OFFCURVE",
"355 507 OFFCURVE",
"360 506 CURVE",
"370 484 OFFCURVE",
"374 456 OFFCURVE",
"374 422 CURVE SMOOTH",
"374 337 OFFCURVE",
"349 233 OFFCURVE",
"299 107 CURVE",
"299 107 LINE"
);
},
{
closed = 1;
nodes = (
"341 93 LINE",
"329 95 OFFCURVE",
"317 98 OFFCURVE",
"306 103 CURVE",
"361 239 OFFCURVE",
"388 347 OFFCURVE",
"388 428 CURVE SMOOTH",
"388 457 OFFCURVE",
"384 482 OFFCURVE",
"375 503 CURVE",
"410 493 OFFCURVE",
"428 462 OFFCURVE",
"428 411 CURVE SMOOTH",
"428 351 OFFCURVE",
"410 263 OFFCURVE",
"364 150 CURVE SMOOTH",
"341 93 LINE"
);
},
{
closed = 1;
nodes = (
"224 529 OFFCURVE",
"260 556 OFFCURVE",
"293 556 CURVE SMOOTH",
"317 556 OFFCURVE",
"337 544 OFFCURVE",
"352 521 CURVE",
"345 521 LINE SMOOTH",
"306 521 OFFCURVE",
"258 508 OFFCURVE",
"201 481 CURVE",
"201 481 LINE"
);
}
);
width = 761;
}
);
unicode = 014A;
},
{
glyphname = O;
lastChange = "2021-10-05 05:06:45 +0000";
layers = (
{
anchors = (
{
name = bottom;
position = "{172, -20}";
},
{
name = center;
position = "{382, 238}";
},
{
name = ogonek;
position = "{202, -15}";
},
{
name = top;
position = "{653, 504}";
},
{
name = topleft;
position = "{20, 475}";
},
{
name = topright;
position = "{660, 475}";
}
);
layerId = "0CF23081-C341-41E4-8FF8-6B151438961F";
paths = (
{
closed = 1;
nodes = (
"311 -26 OFFCURVE",
"397 -7 OFFCURVE",
"482 30 CURVE SMOOTH",
"573 69 OFFCURVE",
"643 122 OFFCURVE",
"694 188 CURVE SMOOTH",
"738 245 OFFCURVE",
"760 298 OFFCURVE",
"760 347 CURVE SMOOTH",
"760 368 OFFCURVE",
"756 388 OFFCURVE",
"748 408 CURVE SMOOTH",
"723 471 OFFCURVE",
"662 512 OFFCURVE",
"566 529 CURVE",
"561 559 OFFCURVE",
"549 582 OFFCURVE",
"529 598 CURVE SMOOTH",
"510 612 OFFCURVE",
"485 619 OFFCURVE",
"456 619 CURVE SMOOTH",
"416 619 OFFCURVE",
"376 607 OFFCURVE",
"336 582 CURVE SMOOTH",
"298 559 OFFCURVE",
"267 529 OFFCURVE",
"243 494 CURVE",
"178 469 OFFCURVE",
"127 438 OFFCURVE",
"89 400 CURVE SMOOTH",
"47 358 OFFCURVE",
"26 312 OFFCURVE",
"26 263 CURVE SMOOTH",
"26 220 OFFCURVE",
"54 182 OFFCURVE",
"91 165 CURVE",
"78 136 OFFCURVE",
"72 110 OFFCURVE",
"72 85 CURVE SMOOTH",
"72 51 OFFCURVE",
"84 25 OFFCURVE",
"108 6 CURVE SMOOTH",
"135 -15 OFFCURVE",
"174 -26 OFFCURVE",
"225 -26 CURVE",
"225 -26 LINE"
);
},
{
closed = 1;
nodes = (
"200 159 OFFCURVE",
"171 163 OFFCURVE",
"141 171 CURVE",
"154 202 OFFCURVE",
"173 232 OFFCURVE",
"198 261 CURVE",
"208 222 OFFCURVE",
"228 188 OFFCURVE",
"258 161 CURVE",
"248 160 OFFCURVE",
"238 159 OFFCURVE",
"228 159 CURVE",
"228 159 LINE"
);
},
{
closed = 1;
nodes = (
"70 198 OFFCURVE",
"49 230 OFFCURVE",
"49 265 CURVE SMOOTH",
"49 298 OFFCURVE",
"65 332 OFFCURVE",
"97 365 CURVE SMOOTH",
"126 396 OFFCURVE",
"166 424 OFFCURVE",
"217 449 CURVE",
"199 409 OFFCURVE",
"190 367 OFFCURVE",
"190 322 CURVE SMOOTH",
"190 313 OFFCURVE",
"190 304 OFFCURVE",
"191 296 CURVE",
"152 261 OFFCURVE",
"122 224 OFFCURVE",
"101 185 CURVE",
"101 185 LINE"
);
},
{
closed = 1;
nodes = (
"157 -6 OFFCURVE",
"119 29 OFFCURVE",
"119 89 CURVE SMOOTH",
"119 109 OFFCURVE",
"124 131 OFFCURVE",
"133 154 CURVE",
"164 145 OFFCURVE",
"194 141 OFFCURVE",
"224 141 CURVE SMOOTH",
"242 141 OFFCURVE",
"259 142 OFFCURVE",
"276 145 CURVE",
"318 114 OFFCURVE",
"366 99 OFFCURVE",
"419 99 CURVE SMOOTH",
"468 99 OFFCURVE",
"511 112 OFFCURVE",
"546 138 CURVE SMOOTH",
"547 139 OFFCURVE",
"548 141 OFFCURVE",
"548 143 CURVE",
"547 144 OFFCURVE",
"545 145 OFFCURVE",
"544 145 CURVE SMOOTH",
"541 144 LINE",
"507 119 OFFCURVE",
"467 106 OFFCURVE",
"421 106 CURVE SMOOTH",
"372 106 OFFCURVE",
"328 120 OFFCURVE",
"289 148 CURVE",
"359 164 OFFCURVE",
"420 203 OFFCURVE",
"471 265 CURVE SMOOTH",
"518 322 OFFCURVE",
"548 388 OFFCURVE",
"563 461 CURVE SMOOTH",
"566 478 OFFCURVE",
"568 493 OFFCURVE",
"567 508 CURVE",
"616 499 OFFCURVE",
"654 482 OFFCURVE",
"682 458 CURVE SMOOTH",
"711 432 OFFCURVE",
"725 400 OFFCURVE",
"725 363 CURVE SMOOTH",
"725 318 OFFCURVE",
"705 269 OFFCURVE",
"664 216 CURVE SMOOTH",
"549 68 OFFCURVE",
"403 -6 OFFCURVE",
"224 -6 CURVE",
"224 -6 LINE"
);
},
{
closed = 1;
nodes = (
"239 192 OFFCURVE",
"218 229 OFFCURVE",
"209 274 CURVE",
"240 310 OFFCURVE",
"276 341 OFFCURVE",
"317 366 CURVE SMOOTH",
"355 390 OFFCURVE",
"390 405 OFFCURVE",
"423 411 CURVE SMOOTH",
"428 412 OFFCURVE",
"430 415 OFFCURVE",
"430 418 CURVE SMOOTH",
"430 421 OFFCURVE",
"427 422 OFFCURVE",
"421 421 CURVE SMOOTH",
"391 416 OFFCURVE",
"357 403 OFFCURVE",
"318 383 CURVE SMOOTH",
"278 362 OFFCURVE",
"240 337 OFFCURVE",
"204 307 CURVE",
"204 322 LINE SMOOTH",
"204 370 OFFCURVE",
"214 415 OFFCURVE",
"235 457 CURVE",
"302 488 OFFCURVE",
"372 506 OFFCURVE",
"443 513 CURVE SMOOTH",
"459 514 OFFCURVE",
"474 515 OFFCURVE",
"489 515 CURVE SMOOTH",
"510 515 OFFCURVE",
"531 514 OFFCURVE",
"550 511 CURVE",
"551 495 OFFCURVE",
"549 478 OFFCURVE",
"546 461 CURVE SMOOTH",
"533 394 OFFCURVE",
"504 332 OFFCURVE",
"459 277 CURVE SMOOTH",
"406 212 OFFCURVE",
"344 174 OFFCURVE",
"272 163 CURVE",
"272 163 LINE"
);
},
{
closed = 1;
nodes = (
"299 550 OFFCURVE",
"344 584 OFFCURVE",
"397 602 CURVE SMOOTH",
"420 609 OFFCURVE",
"440 613 OFFCURVE",
"458 613 CURVE SMOOTH",
"510 613 OFFCURVE",
"540 586 OFFCURVE",
"548 532 CURVE",
"526 535 OFFCURVE",
"502 537 OFFCURVE",
"477 537 CURVE SMOOTH",
"467 537 OFFCURVE",
"456 537 OFFCURVE",
"445 536 CURVE SMOOTH",
"383 533 OFFCURVE",
"322 522 OFFCURVE",
"262 501 CURVE",
"262 501 LINE"
);
}
);
userData = {
assembly = "PUSHW[ ]	/* 4 values pushed */\01251 5 25 4 \012CALL[ ]	/* CallFunction */\012PUSHW[ ]	/* 4 values pushed */\012120 8 20 4 \012CALL[ ]	/* CallFunction */\012PUSHW[ ]	/* 4 values pushed */\01266 6 58 4 \012CALL[ ]	/* CallFunction */\012NPUSHW[ ]	/* 33 values pushed */\0126 66 22 66 38 66 54 66 70 66 86 66 102 66 118 66 134 66 150 66 166 66 182 66 198 66 214 66 230 66 246 66 16 \012DELTAP1[ ]	/* DeltaExceptionP1 */\012NPUSHW[ ]	/* 33 values pushed */\0126 66 22 66 38 66 54 66 70 66 86 66 102 66 118 66 134 66 150 66 166 66 182 66 198 66 214 66 230 66 246 66 16 \012DELTAP2[ ]	/* DeltaExceptionP2 */\012NPUSHW[ ]	/* 33 values pushed */\0126 66 22 66 38 66 54 66 70 66 86 66 102 66 118 66 134 66 150 66 166 66 182 66 198 66 214 66 230 66 246 66 16 \012DELTAP3[ ]	/* DeltaExceptionP3 */\012PUSHW[ ]	/* 3 values pushed */\01239 58 66 \012SRP1[ ]	/* SetRefPoint1 */\012SRP2[ ]	/* SetRefPoint2 */\012IP[ ]	/* InterpolatePts */\012NPUSHW[ ]	/* 33 values pushed */\0126 51 22 51 38 51 54 51 70 51 86 51 102 51 118 51 134 51 150 51 166 51 182 51 198 51 214 51 230 51 246 51 16 \012DELTAP1[ ]	/* DeltaExceptionP1 */\012NPUSHW[ ]	/* 13 values pushed */\0126 51 22 51 38 51 54 51 70 51 86 51 6 \012DELTAP2[ ]	/* DeltaExceptionP2 */\012NPUSHW[ ]	/* 5 values pushed */\012101 51 117 51 2 \012DELTAP2[ ]	/* DeltaExceptionP2 */\012PUSHW[ ]	/* 1 value pushed */\01258 \012SRP0[ ]	/* SetRefPoint0 */\012PUSHW[ ]	/* 1 value pushed */\01256 \012MDRP[10000]	/* MoveDirectRelPt */\012PUSHW[ ]	/* 1 value pushed */\01256 \012MDAP[1]	/* MoveDirectAbsPt */\012PUSHW[ ]	/* 1 value pushed */\01266 \012SRP0[ ]	/* SetRefPoint0 */\012PUSHW[ ]	/* 1 value pushed */\01268 \012MDRP[10000]	/* MoveDirectRelPt */\012PUSHW[ ]	/* 1 value pushed */\01268 \012MDAP[1]	/* MoveDirectAbsPt */\012NPUSHW[ ]	/* 33 values pushed */\0126 120 22 120 38 120 54 120 70 120 86 120 102 120 118 120 134 120 150 120 166 120 182 120 198 120 214 120 230 120 246 120 16 \012DELTAP1[ ]	/* DeltaExceptionP1 */\012NPUSHW[ ]	/* 13 values pushed */\0126 120 22 120 38 120 54 120 70 120 86 120 6 \012DELTAP2[ ]	/* DeltaExceptionP2 */\012NPUSHW[ ]	/* 5 values pushed */\012101 120 117 120 2 \012DELTAP2[ ]	/* DeltaExceptionP2 */\012SVTCA[0]	/* SetFreedomAndProjectionVectorToAxis */\012PUSHW[ ]	/* 1 value pushed */\0120 \012RCVT[ ]	/* ReadCVT */\012IF[ ]	/* If */\012PUSHW[ ]	/* 1 value pushed */\0124 \012MDAP[1]	/* MoveDirectAbsPt */\012ELSE[ ]	/* Else */\012PUSHW[ ]	/* 2 values pushed */\0124 15 \012MIAP[0]	/* MoveIndirectAbsPt */\012EIF[ ]	/* EndIf */\012PUSHW[ ]	/* 1 value pushed */\0120 \012RCVT[ ]	/* ReadCVT */\012IF[ ]	/* If */\012PUSHW[ ]	/* 1 value pushed */\01231 \012MDAP[1]	/* MoveDirectAbsPt */\012ELSE[ ]	/* Else */\012PUSHW[ ]	/* 2 values pushed */\01231 15 \012MIAP[0]	/* MoveIndirectAbsPt */\012EIF[ ]	/* EndIf */\012PUSHW[ ]	/* 4 values pushed */\012123 4 16 4 \012CALL[ ]	/* CallFunction */\012PUSHW[ ]	/* 4 values pushed */\01243 3 116 4 \012CALL[ ]	/* CallFunction */\012PUSHW[ ]	/* 1 value pushed */\01243 \012SRP0[ ]	/* SetRefPoint0 */\012PUSHW[ ]	/* 1 value pushed */\01245 \012MDRP[10000]	/* MoveDirectRelPt */\012PUSHW[ ]	/* 1 value pushed */\01245 \012MDAP[1]	/* MoveDirectAbsPt */\012PUSHW[ ]	/* 1 value pushed */\01243 \012SRP0[ ]	/* SetRefPoint0 */\012PUSHW[ ]	/* 1 value pushed */\01282 \012MDRP[10000]	/* MoveDirectRelPt */\012PUSHW[ ]	/* 1 value pushed */\01282 \012MDAP[1]	/* MoveDirectAbsPt */\012PUSHW[ ]	/* 3 values pushed */\012100 116 43 \012SRP1[ ]	/* SetRefPoint1 */\012SRP2[ ]	/* SetRefPoint2 */\012IP[ ]	/* InterpolatePts */\012PUSHW[ ]	/* 1 value pushed */\01216 \012SRP0[ ]	/* SetRefPoint0 */\012PUSHW[ ]	/* 1 value pushed */\012102 \012MDRP[11100]	/* MoveDirectRelPt */\012PUSHW[ ]	/* 1 value pushed */\012116 \012SRP0[ ]	/* SetRefPoint0 */\012PUSHW[ ]	/* 1 value pushed */\012106 \012MDRP[10000]	/* MoveDirectRelPt */\012PUSHW[ ]	/* 1 value pushed */\012106 \012MDAP[1]	/* MoveDirectAbsPt */\012IUP[0]	/* InterpolateUntPts */\012IUP[1]	/* InterpolateUntPts */";
};
width = 763;
}
);
leftKerningGroup = O;
note = O;
rightKerningGroup = O;
unicode = 004F;
},
{
glyphname = Oslash;
lastChange = "2021-10-05 05:06:45 +0000";
layers = (
{
anchors = (
{
name = bottom;
position = "{347, 0}";
},
{
name = top;
position = "{556, 475}";
}
);
layerId = "0CF23081-C341-41E4-8FF8-6B151438961F";
paths = (
{
closed = 1;
nodes = (
"112 -125 OFFCURVE",
"116 -124 OFFCURVE",
"121 -121 CURVE SMOOTH",
"137 -110 OFFCURVE",
"153 -97 OFFCURVE",
"170 -80 CURVE",
"179 -80 LINE SMOOTH",
"256 -80 OFFCURVE",
"332 -63 OFFCURVE",
"409 -29 CURVE SMOOTH",
"461 -9 OFFCURVE",
"570 64 OFFCURVE",
"599 112 CURVE SMOOTH",
"635 167 OFFCURVE",
"659 211 OFFCURVE",
"659 258 CURVE SMOOTH",
"659 308 OFFCURVE",
"636 348 OFFCURVE",
"591 379 CURVE SMOOTH",
"584 383 OFFCURVE",
"577 387 OFFCURVE",
"569 391 CURVE",
"602 420 OFFCURVE",
"631 437 OFFCURVE",
"658 441 CURVE",
"663 441 OFFCURVE",
"669 439 OFFCURVE",
"675 436 CURVE SMOOTH",
"681 433 OFFCURVE",
"685 431 OFFCURVE",
"688 431 CURVE SMOOTH",
"692 431 OFFCURVE",
"694 433 OFFCURVE",
"694 436 CURVE SMOOTH",
"694 442 OFFCURVE",
"690 447 OFFCURVE",
"683 451 CURVE SMOOTH",
"671 458 OFFCURVE",
"658 461 OFFCURVE",
"643 461 CURVE SMOOTH",
"603 461 OFFCURVE",
"567 440 OFFCURVE",
"531 408 CURVE",
"516 412 OFFCURVE",
"501 416 OFFCURVE",
"484 419 CURVE",
"481 443 OFFCURVE",
"472 462 OFFCURVE",
"457 475 CURVE SMOOTH",
"439 492 OFFCURVE",
"415 500 OFFCURVE",
"386 500 CURVE SMOOTH",
"321 500 OFFCURVE",
"265 472 OFFCURVE",
"217 415 CURVE",
"208 406 OFFCURVE",
"201 396 OFFCURVE",
"194 386 CURVE",
"145 368 OFFCURVE",
"105 346 OFFCURVE",
"74 320 CURVE SMOOTH",
"25 279 OFFCURVE",
"0 232 OFFCURVE",
"0 179 CURVE SMOOTH",
"0 142 OFFCURVE",
"25 107 OFFCURVE",
"58 92 CURVE",
"47 66 OFFCURVE",
"41 42 OFFCURVE",
"41 20 CURVE SMOOTH",
"41 -10 OFFCURVE",
"52 -34 OFFCURVE",
"74 -51 CURVE SMOOTH",
"91 -66 OFFCURVE",
"114 -75 OFFCURVE",
"144 -78 CURVE",
"139 -84 OFFCURVE",
"133 -90 OFFCURVE",
"128 -95 CURVE SMOOTH",
"111 -111 LINE",
"106 -114 OFFCURVE",
"104 -118 OFFCURVE",
"104 -121 CURVE SMOOTH",
"104 -124 OFFCURVE",
"106 -125 OFFCURVE",
"109 -125 CURVE",
"109 -125 LINE"
);
},
{
closed = 1;
nodes = (
"112 -56 OFFCURVE",
"84 -25 OFFCURVE",
"84 23 CURVE SMOOTH",
"84 42 OFFCURVE",
"88 61 OFFCURVE",
"96 82 CURVE",
"123 74 OFFCURVE",
"150 70 OFFCURVE",
"178 70 CURVE SMOOTH",
"216 70 OFFCURVE",
"251 77 OFFCURVE",
"284 92 CURVE",
"247 36 OFFCURVE",
"205 -14 OFFCURVE",
"161 -61 CURVE",
"161 -61 LINE"
);
},
{
closed = 1;
nodes = (
"156 86 OFFCURVE",
"130 90 OFFCURVE",
"103 98 CURVE",
"126 150 OFFCURVE",
"165 198 OFFCURVE",
"218 242 CURVE SMOOTH",
"266 281 OFFCURVE",
"312 304 OFFCURVE",
"356 313 CURVE",
"361 313 OFFCURVE",
"363 315 OFFCURVE",
"363 319 CURVE SMOOTH",
"363 321 OFFCURVE",
"360 322 OFFCURVE",
"355 321 CURVE SMOOTH",
"310 314 OFFCURVE",
"260 292 OFFCURVE",
"203 253 CURVE SMOOTH",
"142 210 OFFCURVE",
"97 162 OFFCURVE",
"68 109 CURVE",
"40 121 OFFCURVE",
"20 150 OFFCURVE",
"20 181 CURVE SMOOTH",
"20 226 OFFCURVE",
"46 266 OFFCURVE",
"98 303 CURVE SMOOTH",
"119 318 OFFCURVE",
"142 332 OFFCURVE",
"169 345 CURVE",
"155 316 OFFCURVE",
"148 286 OFFCURVE",
"148 253 CURVE SMOOTH",
"148 241 OFFCURVE",
"151 235 OFFCURVE",
"154 235 CURVE SMOOTH",
"157 235 OFFCURVE",
"160 241 OFFCURVE",
"160 253 CURVE SMOOTH",
"160 290 OFFCURVE",
"169 320 OFFCURVE",
"185 352 CURVE",
"209 363 OFFCURVE",
"235 371 OFFCURVE",
"263 380 CURVE SMOOTH",
"324 397 OFFCURVE",
"375 406 OFFCURVE",
"418 406 CURVE SMOOTH",
"437 406 OFFCURVE",
"455 404 OFFCURVE",
"471 403 CURVE",
"471 397 LINE SMOOTH",
"471 376 OFFCURVE",
"469 356 OFFCURVE",
"464 336 CURVE",
"447 315 OFFCURVE",
"431 295 OFFCURVE",
"416 274 CURVE SMOOTH",
"372 215 LINE",
"339 170 LINE SMOOTH",
"328 155 OFFCURVE",
"316 138 OFFCURVE",
"304 121 CURVE",
"265 98 OFFCURVE",
"224 86 OFFCURVE",
"181 86 CURVE",
"181 86 LINE"
);
},
{
closed = 1;
nodes = (
"225 -26 OFFCURVE",
"266 22 OFFCURVE",
"313 82 CURVE SMOOTH",
"354 135 LINE",
"363 143 OFFCURVE",
"372 151 OFFCURVE",
"381 160 CURVE SMOOTH",
"408 188 OFFCURVE",
"430 219 OFFCURVE",
"447 254 CURVE",
"490 307 OFFCURVE",
"523 347 OFFCURVE",
"554 378 CURVE",
"557 377 OFFCURVE",
"561 376 OFFCURVE",
"563 374 CURVE SMOOTH",
"569 369 LINE SMOOTH",
"604 340 OFFCURVE",
"628 312 OFFCURVE",
"628 269 CURVE SMOOTH",
"628 229 OFFCURVE",
"608 186 OFFCURVE",
"573 138 CURVE SMOOTH",
"473 1 OFFCURVE",
"357 -59 OFFCURVE",
"189 -62 CURVE",
"189 -62 LINE"
);
},
{
closed = 1;
nodes = (
"211 392 LINE",
"215 398 LINE SMOOTH",
"244 442 OFFCURVE",
"286 469 OFFCURVE",
"333 484 CURVE SMOOTH",
"353 491 OFFCURVE",
"371 494 OFFCURVE",
"388 494 CURVE SMOOTH",
"415 494 OFFCURVE",
"436 485 OFFCURVE",
"451 467 CURVE SMOOTH",
"460 455 OFFCURVE",
"466 440 OFFCURVE",
"469 422 CURVE",
"448 425 OFFCURVE",
"426 426 OFFCURVE",
"403 426 CURVE SMOOTH",
"350 426 OFFCURVE",
"295 418 OFFCURVE",
"238 401 CURVE SMOOTH",
"225 397 LINE",
"211 392 LINE"
);
},
{
closed = 1;
nodes = (
"481 357 LINE",
"482 358 LINE",
"485 372 OFFCURVE",
"486 385 OFFCURVE",
"486 398 CURVE SMOOTH",
"486 400 LINE",
"495 399 OFFCURVE",
"506 396 OFFCURVE",
"515 393 CURVE",
"498 375 LINE",
"481 357 LINE"
);
}
);
userData = {
assembly = "PUSHW[ ]	/* 4 values pushed */\01258 7 160 4 \012CALL[ ]	/* CallFunction */\012PUSHW[ ]	/* 4 values pushed */\01286 8 155 4 \012CALL[ ]	/* CallFunction */\012PUSHW[ ]	/* 4 values pushed */\012128 8 110 4 \012CALL[ ]	/* CallFunction */\012PUSHW[ ]	/* 3 values pushed */\0120 160 128 \012SRP1[ ]	/* SetRefPoint1 */\012SRP2[ ]	/* SetRefPoint2 */\012IP[ ]	/* InterpolatePts */\012PUSHW[ ]	/* 3 values pushed */\01210 160 128 \012SRP1[ ]	/* SetRefPoint1 */\012SRP2[ ]	/* SetRefPoint2 */\012IP[ ]	/* InterpolatePts */\012PUSHW[ ]	/* 3 values pushed */\01217 160 128 \012SRP1[ ]	/* SetRefPoint1 */\012SRP2[ ]	/* SetRefPoint2 */\012IP[ ]	/* InterpolatePts */\012PUSHW[ ]	/* 3 values pushed */\01220 160 128 \012SRP1[ ]	/* SetRefPoint1 */\012SRP2[ ]	/* SetRefPoint2 */\012IP[ ]	/* InterpolatePts */\012PUSHW[ ]	/* 3 values pushed */\01254 160 128 \012SRP1[ ]	/* SetRefPoint1 */\012SRP2[ ]	/* SetRefPoint2 */\012IP[ ]	/* InterpolatePts */\012NPUSHW[ ]	/* 33 values pushed */\0126 58 22 58 38 58 54 58 70 58 86 58 102 58 118 58 134 58 150 58 166 58 182 58 198 58 214 58 230 58 246 58 16 \012DELTAP1[ ]	/* DeltaExceptionP1 */\012NPUSHW[ ]	/* 33 values pushed */\0126 58 22 58 38 58 54 58 70 58 86 58 102 58 118 58 134 58 150 58 166 58 182 58 198 58 214 58 230 58 246 58 16 \012DELTAP2[ ]	/* DeltaExceptionP2 */\012NPUSHW[ ]	/* 33 values pushed */\0126 58 22 58 38 58 54 58 70 58 86 58 102 58 118 58 134 58 150 58 166 58 182 58 198 58 214 58 230 58 246 58 16 \012DELTAP3[ ]	/* DeltaExceptionP3 */\012PUSHW[ ]	/* 3 values pushed */\01280 160 128 \012SRP1[ ]	/* SetRefPoint1 */\012SRP2[ ]	/* SetRefPoint2 */\012IP[ ]	/* InterpolatePts */\012NPUSHW[ ]	/* 33 values pushed */\0126 86 22 86 38 86 54 86 70 86 86 86 102 86 118 86 134 86 150 86 166 86 182 86 198 86 214 86 230 86 246 86 16 \012DELTAP1[ ]	/* DeltaExceptionP1 */\012NPUSHW[ ]	/* 13 values pushed */\0126 86 22 86 38 86 54 86 70 86 86 86 6 \012DELTAP2[ ]	/* DeltaExceptionP2 */\012NPUSHW[ ]	/* 5 values pushed */\012101 86 117 86 2 \012DELTAP2[ ]	/* DeltaExceptionP2 */\012PUSHW[ ]	/* 3 values pushed */\012102 160 128 \012SRP1[ ]	/* SetRefPoint1 */\012SRP2[ ]	/* SetRefPoint2 */\012IP[ ]	/* InterpolatePts */\012NPUSHW[ ]	/* 5 values pushed */\012106 110 122 110 2 \012DELTAP2[ ]	/* DeltaExceptionP2 */\012NPUSHW[ ]	/* 33 values pushed */\0129 110 25 110 41 110 57 110 73 110 89 110 105 110 121 110 137 110 153 110 169 110 185 110 201 110 217 110 233 110 249 110 16 \012DELTAP1[ ]	/* DeltaExceptionP1 */\012NPUSHW[ ]	/* 13 values pushed */\0129 110 25 110 41 110 57 110 73 110 89 110 6 \012DELTAP2[ ]	/* DeltaExceptionP2 */\012PUSHW[ ]	/* 3 values pushed */\012123 160 128 \012SRP1[ ]	/* SetRefPoint1 */\012SRP2[ ]	/* SetRefPoint2 */\012IP[ ]	/* InterpolatePts */\012PUSHW[ ]	/* 3 values pushed */\012151 160 128 \012SRP1[ ]	/* SetRefPoint1 */\012SRP2[ ]	/* SetRefPoint2 */\012IP[ ]	/* InterpolatePts */\012PUSHW[ ]	/* 1 value pushed */\012128 \012SRP0[ ]	/* SetRefPoint0 */\012PUSHW[ ]	/* 1 value pushed */\012184 \012MDRP[11100]	/* MoveDirectRelPt */\012SVTCA[0]	/* SetFreedomAndProjectionVectorToAxis */\012PUSHW[ ]	/* 1 value pushed */\012142 \012MDAP[1]	/* MoveDirectAbsPt */\012PUSHW[ ]	/* 1 value pushed */\012144 \012MDAP[1]	/* MoveDirectAbsPt */\012PUSHW[ ]	/* 1 value pushed */\012146 \012MDAP[1]	/* MoveDirectAbsPt */\012PUSHW[ ]	/* 4 values pushed */\012102 3 138 4 \012CALL[ ]	/* CallFunction */\012PUSHW[ ]	/* 4 values pushed */\01215 4 39 4 \012CALL[ ]	/* CallFunction */\012PUSHW[ ]	/* 4 values pushed */\01275 2 82 4 \012CALL[ ]	/* CallFunction */\012PUSHW[ ]	/* 1 value pushed */\01215 \012SRP0[ ]	/* SetRefPoint0 */\012PUSHW[ ]	/* 1 value pushed */\0120 \012MDRP[10000]	/* MoveDirectRelPt */\012PUSHW[ ]	/* 1 value pushed */\0120 \012MDAP[1]	/* MoveDirectAbsPt */\012PUSHW[ ]	/* 1 value pushed */\01239 \012SRP0[ ]	/* SetRefPoint0 */\012PUSHW[ ]	/* 1 value pushed */\01236 \012MDRP[10000]	/* MoveDirectRelPt */\012PUSHW[ ]	/* 1 value pushed */\01236 \012MDAP[1]	/* MoveDirectAbsPt */\012PUSHW[ ]	/* 1 value pushed */\012102 \012SRP0[ ]	/* SetRefPoint0 */\012PUSHW[ ]	/* 1 value pushed */\01277 \012MDRP[10000]	/* MoveDirectRelPt */\012PUSHW[ ]	/* 1 value pushed */\01277 \012MDAP[1]	/* MoveDirectAbsPt */\012PUSHW[ ]	/* 1 value pushed */\012138 \012SRP0[ ]	/* SetRefPoint0 */\012PUSHW[ ]	/* 1 value pushed */\012151 \012MDRP[10000]	/* MoveDirectRelPt */\012PUSHW[ ]	/* 1 value pushed */\012151 \012MDAP[1]	/* MoveDirectAbsPt */\012PUSHW[ ]	/* 1 value pushed */\01239 \012SRP0[ ]	/* SetRefPoint0 */\012PUSHW[ ]	/* 1 value pushed */\012168 \012MDRP[11100]	/* MoveDirectRelPt */\012IUP[0]	/* InterpolateUntPts */\012IUP[1]	/* InterpolateUntPts */";
};
width = 694;
}
);
note = Oslash;
unicode = 00D8;
},
{
glyphname = OE;
lastChange = "2021-10-05 05:06:45 +0000";
layers = (
{
layerId = "0CF23081-C341-41E4-8FF8-6B151438961F";
paths = (
{
closed = 1;
nodes = (
"764 -38 OFFCURVE",
"782 -37 OFFCURVE",
"801 -34 CURVE SMOOTH",
"864 -27 OFFCURVE",
"919 -9 OFFCURVE",
"964 19 CURVE SMOOTH",
"1015 51 OFFCURVE",
"1042 88 OFFCURVE",
"1042 130 CURVE SMOOTH",
"1042 134 OFFCURVE",
"1041 136 OFFCURVE",
"1039 136 CURVE SMOOTH",
"1036 136 OFFCURVE",
"1035 133 OFFCURVE",
"1034 128 CURVE SMOOTH",
"1031 94 OFFCURVE",
"1006 63 OFFCURVE",
"961 35 CURVE SMOOTH",
"918 9 OFFCURVE",
"867 -8 OFFCURVE",
"809 -16 CURVE SMOOTH",
"792 -19 OFFCURVE",
"775 -20 OFFCURVE",
"759 -20 CURVE SMOOTH",
"710 -20 OFFCURVE",
"671 -9 OFFCURVE",
"642 12 CURVE SMOOTH",
"615 32 OFFCURVE",
"601 57 OFFCURVE",
"601 87 CURVE SMOOTH",
"601 91 OFFCURVE",
"601 95 OFFCURVE",
"602 99 CURVE",
"647 132 OFFCURVE",
"683 170 OFFCURVE",
"711 212 CURVE",
"727 219 OFFCURVE",
"744 224 OFFCURVE",
"763 229 CURVE SMOOTH",
"820 244 OFFCURVE",
"875 251 OFFCURVE",
"926 249 CURVE SMOOTH",
"942 248 OFFCURVE",
"950 253 OFFCURVE",
"950 262 CURVE SMOOTH",
"950 270 OFFCURVE",
"944 274 OFFCURVE",
"932 274 CURVE SMOOTH",
"929 274 LINE SMOOTH",
"892 273 OFFCURVE",
"857 277 OFFCURVE",
"824 286 CURVE SMOOTH",
"786 297 OFFCURVE",
"764 313 OFFCURVE",
"759 332 CURVE",
"759 356 LINE",
"771 399 OFFCURVE",
"822 441 OFFCURVE",
"883 461 CURVE SMOOTH",
"920 472 OFFCURVE",
"952 478 OFFCURVE",
"978 478 CURVE SMOOTH",
"1005 478 OFFCURVE",
"1026 472 OFFCURVE",
"1039 460 CURVE SMOOTH",
"1050 451 OFFCURVE",
"1056 438 OFFCURVE",
"1056 423 CURVE SMOOTH",
"1056 398 OFFCURVE",
"1014 387 OFFCURVE",
"1014 376 CURVE SMOOTH",
"1014 374 OFFCURVE",
"1017 373 OFFCURVE",
"1022 373 CURVE SMOOTH",
"1026 373 LINE SMOOTH",
"1063 378 OFFCURVE",
"1085 403 OFFCURVE",
"1085 428 CURVE SMOOTH",
"1085 445 OFFCURVE",
"1076 460 OFFCURVE",
"1059 472 CURVE SMOOTH",
"1040 485 OFFCURVE",
"1014 492 OFFCURVE",
"980 492 CURVE SMOOTH",
"952 492 OFFCURVE",
"920 487 OFFCURVE",
"884 478 CURVE SMOOTH",
"824 461 OFFCURVE",
"779 437 OFFCURVE",
"749 406 CURVE",
"724 471 OFFCURVE",
"663 512 OFFCURVE",
"566 529 CURVE",
"561 559 OFFCURVE",
"549 582 OFFCURVE",
"529 598 CURVE SMOOTH",
"510 612 OFFCURVE",
"485 619 OFFCURVE",
"456 619 CURVE SMOOTH",
"416 619 OFFCURVE",
"376 607 OFFCURVE",
"336 582 CURVE SMOOTH",
"298 559 OFFCURVE",
"267 529 OFFCURVE",
"243 494 CURVE",
"178 469 OFFCURVE",
"127 438 OFFCURVE",
"89 400 CURVE SMOOTH",
"47 358 OFFCURVE",
"26 312 OFFCURVE",
"26 263 CURVE SMOOTH",
"26 220 OFFCURVE",
"54 182 OFFCURVE",
"91 165 CURVE",
"78 136 OFFCURVE",
"72 110 OFFCURVE",
"72 85 CURVE SMOOTH",
"72 51 OFFCURVE",
"84 25 OFFCURVE",
"108 6 CURVE SMOOTH",
"135 -15 OFFCURVE",
"174 -26 OFFCURVE",
"225 -26 CURVE SMOOTH",
"336 -26 OFFCURVE",
"460 8 OFFCURVE",
"561 71 CURVE",
"564 40 OFFCURVE",
"582 14 OFFCURVE",
"613 -6 CURVE SMOOTH",
"647 -27 OFFCURVE",
"691 -38 OFFCURVE",
"746 -38 CURVE",
"746 -38 LINE"
);
},
{
closed = 1;
nodes = (
"200 159 OFFCURVE",
"171 163 OFFCURVE",
"141 171 CURVE",
"154 202 OFFCURVE",
"173 232 OFFCURVE",
"198 261 CURVE",
"208 222 OFFCURVE",
"228 188 OFFCURVE",
"258 161 CURVE",
"248 160 OFFCURVE",
"238 159 OFFCURVE",
"228 159 CURVE",
"228 159 LINE"
);
},
{
closed = 1;
nodes = (
"70 198 OFFCURVE",
"49 230 OFFCURVE",
"49 265 CURVE SMOOTH",
"49 298 OFFCURVE",
"65 332 OFFCURVE",
"97 365 CURVE SMOOTH",
"126 396 OFFCURVE",
"166 424 OFFCURVE",
"217 449 CURVE",
"199 409 OFFCURVE",
"190 367 OFFCURVE",
"190 322 CURVE SMOOTH",
"190 313 OFFCURVE",
"190 304 OFFCURVE",
"191 296 CURVE",
"152 261 OFFCURVE",
"122 224 OFFCURVE",
"101 185 CURVE",
"101 185 LINE"
);
},
{
closed = 1;
nodes = (
"157 -6 OFFCURVE",
"119 29 OFFCURVE",
"119 89 CURVE SMOOTH",
"119 109 OFFCURVE",
"124 131 OFFCURVE",
"133 154 CURVE",
"164 145 OFFCURVE",
"194 141 OFFCURVE",
"224 141 CURVE SMOOTH",
"242 141 OFFCURVE",
"259 142 OFFCURVE",
"276 145 CURVE",
"318 114 OFFCURVE",
"366 99 OFFCURVE",
"419 99 CURVE SMOOTH",
"468 99 OFFCURVE",
"511 112 OFFCURVE",
"546 138 CURVE SMOOTH",
"547 139 OFFCURVE",
"548 141 OFFCURVE",
"548 143 CURVE",
"547 144 OFFCURVE",
"545 145 OFFCURVE",
"544 145 CURVE SMOOTH",
"541 144 LINE",
"507 119 OFFCURVE",
"467 106 OFFCURVE",
"421 106 CURVE SMOOTH",
"372 106 OFFCURVE",
"328 120 OFFCURVE",
"289 148 CURVE",
"359 164 OFFCURVE",
"420 203 OFFCURVE",
"471 265 CURVE SMOOTH",
"518 322 OFFCURVE",
"548 388 OFFCURVE",
"563 461 CURVE SMOOTH",
"566 478 OFFCURVE",
"568 493 OFFCURVE",
"567 508 CURVE",
"662 491 OFFCURVE",
"721 442 OFFCURVE",
"725 371 CURVE",
"722 362 OFFCURVE",
"719 353 OFFCURVE",
"719 344 CURVE SMOOTH",
"719 338 OFFCURVE",
"720 333 OFFCURVE",
"721 328 CURVE",
"713 293 OFFCURVE",
"694 256 OFFCURVE",
"664 216 CURVE",
"663 216 LINE",
"610 186 OFFCURVE",
"578 152 OFFCURVE",
"565 113 CURVE",
"470 34 OFFCURVE",
"357 -6 OFFCURVE",
"224 -6 CURVE",
"224 -6 LINE"
);
},
{
closed = 1;
nodes = (
"239 192 OFFCURVE",
"218 229 OFFCURVE",
"209 274 CURVE",
"240 310 OFFCURVE",
"276 341 OFFCURVE",
"317 366 CURVE SMOOTH",
"355 390 OFFCURVE",
"390 405 OFFCURVE",
"423 411 CURVE SMOOTH",
"428 412 OFFCURVE",
"430 415 OFFCURVE",
"430 418 CURVE SMOOTH",
"430 421 OFFCURVE",
"427 422 OFFCURVE",
"421 421 CURVE SMOOTH",
"391 416 OFFCURVE",
"357 403 OFFCURVE",
"318 383 CURVE SMOOTH",
"278 362 OFFCURVE",
"240 337 OFFCURVE",
"204 307 CURVE",
"204 322 LINE SMOOTH",
"204 370 OFFCURVE",
"214 415 OFFCURVE",
"235 457 CURVE",
"302 488 OFFCURVE",
"372 506 OFFCURVE",
"443 513 CURVE SMOOTH",
"459 514 OFFCURVE",
"474 515 OFFCURVE",
"489 515 CURVE SMOOTH",
"510 515 OFFCURVE",
"531 514 OFFCURVE",
"550 511 CURVE",
"551 495 OFFCURVE",
"549 478 OFFCURVE",
"546 461 CURVE SMOOTH",
"533 394 OFFCURVE",
"504 332 OFFCURVE",
"459 277 CURVE SMOOTH",
"406 212 OFFCURVE",
"344 174 OFFCURVE",
"272 163 CURVE",
"272 163 LINE"
);
},
{
closed = 1;
nodes = (
"299 550 OFFCURVE",
"344 584 OFFCURVE",
"397 602 CURVE SMOOTH",
"420 609 OFFCURVE",
"440 613 OFFCURVE",
"458 613 CURVE SMOOTH",
"510 613 OFFCURVE",
"540 586 OFFCURVE",
"548 532 CURVE",
"526 535 OFFCURVE",
"502 537 OFFCURVE",
"477 537 CURVE SMOOTH",
"467 537 OFFCURVE",
"456 537 OFFCURVE",
"445 536 CURVE SMOOTH",
"383 533 OFFCURVE",
"322 522 OFFCURVE",
"262 501 CURVE",
"262 501 LINE"
);
},
{
closed = 1;
nodes = (
"740 262 OFFCURVE",
"746 278 OFFCURVE",
"751 293 CURVE",
"774 277 OFFCURVE",
"803 269 OFFCURVE",
"836 270 CURVE",
"778 259 OFFCURVE",
"743 251 OFFCURVE",
"732 246 CURVE",
"732 246 LINE"
);
}
);
userData = {
assembly = "PUSHW[ ]	/* 4 values pushed */\01222 5 130 4 \012CALL[ ]	/* CallFunction */\012PUSHW[ ]	/* 4 values pushed */\012103 8 125 4 \012CALL[ ]	/* CallFunction */\012PUSHW[ ]	/* 4 values pushed */\01237 6 29 4 \012CALL[ ]	/* CallFunction */\012PUSHW[ ]	/* 4 values pushed */\012152 5 161 4 \012CALL[ ]	/* CallFunction */\012PUSHW[ ]	/* 3 values pushed */\0120 130 152 \012SRP1[ ]	/* SetRefPoint1 */\012SRP2[ ]	/* SetRefPoint2 */\012IP[ ]	/* InterpolatePts */\012PUSHW[ ]	/* 3 values pushed */\0126 130 152 \012SRP1[ ]	/* SetRefPoint1 */\012SRP2[ ]	/* SetRefPoint2 */\012IP[ ]	/* InterpolatePts */\012NPUSHW[ ]	/* 33 values pushed */\0126 37 22 37 38 37 54 37 70 37 86 37 102 37 118 37 134 37 150 37 166 37 182 37 198 37 214 37 230 37 246 37 16 \012DELTAP1[ ]	/* DeltaExceptionP1 */\012NPUSHW[ ]	/* 33 values pushed */\0126 37 22 37 38 37 54 37 70 37 86 37 102 37 118 37 134 37 150 37 166 37 182 37 198 37 214 37 230 37 246 37 16 \012DELTAP2[ ]	/* DeltaExceptionP2 */\012NPUSHW[ ]	/* 33 values pushed */\0126 37 22 37 38 37 54 37 70 37 86 37 102 37 118 37 134 37 150 37 166 37 182 37 198 37 214 37 230 37 246 37 16 \012DELTAP3[ ]	/* DeltaExceptionP3 */\012PUSHW[ ]	/* 3 values pushed */\01210 29 37 \012SRP1[ ]	/* SetRefPoint1 */\012SRP2[ ]	/* SetRefPoint2 */\012IP[ ]	/* InterpolatePts */\012PUSHW[ ]	/* 3 values pushed */\01216 130 152 \012SRP1[ ]	/* SetRefPoint1 */\012SRP2[ ]	/* SetRefPoint2 */\012IP[ ]	/* InterpolatePts */\012PUSHW[ ]	/* 3 values pushed */\01218 130 152 \012SRP1[ ]	/* SetRefPoint1 */\012SRP2[ ]	/* SetRefPoint2 */\012IP[ ]	/* InterpolatePts */\012NPUSHW[ ]	/* 33 values pushed */\0126 22 22 22 38 22 54 22 70 22 86 22 102 22 118 22 134 22 150 22 166 22 182 22 198 22 214 22 230 22 246 22 16 \012DELTAP1[ ]	/* DeltaExceptionP1 */\012NPUSHW[ ]	/* 13 values pushed */\0126 22 22 22 38 22 54 22 70 22 86 22 6 \012DELTAP2[ ]	/* DeltaExceptionP2 */\012NPUSHW[ ]	/* 5 values pushed */\012101 22 117 22 2 \012DELTAP2[ ]	/* DeltaExceptionP2 */\012PUSHW[ ]	/* 1 value pushed */\01229 \012SRP0[ ]	/* SetRefPoint0 */\012PUSHW[ ]	/* 1 value pushed */\01227 \012MDRP[10000]	/* MoveDirectRelPt */\012PUSHW[ ]	/* 1 value pushed */\01227 \012MDAP[1]	/* MoveDirectAbsPt */\012PUSHW[ ]	/* 1 value pushed */\01237 \012SRP0[ ]	/* SetRefPoint0 */\012PUSHW[ ]	/* 1 value pushed */\01239 \012MDRP[10000]	/* MoveDirectRelPt */\012PUSHW[ ]	/* 1 value pushed */\01239 \012MDAP[1]	/* MoveDirectAbsPt */\012PUSHW[ ]	/* 3 values pushed */\01259 130 152 \012SRP1[ ]	/* SetRefPoint1 */\012SRP2[ ]	/* SetRefPoint2 */\012IP[ ]	/* InterpolatePts */\012PUSHW[ ]	/* 3 values pushed */\01261 130 152 \012SRP1[ ]	/* SetRefPoint1 */\012SRP2[ ]	/* SetRefPoint2 */\012IP[ ]	/* InterpolatePts */\012PUSHW[ ]	/* 3 values pushed */\01263 130 152 \012SRP1[ ]	/* SetRefPoint1 */\012SRP2[ ]	/* SetRefPoint2 */\012IP[ ]	/* InterpolatePts */\012PUSHW[ ]	/* 3 values pushed */\01283 130 152 \012SRP1[ ]	/* SetRefPoint1 */\012SRP2[ ]	/* SetRefPoint2 */\012IP[ ]	/* InterpolatePts */\012PUSHW[ ]	/* 3 values pushed */\01293 130 152 \012SRP1[ ]	/* SetRefPoint1 */\012SRP2[ ]	/* SetRefPoint2 */\012IP[ ]	/* InterpolatePts */\012NPUSHW[ ]	/* 33 values pushed */\0126 103 22 103 38 103 54 103 70 103 86 103 102 103 118 103 134 103 150 103 166 103 182 103 198 103 214 103 230 103 246 103 16 \012DELTAP1[ ]	/* DeltaExceptionP1 */\012NPUSHW[ ]	/* 13 values pushed */\0126 103 22 103 38 103 54 103 70 103 86 103 6 \012DELTAP2[ ]	/* DeltaExceptionP2 */\012NPUSHW[ ]	/* 5 values pushed */\012101 103 117 103 2 \012DELTAP2[ ]	/* DeltaExceptionP2 */\012PUSHW[ ]	/* 3 values pushed */\012118 130 152 \012SRP1[ ]	/* SetRefPoint1 */\012SRP2[ ]	/* SetRefPoint2 */\012IP[ ]	/* InterpolatePts */\012PUSHW[ ]	/* 3 values pushed */\012144 130 152 \012SRP1[ ]	/* SetRefPoint1 */\012SRP2[ ]	/* SetRefPoint2 */\012IP[ ]	/* InterpolatePts */\012NPUSHW[ ]	/* 5 values pushed */\012106 161 122 161 2 \012DELTAP2[ ]	/* DeltaExceptionP2 */\012NPUSHW[ ]	/* 33 values pushed */\0129 161 25 161 41 161 57 161 73 161 89 161 105 161 121 161 137 161 153 161 169 161 185 161 201 161 217 161 233 161 249 161 16 \012DELTAP1[ ]	/* DeltaExceptionP1 */\012NPUSHW[ ]	/* 13 values pushed */\0129 161 25 161 41 161 57 161 73 161 89 161 6 \012DELTAP2[ ]	/* DeltaExceptionP2 */\012PUSHW[ ]	/* 1 value pushed */\012152 \012SRP0[ ]	/* SetRefPoint0 */\012PUSHW[ ]	/* 1 value pushed */\012203 \012MDRP[11100]	/* MoveDirectRelPt */\012SVTCA[0]	/* SetFreedomAndProjectionVectorToAxis */\012PUSHW[ ]	/* 1 value pushed */\0120 \012RCVT[ ]	/* ReadCVT */\012IF[ ]	/* If */\012PUSHW[ ]	/* 1 value pushed */\012138 \012MDAP[1]	/* MoveDirectAbsPt */\012ELSE[ ]	/* Else */\012PUSHW[ ]	/* 2 values pushed */\012138 15 \012MIAP[0]	/* MoveIndirectAbsPt */\012EIF[ ]	/* EndIf */\012PUSHW[ ]	/* 1 value pushed */\0120 \012RCVT[ ]	/* ReadCVT */\012IF[ ]	/* If */\012PUSHW[ ]	/* 1 value pushed */\0122 \012MDAP[1]	/* MoveDirectAbsPt */\012ELSE[ ]	/* Else */\012PUSHW[ ]	/* 2 values pushed */\0122 15 \012MIAP[0]	/* MoveIndirectAbsPt */\012EIF[ ]	/* EndIf */\012PUSHW[ ]	/* 4 values pushed */\012192 3 114 4 \012CALL[ ]	/* CallFunction */\012PUSHW[ ]	/* 3 values pushed */\01285 121 3 \012CALL[ ]	/* CallFunction */\012PUSHW[ ]	/* 4 values pushed */\012148 1 165 4 \012CALL[ ]	/* CallFunction */\012PUSHW[ ]	/* 4 values pushed */\01214 3 99 4 \012CALL[ ]	/* CallFunction */\012PUSHW[ ]	/* 4 values pushed */\012176 4 180 4 \012CALL[ ]	/* CallFunction */\012PUSHW[ ]	/* 3 values pushed */\01210 180 176 \012SRP1[ ]	/* SetRefPoint1 */\012SRP2[ ]	/* SetRefPoint2 */\012IP[ ]	/* InterpolatePts */\012PUSHW[ ]	/* 1 value pushed */\01214 \012SRP0[ ]	/* SetRefPoint0 */\012PUSHW[ ]	/* 1 value pushed */\01216 \012MDRP[10000]	/* MoveDirectRelPt */\012PUSHW[ ]	/* 1 value pushed */\01216 \012MDAP[1]	/* MoveDirectAbsPt */\012PUSHW[ ]	/* 1 value pushed */\01214 \012SRP0[ ]	/* SetRefPoint0 */\012PUSHW[ ]	/* 1 value pushed */\01253 \012MDRP[10000]	/* MoveDirectRelPt */\012PUSHW[ ]	/* 1 value pushed */\01253 \012MDAP[1]	/* MoveDirectAbsPt */\012PUSHW[ ]	/* 1 value pushed */\012176 \012SRP0[ ]	/* SetRefPoint0 */\012PUSHW[ ]	/* 1 value pushed */\01261 \012MDRP[10000]	/* MoveDirectRelPt */\012PUSHW[ ]	/* 1 value pushed */\01261 \012MDAP[1]	/* MoveDirectAbsPt */\012PUSHW[ ]	/* 3 values pushed */\01283 99 14 \012SRP1[ ]	/* SetRefPoint1 */\012SRP2[ ]	/* SetRefPoint2 */\012IP[ ]	/* InterpolatePts */\012PUSHW[ ]	/* 1 value pushed */\01299 \012SRP0[ ]	/* SetRefPoint0 */\012PUSHW[ ]	/* 1 value pushed */\01289 \012MDRP[10000]	/* MoveDirectRelPt */\012PUSHW[ ]	/* 1 value pushed */\01289 \012MDAP[1]	/* MoveDirectAbsPt */\012PUSHW[ ]	/* 1 value pushed */\01299 \012SRP0[ ]	/* SetRefPoint0 */\012PUSHW[ ]	/* 1 value pushed */\012200 \012MDRP[10000]	/* MoveDirectRelPt */\012PUSHW[ ]	/* 1 value pushed */\012200 \012MDAP[1]	/* MoveDirectAbsPt */\012PUSHW[ ]	/* 3 values pushed */\01293 99 200 \012SRP1[ ]	/* SetRefPoint1 */\012SRP2[ ]	/* SetRefPoint2 */\012IP[ ]	/* InterpolatePts */\012PUSHW[ ]	/* 1 value pushed */\012121 \012SRP0[ ]	/* SetRefPoint0 */\012PUSHW[ ]	/* 2 values pushed */\012106 4 \012MIRP[10100]	/* MoveIndirectRelPt */\012PUSHW[ ]	/* 1 value pushed */\012114 \012SRP0[ ]	/* SetRefPoint0 */\012PUSHW[ ]	/* 1 value pushed */\012112 \012MDRP[10000]	/* MoveDirectRelPt */\012PUSHW[ ]	/* 1 value pushed */\012112 \012MDAP[1]	/* MoveDirectAbsPt */\012PUSHW[ ]	/* 3 values pushed */\012118 121 85 \012SRP1[ ]	/* SetRefPoint1 */\012SRP2[ ]	/* SetRefPoint2 */\012IP[ ]	/* InterpolatePts */\012PUSHW[ ]	/* 1 value pushed */\012192 \012SRP0[ ]	/* SetRefPoint0 */\012PUSHW[ ]	/* 1 value pushed */\012194 \012MDRP[10000]	/* MoveDirectRelPt */\012PUSHW[ ]	/* 1 value pushed */\012194 \012MDAP[1]	/* MoveDirectAbsPt */\012IUP[0]	/* InterpolateUntPts */\012IUP[1]	/* InterpolateUntPts */";
};
width = 1060;
}
);
note = OE;
unicode = 0152;
},
{
glyphname = P;
lastChange = "2021-10-05 05:06:45 +0000";
layers = (
{
layerId = "0CF23081-C341-41E4-8FF8-6B151438961F";
paths = (
{
closed = 1;
nodes = (
"1 -87 OFFCURVE",
"2 -85 OFFCURVE",
"2 -82 CURVE SMOOTH",
"1 -78 OFFCURVE",
"1 -74 OFFCURVE",
"1 -69 CURVE SMOOTH",
"1 -30 OFFCURVE",
"28 49 OFFCURVE",
"82 169 CURVE",
"91 165 OFFCURVE",
"102 162 OFFCURVE",
"114 160 CURVE",
"87 95 OFFCURVE",
"74 46 OFFCURVE",
"75 12 CURVE SMOOTH",
"79 -34 OFFCURVE",
"107 -64 OFFCURVE",
"155 -61 CURVE SMOOTH",
"158 -61 OFFCURVE",
"160 -59 OFFCURVE",
"160 -56 CURVE SMOOTH",
"160 -52 OFFCURVE",
"158 -49 OFFCURVE",
"155 -49 CURVE SMOOTH",
"153 -49 OFFCURVE",
"152 -50 OFFCURVE",
"150 -50 CURVE",
"143 -52 LINE",
"128 -52 OFFCURVE",
"117 -44 OFFCURVE",
"110 -30 CURVE SMOOTH",
"102 -17 OFFCURVE",
"99 -2 OFFCURVE",
"99 16 CURVE SMOOTH",
"99 42 OFFCURVE",
"115 88 OFFCURVE",
"147 153 CURVE",
"163 152 OFFCURVE",
"180 151 OFFCURVE",
"197 151 CURVE SMOOTH",
"248 151 OFFCURVE",
"305 161 OFFCURVE",
"369 180 CURVE SMOOTH",
"442 201 OFFCURVE",
"501 226 OFFCURVE",
"547 260 CURVE SMOOTH",
"602 300 OFFCURVE",
"630 344 OFFCURVE",
"630 393 CURVE SMOOTH",
"630 453 OFFCURVE",
"574 490 OFFCURVE",
"463 504 CURVE SMOOTH",
"433 507 OFFCURVE",
"401 509 OFFCURVE",
"368 509 CURVE SMOOTH",
"322 509 OFFCURVE",
"281 506 OFFCURVE",
"246 500 CURVE SMOOTH",
"178 488 LINE",
"172 534 OFFCURVE",
"143 558 OFFCURVE",
"92 558 CURVE SMOOTH",
"47 558 OFFCURVE",
"6 533 OFFCURVE",
"6 499 CURVE SMOOTH",
"6 464 OFFCURVE",
"33 447 OFFCURVE",
"86 447 CURVE SMOOTH",
"106 447 OFFCURVE",
"132 450 OFFCURVE",
"161 456 CURVE",
"159 424 OFFCURVE",
"149 384 OFFCURVE",
"133 336 CURVE",
"130 335 LINE SMOOTH",
"64 306 OFFCURVE",
"26 265 OFFCURVE",
"26 231 CURVE SMOOTH",
"26 207 OFFCURVE",
"40 189 OFFCURVE",
"68 175 CURVE",
"17 57 OFFCURVE",
"-8 -22 OFFCURVE",
"-8 -61 CURVE SMOOTH",
"-8 -70 OFFCURVE",
"-7 -78 OFFCURVE",
"-6 -85 CURVE SMOOTH",
"-5 -88 OFFCURVE",
"-4 -89 OFFCURVE",
"-1 -88 CURVE",
"-1 -88 LINE"
);
},
{
closed = 1;
nodes = (
"64 207 OFFCURVE",
"56 220 OFFCURVE",
"56 235 CURVE SMOOTH",
"56 264 OFFCURVE",
"80 291 OFFCURVE",
"126 315 CURVE",
"115 285 OFFCURVE",
"99 246 OFFCURVE",
"77 195 CURVE",
"77 195 LINE"
);
},
{
closed = 1;
nodes = (
"110 178 OFFCURVE",
"99 182 OFFCURVE",
"89 187 CURVE",
"117 249 OFFCURVE",
"136 295 OFFCURVE",
"148 326 CURVE",
"165 333 OFFCURVE",
"185 339 OFFCURVE",
"208 342 CURVE",
"174 283 OFFCURVE",
"145 227 OFFCURVE",
"121 175 CURVE",
"121 175 LINE"
);
},
{
closed = 1;
nodes = (
"42 478 OFFCURVE",
"26 486 OFFCURVE",
"26 502 CURVE SMOOTH",
"26 524 OFFCURVE",
"54 546 OFFCURVE",
"85 547 CURVE SMOOTH",
"131 550 OFFCURVE",
"157 530 OFFCURVE",
"161 486 CURVE",
"124 481 OFFCURVE",
"95 478 OFFCURVE",
"75 478 CURVE",
"75 478 LINE"
);
},
{
closed = 1;
nodes = (
"174 166 OFFCURVE",
"163 167 OFFCURVE",
"155 168 CURVE",
"186 232 OFFCURVE",
"220 292 OFFCURVE",
"257 349 CURVE",
"272 350 OFFCURVE",
"287 351 OFFCURVE",
"302 351 CURVE SMOOTH",
"359 351 OFFCURVE",
"399 342 OFFCURVE",
"425 326 CURVE SMOOTH",
"428 324 OFFCURVE",
"433 323 OFFCURVE",
"436 323 CURVE SMOOTH",
"441 323 OFFCURVE",
"442 325 OFFCURVE",
"440 329 CURVE SMOOTH",
"425 355 OFFCURVE",
"384 367 OFFCURVE",
"320 367 CURVE SMOOTH",
"303 367 OFFCURVE",
"286 366 OFFCURVE",
"267 364 CURVE",
"286 392 OFFCURVE",
"300 410 OFFCURVE",
"309 419 CURVE SMOOTH",
"312 423 OFFCURVE",
"313 425 OFFCURVE",
"313 427 CURVE SMOOTH",
"313 433 OFFCURVE",
"308 437 OFFCURVE",
"296 437 CURVE SMOOTH",
"278 437 OFFCURVE",
"266 431 OFFCURVE",
"258 419 CURVE SMOOTH",
"246 403 OFFCURVE",
"233 383 OFFCURVE",
"218 357 CURVE",
"193 354 OFFCURVE",
"173 349 OFFCURVE",
"155 342 CURVE",
"170 389 OFFCURVE",
"178 428 OFFCURVE",
"179 459 CURVE",
"214 467 OFFCURVE",
"239 472 OFFCURVE",
"256 475 CURVE SMOOTH",
"290 484 OFFCURVE",
"333 487 OFFCURVE",
"384 487 CURVE SMOOTH",
"412 487 OFFCURVE",
"437 486 OFFCURVE",
"460 484 CURVE SMOOTH",
"548 474 OFFCURVE",
"591 444 OFFCURVE",
"591 396 CURVE SMOOTH",
"591 331 OFFCURVE",
"509 252 OFFCURVE",
"388 205 CURVE SMOOTH",
"322 179 OFFCURVE",
"254 166 OFFCURVE",
"184 166 CURVE",
"184 166 LINE"
);
}
);
userData = {
assembly = "PUSHW[ ]	/* 3 values pushed */\01225 52 3 \012CALL[ ]	/* CallFunction */\012PUSHW[ ]	/* 4 values pushed */\01278 8 109 4 \012CALL[ ]	/* CallFunction */\012NPUSHW[ ]	/* 27 values pushed */\0126 25 22 25 38 25 54 25 70 25 86 25 102 25 118 25 134 25 150 25 166 25 182 25 198 25 13 \012DELTAP1[ ]	/* DeltaExceptionP1 */\012NPUSHW[ ]	/* 5 values pushed */\012213 25 229 25 2 \012DELTAP1[ ]	/* DeltaExceptionP1 */\012PUSHW[ ]	/* 3 values pushed */\01266 52 25 \012SRP1[ ]	/* SetRefPoint1 */\012SRP2[ ]	/* SetRefPoint2 */\012IP[ ]	/* InterpolatePts */\012PUSHW[ ]	/* 1 value pushed */\01266 \012MDAP[1]	/* MoveDirectAbsPt */\012PUSHW[ ]	/* 2 values pushed */\0125 7 \012MIRP[10100]	/* MoveIndirectRelPt */\012PUSHW[ ]	/* 3 values pushed */\0129 52 78 \012SRP1[ ]	/* SetRefPoint1 */\012SRP2[ ]	/* SetRefPoint2 */\012IP[ ]	/* InterpolatePts */\012PUSHW[ ]	/* 2 values pushed */\01211 5 \012MIRP[10100]	/* MoveIndirectRelPt */\012PUSHW[ ]	/* 3 values pushed */\01213 52 25 \012SRP1[ ]	/* SetRefPoint1 */\012SRP2[ ]	/* SetRefPoint2 */\012IP[ ]	/* InterpolatePts */\012PUSHW[ ]	/* 3 values pushed */\01217 52 78 \012SRP1[ ]	/* SetRefPoint1 */\012SRP2[ ]	/* SetRefPoint2 */\012IP[ ]	/* InterpolatePts */\012PUSHW[ ]	/* 1 value pushed */\01225 \012SRP0[ ]	/* SetRefPoint0 */\012PUSHW[ ]	/* 2 values pushed */\01238 7 \012MIRP[10100]	/* MoveIndirectRelPt */\012PUSHW[ ]	/* 1 value pushed */\01266 \012SRP0[ ]	/* SetRefPoint0 */\012PUSHW[ ]	/* 1 value pushed */\01244 \012MDRP[10000]	/* MoveDirectRelPt */\012PUSHW[ ]	/* 1 value pushed */\01244 \012MDAP[1]	/* MoveDirectAbsPt */\012PUSHW[ ]	/* 1 value pushed */\0125 \012SRP0[ ]	/* SetRefPoint0 */\012PUSHW[ ]	/* 1 value pushed */\01256 \012MDRP[10000]	/* MoveDirectRelPt */\012PUSHW[ ]	/* 3 values pushed */\01288 52 78 \012SRP1[ ]	/* SetRefPoint1 */\012SRP2[ ]	/* SetRefPoint2 */\012IP[ ]	/* InterpolatePts */\012PUSHW[ ]	/* 3 values pushed */\012102 52 78 \012SRP1[ ]	/* SetRefPoint1 */\012SRP2[ ]	/* SetRefPoint2 */\012IP[ ]	/* InterpolatePts */\012NPUSHW[ ]	/* 5 values pushed */\012106 109 122 109 2 \012DELTAP2[ ]	/* DeltaExceptionP2 */\012NPUSHW[ ]	/* 33 values pushed */\0129 109 25 109 41 109 57 109 73 109 89 109 105 109 121 109 137 109 153 109 169 109 185 109 201 109 217 109 233 109 249 109 16 \012DELTAP1[ ]	/* DeltaExceptionP1 */\012NPUSHW[ ]	/* 13 values pushed */\0129 109 25 109 41 109 57 109 73 109 89 109 6 \012DELTAP2[ ]	/* DeltaExceptionP2 */\012PUSHW[ ]	/* 3 values pushed */\012119 52 78 \012SRP1[ ]	/* SetRefPoint1 */\012SRP2[ ]	/* SetRefPoint2 */\012IP[ ]	/* InterpolatePts */\012PUSHW[ ]	/* 1 value pushed */\01278 \012SRP0[ ]	/* SetRefPoint0 */\012PUSHW[ ]	/* 1 value pushed */\012130 \012MDRP[11100]	/* MoveDirectRelPt */\012SVTCA[0]	/* SetFreedomAndProjectionVectorToAxis */\012PUSHW[ ]	/* 4 values pushed */\01274 3 113 4 \012CALL[ ]	/* CallFunction */\012PUSHW[ ]	/* 4 values pushed */\0127 4 64 4 \012CALL[ ]	/* CallFunction */\012PUSHW[ ]	/* 4 values pushed */\01290 1 98 4 \012CALL[ ]	/* CallFunction */\012PUSHW[ ]	/* 4 values pushed */\012104 1 84 4 \012CALL[ ]	/* CallFunction */\012PUSHW[ ]	/* 1 value pushed */\012113 \012SRP0[ ]	/* SetRefPoint0 */\012PUSHW[ ]	/* 1 value pushed */\0120 \012MDRP[10000]	/* MoveDirectRelPt */\012PUSHW[ ]	/* 1 value pushed */\0120 \012MDAP[1]	/* MoveDirectAbsPt */\012PUSHW[ ]	/* 1 value pushed */\01284 \012SRP0[ ]	/* SetRefPoint0 */\012PUSHW[ ]	/* 1 value pushed */\01223 \012MDRP[10000]	/* MoveDirectRelPt */\012PUSHW[ ]	/* 1 value pushed */\01223 \012MDAP[1]	/* MoveDirectAbsPt */\012PUSHW[ ]	/* 1 value pushed */\01264 \012SRP0[ ]	/* SetRefPoint0 */\012PUSHW[ ]	/* 1 value pushed */\01269 \012MDRP[11100]	/* MoveDirectRelPt */\012PUSHW[ ]	/* 1 value pushed */\012113 \012SRP0[ ]	/* SetRefPoint0 */\012PUSHW[ ]	/* 1 value pushed */\01271 \012MDRP[10000]	/* MoveDirectRelPt */\012PUSHW[ ]	/* 1 value pushed */\01271 \012MDAP[1]	/* MoveDirectAbsPt */\012PUSHW[ ]	/* 1 value pushed */\01274 \012SRP0[ ]	/* SetRefPoint0 */\012PUSHW[ ]	/* 1 value pushed */\01276 \012MDRP[10000]	/* MoveDirectRelPt */\012PUSHW[ ]	/* 1 value pushed */\01276 \012MDAP[1]	/* MoveDirectAbsPt */\012PUSHW[ ]	/* 1 value pushed */\01290 \012SRP0[ ]	/* SetRefPoint0 */\012PUSHW[ ]	/* 1 value pushed */\01288 \012MDRP[10000]	/* MoveDirectRelPt */\012PUSHW[ ]	/* 1 value pushed */\01288 \012MDAP[1]	/* MoveDirectAbsPt */\012PUSHW[ ]	/* 1 value pushed */\01298 \012SRP0[ ]	/* SetRefPoint0 */\012PUSHW[ ]	/* 1 value pushed */\012100 \012MDRP[10000]	/* MoveDirectRelPt */\012PUSHW[ ]	/* 1 value pushed */\012100 \012MDAP[1]	/* MoveDirectAbsPt */\012PUSHW[ ]	/* 1 value pushed */\012104 \012SRP0[ ]	/* SetRefPoint0 */\012PUSHW[ ]	/* 1 value pushed */\012102 \012MDRP[10000]	/* MoveDirectRelPt */\012PUSHW[ ]	/* 1 value pushed */\012102 \012MDAP[1]	/* MoveDirectAbsPt */\012PUSHW[ ]	/* 1 value pushed */\012113 \012SRP0[ ]	/* SetRefPoint0 */\012PUSHW[ ]	/* 1 value pushed */\012111 \012MDRP[10000]	/* MoveDirectRelPt */\012PUSHW[ ]	/* 1 value pushed */\012111 \012MDAP[1]	/* MoveDirectAbsPt */\012PUSHW[ ]	/* 1 value pushed */\01298 \012SRP0[ ]	/* SetRefPoint0 */\012PUSHW[ ]	/* 1 value pushed */\012125 \012MDRP[11100]	/* MoveDirectRelPt */\012IUP[0]	/* InterpolateUntPts */\012IUP[1]	/* InterpolateUntPts */";
};
width = 530;
}
);
leftKerningGroup = H;
note = P;
rightKerningGroup = P;
unicode = 0050;
},
